<svg viewBox="0 0 40 40" fill="none" xmlns="http://www.w3.org/2000/svg"><g fill="transparent"><circle cx="27.5" cy="17.5" r="8.5" fill="#fff" stroke="#000" stroke-width="2"/><circle cx="26" cy="33" r="3" fill="#fff" stroke="#000" stroke-width="2"/><path fill="#9425A8" d="M26 12H29V23H26z"/><path transform="rotate(67.614 26.18 16.945)" fill="#9425A8" d="M26.179 16.945H29.179V21.692H26.179z"/><path transform="rotate(67.614 32.094 13.572)" fill="#9425A8" d="M32.094 13.572H35.094V18.893H32.094z"/><path transform="scale(1 -1) rotate(67.789 32.063 13.138)" fill="#9425A8" d="M0 0H3V6.33H0z"/><path transform="scale(1 -1) rotate(67.789 27.383 10.93)" fill="#9425A8" d="M0 0H3V5.793H0z"/><path d="M5 4V12C5 14.7614 7.23858 17 10 17V17C12.7614 17 15 14.7614 15 12V4M10 17.3V26.4142C10 28.9538 12.6976 30.5849 14.9465 29.4051V29.4051C17.4686 28.082 20.5496 28.4829 22.6491 30.4074L23.35 31.0499" stroke="#000" stroke-width="2"/><circle cx="15" cy="4" r="2" fill="#000"/><circle cx="5" cy="4" r="2" fill="#000"/></g></svg>