<svg viewBox="0 0 40 40" fill="none" xmlns="http://www.w3.org/2000/svg"><g fill="transparent"><circle cx="28.448" cy="31.448" r="3.552" fill="#fff" stroke="#000" stroke-width="2"/><mask id="path-3-inside-1" fill="#fff"><path d="M21.0517 3C22.9196 3 24.7693 3.36792 26.495 4.08275C28.2208 4.79758 29.7888 5.84532 31.1097 7.16615C32.4305 8.48699 33.4783 10.055 34.1931 11.7808C34.9079 13.5065 35.2758 15.3562 35.2758 17.2241L21.0517 17.2241L21.0517 3Z"/></mask><path d="M21.0517 3C22.9196 3 24.7693 3.36792 26.495 4.08275C28.2208 4.79758 29.7888 5.84532 31.1097 7.16615C32.4305 8.48699 33.4783 10.055 34.1931 11.7808C34.9079 13.5065 35.2758 15.3562 35.2758 17.2241L21.0517 17.2241L21.0517 3Z" fill="#EDEDF0" stroke="#000" stroke-width="4" mask="url(#path-3-inside-1)"/><circle cx="13.655" cy="31.448" r="3.552" fill="#fff" stroke="#000" stroke-width="2"/><path d="M7.82758 17.6552H34.2759V21.0345C34.2759 24.3482 31.5896 27.0345 28.2759 27.0345H13.8276C10.5139 27.0345 7.82758 24.3482 7.82758 21.0345V17.6552Z" fill="#fff" stroke="#000" stroke-width="2"/><path d="M13.6552 17.7931L9.69143 9.29937C8.86992 7.53899 7.10313 6.41379 5.16051 6.41379H0" stroke="#000" stroke-width="2"/><path d="M23.0469 14H32.843L33.4476 16.7063H23.0469V14Z" fill="#EDEDF0"/><path transform="rotate(45 36.874 12.75)" fill="#9425A8" d="M36.874 12.75H39.88V25.3H36.874z"/><path transform="rotate(135 38.997 21.627)" fill="#9425A8" d="M38.997 21.627H41.995V34.177H38.997z"/></g></svg>