<svg viewBox="0 0 40 40" fill="none" xmlns="http://www.w3.org/2000/svg"><g fill="transparent"><path d="M15.055 37.19H20.815V32.96C25.18 32.105 28.24 29.225 28.24 24.77C28.24 20.585 25.855 18.11 21.445 17.03L16.54 15.815C15.145 15.455 14.38 14.87 14.38 13.655C14.38 12.305 15.595 11.405 17.44 11.405C19.465 11.405 20.68 12.395 21.265 13.745H27.925C27.25 9.965 24.91 7.175 20.815 6.23V2H15.055V6.095C10.51 6.86 7.495 9.965 7.495 14.285C7.495 18.92 10.465 20.9 14.155 21.8L18.61 22.835C20.455 23.285 21.31 23.825 21.31 25.22C21.31 26.705 20.005 27.605 18.115 27.605C16.045 27.605 14.605 26.75 14.02 25.04H7C7.72 29.315 10.69 32.06 15.055 32.915V37.19Z" fill="#fff" stroke="#000" stroke-width="2"/><path fill="#9425A8" d="M25.8 20H34.2V30.058999999999997H25.8z"/><path d="M30 39L22.2058 28.1029L37.7942 28.1029L30 39Z" fill="#9425A8"/></g></svg>