<svg viewBox="0 0 40 40" fill="none" xmlns="http://www.w3.org/2000/svg"><g fill="transparent"><circle cx="20.791" cy="13.256" r="6.07" fill="#9425A8" stroke="#000" stroke-width="2"/><circle cx="20.791" cy="13.256" r="6.07" transform="rotate(45 20.79 13.256)" fill="#9425A8" stroke="#000" stroke-width="2"/><circle cx="31.395" cy="13.256" r="1.651" fill="#9425A8" stroke="#000" stroke-width="2"/><circle cx="28.289" cy="20.754" r="1.651" transform="rotate(45 28.29 20.754)" fill="#9425A8" stroke="#000" stroke-width="2"/><circle cx="20.791" cy="23.86" r="1.651" transform="rotate(90 20.79 23.86)" fill="#9425A8" stroke="#000" stroke-width="2"/><circle cx="13.292" cy="20.754" r="1.651" transform="rotate(135 13.292 20.754)" fill="#9425A8" stroke="#000" stroke-width="2"/><circle cx="10.186" cy="13.256" r="1.651" transform="rotate(-180 10.186 13.256)" fill="#9425A8" stroke="#000" stroke-width="2"/><circle cx="13.292" cy="5.757" r="1.651" transform="rotate(-135 13.292 5.757)" fill="#9425A8" stroke="#000" stroke-width="2"/><circle cx="20.791" cy="2.651" r="1.651" transform="rotate(-90 20.79 2.651)" fill="#9425A8" stroke="#000" stroke-width="2"/><circle cx="28.289" cy="5.757" r="1.651" transform="rotate(-45 28.29 5.757)" fill="#9425A8" stroke="#000" stroke-width="2"/><path stroke="#000" stroke-width="2" d="M29.628 13.372 26.977 13.372M26.957 19.587 25.083 17.712M20.674 22.093 20.674 19.442M14.46 19.422 16.334 17.548M11.954 13.14 14.605 13.14M14.624 6.925 16.499 8.799M20.907 4.419 20.907 7.07M27.122 7.089 25.247 8.964"/><path d="M4 36.6744V28.0581H8.5044V29.3837L11.2174 28.4382C13.1731 27.7567 15.2809 27.6378 17.3008 28.095L24.6286 29.7538C25.3846 29.925 25.9214 30.5969 25.9214 31.3721L32.5192 29.1068C33.7007 28.7012 34.9302 29.5791 34.9302 30.8282C34.9302 31.5596 34.4924 32.2199 33.8188 32.5046L25.2308 36.1343C22.352 37.351 19.1782 37.6913 16.1069 37.1127L8.5044 35.6802V36.6744H4Z" fill="#fff"/><path d="M8.5044 29.3837V28.0581H4V36.6744H8.5044V35.6802M8.5044 29.3837L11.2174 28.4382C13.1731 27.7567 15.2809 27.6378 17.3008 28.095L24.6286 29.7538C25.3846 29.925 25.9214 30.5969 25.9214 31.3721V31.3721M8.5044 29.3837V35.6802M16.814 32.0349L24.3021 32.5965C25.0732 32.6543 25.767 32.1297 25.9214 31.3721V31.3721M8.5044 35.6802L16.1069 37.1127C19.1782 37.6913 22.352 37.351 25.2308 36.1343L33.8188 32.5046C34.4924 32.2199 34.9302 31.5596 34.9302 30.8282V30.8282C34.9302 29.5791 33.7007 28.7012 32.5192 29.1068L25.9214 31.3721" stroke="#000" stroke-width="2"/></g></svg>