<svg viewBox="0 0 40 40" fill="none" xmlns="http://www.w3.org/2000/svg"><g fill="transparent"><circle cx="30.448" cy="31.448" r="3.552" fill="#fff" stroke="#000" stroke-width="2"/><mask id="path-3-inside-1" fill="#fff"><path d="M23.0517 3C24.9196 3 26.7693 3.36792 28.495 4.08275C30.2208 4.79758 31.7889 5.84532 33.1097 7.16615C34.4305 8.48699 35.4783 10.055 36.1931 11.7808C36.9079 13.5065 37.2758 15.3562 37.2758 17.2241L23.0517 17.2241L23.0517 3Z"/></mask><path d="M23.0517 3C24.9196 3 26.7693 3.36792 28.495 4.08275C30.2208 4.79758 31.7889 5.84532 33.1097 7.16615C34.4305 8.48699 35.4783 10.055 36.1931 11.7808C36.9079 13.5065 37.2758 15.3562 37.2758 17.2241L23.0517 17.2241L23.0517 3Z" fill="#9425A8" stroke="#000" stroke-width="2" mask="url(#path-3-inside-1)"/><circle cx="15.655" cy="31.448" r="3.552" fill="#fff" stroke="#000" stroke-width="2"/><path d="M9.82759 17.6552H36.2759V21.0345C36.2759 24.3482 33.5896 27.0345 30.2759 27.0345H15.8276C12.5139 27.0345 9.82759 24.3482 9.82759 21.0345V17.6552Z" fill="#fff" stroke="#000" stroke-width="2"/><path d="M15.6552 17.7931L11.6914 9.29937C10.8699 7.53899 9.10313 6.41379 7.16051 6.41379H2" stroke="#000" stroke-width="2"/><path d="M25.0469 14H34.843L35.4476 16.7063H25.0469V14Z" fill="#9425A8"/></g></svg>