<?xml version="1.0" encoding="UTF-8"?><!DOCTYPE svg PUBLIC "-//W3C//DTD SVG 1.1//EN" "http://www.w3.org/Graphics/SVG/1.1/DTD/svg11.dtd"><svg xmlns="http://www.w3.org/2000/svg" xmlns:xlink="http://www.w3.org/1999/xlink"><defs/><symbol id="feather-zoom-out" viewBox="0 0 24 24"><circle cx="11" cy="11" r="8"/><path d="M21 21 16.65 16.65M8 11 14 11"/></symbol><symbol id="feather-zoom-in" viewBox="0 0 24 24"><circle cx="11" cy="11" r="8"/><path d="M21 21 16.65 16.65M11 8 11 14M8 11 14 11"/></symbol><symbol id="feather-zap" viewBox="0 0 24 24"><path d="M13 2 3 14 12 14 11 22 21 10 12 10 13 2z"/></symbol><symbol id="feather-zap-off" viewBox="0 0 24 24"><path d="M12.41 6.75 13 2 10.57 4.92M18.57 12.91 21 10 15.66 10M8 8 3 14 12 14 11 22 16 16M1 1 23 23"/></symbol><symbol id="feather-youtube" viewBox="0 0 24 24"><path d="M22.54 6.42a2.78 2.78 0 0 0-1.94-2C18.88 4 12 4 12 4s-6.88 0-8.6.46a2.78 2.78 0 0 0-1.94 2A29 29 0 0 0 1 11.75a29 29 0 0 0 .46 5.33A2.78 2.78 0 0 0 3.4 19c1.72.46 8.6.46 8.6.46s6.88 0 8.6-.46a2.78 2.78 0 0 0 1.94-2 29 29 0 0 0 .46-5.25 29 29 0 0 0-.46-5.33z"/><path d="M9.75 15.02 15.5 11.75 9.75 8.48 9.75 15.02z"/></symbol><symbol id="feather-x" viewBox="0 0 24 24"><path d="M18 6 6 18M6 6 18 18"/></symbol><symbol id="feather-x-square" viewBox="0 0 24 24"><rect x="3" y="3" width="18" height="18" rx="2" ry="2"/><path d="M9 9 15 15M15 9 9 15"/></symbol><symbol id="feather-x-octagon" viewBox="0 0 24 24"><path d="M7.86 2 16.14 2 22 7.86 22 16.14 16.14 22 7.86 22 2 16.14 2 7.86 7.86 2zM15 9 9 15M9 9 15 15"/></symbol><symbol id="feather-x-circle" viewBox="0 0 24 24"><circle cx="12" cy="12" r="10"/><path d="M15 9 9 15M9 9 15 15"/></symbol><symbol id="feather-wind" viewBox="0 0 24 24"><path d="M9.59 4.59A2 2 0 1 1 11 8H2m10.59 11.41A2 2 0 1 0 14 16H2m15.73-8.27A2.5 2.5 0 1 1 19.5 12H2"/></symbol><symbol id="feather-wifi" viewBox="0 0 24 24"><path d="M5 12.55a11 11 0 0 1 14.08 0M1.42 9a16 16 0 0 1 21.16 0M8.53 16.11a6 6 0 0 1 6.95 0M12 20 12.01 20"/></symbol><symbol id="feather-wifi-off" viewBox="0 0 24 24"><path d="M1 1 23 23M16.72 11.06A10.94 10.94 0 0 1 19 12.55M5 12.55a10.94 10.94 0 0 1 5.17-2.39M10.71 5.05A16 16 0 0 1 22.58 9M1.42 9a15.91 15.91 0 0 1 4.7-2.88M8.53 16.11a6 6 0 0 1 6.95 0M12 20 12.01 20"/></symbol><symbol id="feather-watch" viewBox="0 0 24 24"><circle cx="12" cy="12" r="7"/><path d="M12 9 12 12 13.5 13.5M16.51 17.35l-.35 3.83a2 2 0 0 1-2 1.82H9.83a2 2 0 0 1-2-1.82l-.35-3.83m.01-10.7.35-3.83A2 2 0 0 1 9.83 1h4.35a2 2 0 0 1 2 1.82l.35 3.83"/></symbol><symbol id="feather-volume" viewBox="0 0 24 24"><path d="M11 5 6 9 2 9 2 15 6 15 11 19 11 5z"/></symbol><symbol id="feather-volume-x" viewBox="0 0 24 24"><path d="M11 5 6 9 2 9 2 15 6 15 11 19 11 5zM23 9 17 15M17 9 23 15"/></symbol><symbol id="feather-volume-2" viewBox="0 0 24 24"><path d="M11 5 6 9 2 9 2 15 6 15 11 19 11 5zM19.07 4.93a10 10 0 0 1 0 14.14M15.54 8.46a5 5 0 0 1 0 7.07"/></symbol><symbol id="feather-volume-1" viewBox="0 0 24 24"><path d="M11 5 6 9 2 9 2 15 6 15 11 19 11 5zM15.54 8.46a5 5 0 0 1 0 7.07"/></symbol><symbol id="feather-voicemail" viewBox="0 0 24 24"><circle cx="5.5" cy="11.5" r="4.5"/><circle cx="18.5" cy="11.5" r="4.5"/><path d="M5.5 16 18.5 16"/></symbol><symbol id="feather-video" viewBox="0 0 24 24"><path d="M23 7 16 12 23 17 23 7z"/><rect x="1" y="5" width="15" height="14" rx="2" ry="2"/></symbol><symbol id="feather-video-off" viewBox="0 0 24 24"><path d="M16 16v1a2 2 0 0 1-2 2H3a2 2 0 0 1-2-2V7a2 2 0 0 1 2-2h2m5.66 0H14a2 2 0 0 1 2 2v3.34l1 1L23 7v10M1 1 23 23"/></symbol><symbol id="feather-users" viewBox="0 0 24 24"><path d="M17 21v-2a4 4 0 0 0-4-4H5a4 4 0 0 0-4 4v2"/><circle cx="9" cy="7" r="4"/><path d="M23 21v-2a4 4 0 0 0-3-3.87M16 3.13a4 4 0 0 1 0 7.75"/></symbol><symbol id="feather-user" viewBox="0 0 24 24"><path d="M20 21v-2a4 4 0 0 0-4-4H8a4 4 0 0 0-4 4v2"/><circle cx="12" cy="7" r="4"/></symbol><symbol id="feather-user-x" viewBox="0 0 24 24"><path d="M16 21v-2a4 4 0 0 0-4-4H5a4 4 0 0 0-4 4v2"/><circle cx="8.5" cy="7" r="4"/><path d="M18 8 23 13M23 8 18 13"/></symbol><symbol id="feather-user-plus" viewBox="0 0 24 24"><path d="M16 21v-2a4 4 0 0 0-4-4H5a4 4 0 0 0-4 4v2"/><circle cx="8.5" cy="7" r="4"/><path d="M20 8 20 14M23 11 17 11"/></symbol><symbol id="feather-user-minus" viewBox="0 0 24 24"><path d="M16 21v-2a4 4 0 0 0-4-4H5a4 4 0 0 0-4 4v2"/><circle cx="8.5" cy="7" r="4"/><path d="M23 11 17 11"/></symbol><symbol id="feather-user-check" viewBox="0 0 24 24"><path d="M16 21v-2a4 4 0 0 0-4-4H5a4 4 0 0 0-4 4v2"/><circle cx="8.5" cy="7" r="4"/><path d="M17 11 19 13 23 9"/></symbol><symbol id="feather-upload" viewBox="0 0 24 24"><path d="M21 15v4a2 2 0 0 1-2 2H5a2 2 0 0 1-2-2v-4M17 8 12 3 7 8M12 3 12 15"/></symbol><symbol id="feather-upload-cloud" viewBox="0 0 24 24"><path d="M16 16 12 12 8 16M12 12 12 21"/><path d="M20.39 18.39A5 5 0 0 0 18 9h-1.26A8 8 0 1 0 3 16.3"/><path d="M16 16 12 12 8 16"/></symbol><symbol id="feather-unlock" viewBox="0 0 24 24"><rect x="3" y="11" width="18" height="11" rx="2" ry="2"/><path d="M7 11V7a5 5 0 0 1 9.9-1"/></symbol><symbol id="feather-underline" viewBox="0 0 24 24"><path d="M6 3v7a6 6 0 0 0 6 6 6 6 0 0 0 6-6V3M4 21 20 21"/></symbol><symbol id="feather-umbrella" viewBox="0 0 24 24"><path d="M23 12a11.05 11.05 0 0 0-22 0zm-5 7a3 3 0 0 1-6 0v-7"/></symbol><symbol id="feather-type" viewBox="0 0 24 24"><path d="M4 7 4 4 20 4 20 7M9 20 15 20M12 4 12 20"/></symbol><symbol id="feather-twitter" viewBox="0 0 24 24"><path d="M23 3a10.9 10.9 0 0 1-3.14 1.53 4.48 4.48 0 0 0-7.86 3v1A10.66 10.66 0 0 1 3 4s-4 9 5 13a11.64 11.64 0 0 1-7 2c9 5 20 0 20-11.5a4.5 4.5 0 0 0-.08-.83A7.72 7.72 0 0 0 23 3z"/></symbol><symbol id="feather-twitch" viewBox="0 0 24 24"><path d="M21 2H3v16h5v4l4-4h5l4-4V2zm-10 9V7m5 4V7"/></symbol><symbol id="feather-tv" viewBox="0 0 24 24"><rect x="2" y="7" width="20" height="15" rx="2" ry="2"/><path d="M17 2 12 7 7 2"/></symbol><symbol id="feather-truck" viewBox="0 0 24 24"><path d="M1 3H16V16H1zM16 8 20 8 23 11 23 16 16 16 16 8z"/><circle cx="5.5" cy="18.5" r="2.5"/><circle cx="18.5" cy="18.5" r="2.5"/></symbol><symbol id="feather-triangle" viewBox="0 0 24 24"><path d="M10.29 3.86L1.82 18a2 2 0 0 0 1.71 3h16.94a2 2 0 0 0 1.71-3L13.71 3.86a2 2 0 0 0-3.42 0z"/></symbol><symbol id="feather-trending-up" viewBox="0 0 24 24"><path d="M23 6 13.5 15.5 8.5 10.5 1 18"/><path d="M17 6 23 6 23 12"/></symbol><symbol id="feather-trending-down" viewBox="0 0 24 24"><path d="M23 18 13.5 8.5 8.5 13.5 1 6"/><path d="M17 18 23 18 23 12"/></symbol><symbol id="feather-trello" viewBox="0 0 24 24"><rect x="3" y="3" width="18" height="18" rx="2" ry="2"/><path d="M7 7H10V16H7zM14 7H17V12H14z"/></symbol><symbol id="feather-trash" viewBox="0 0 24 24"><path d="M3 6 5 6 21 6M19 6v14a2 2 0 0 1-2 2H7a2 2 0 0 1-2-2V6m3 0V4a2 2 0 0 1 2-2h4a2 2 0 0 1 2 2v2"/></symbol><symbol id="feather-trash-2" viewBox="0 0 24 24"><path d="M3 6 5 6 21 6M19 6v14a2 2 0 0 1-2 2H7a2 2 0 0 1-2-2V6m3 0V4a2 2 0 0 1 2-2h4a2 2 0 0 1 2 2v2M10 11 10 17M14 11 14 17"/></symbol><symbol id="feather-tool" viewBox="0 0 24 24"><path d="M14.7 6.3a1 1 0 0 0 0 1.4l1.6 1.6a1 1 0 0 0 1.4 0l3.77-3.77a6 6 0 0 1-7.94 7.94l-6.91 6.91a2.12 2.12 0 0 1-3-3l6.91-6.91a6 6 0 0 1 7.94-7.94l-3.76 3.76z"/></symbol><symbol id="feather-toggle-right" viewBox="0 0 24 24"><rect x="1" y="5" width="22" height="14" rx="7" ry="7"/><circle cx="16" cy="12" r="3"/></symbol><symbol id="feather-toggle-left" viewBox="0 0 24 24"><rect x="1" y="5" width="22" height="14" rx="7" ry="7"/><circle cx="8" cy="12" r="3"/></symbol><symbol id="feather-thumbs-up" viewBox="0 0 24 24"><path d="M14 9V5a3 3 0 0 0-3-3l-4 9v11h11.28a2 2 0 0 0 2-1.7l1.38-9a2 2 0 0 0-2-2.3zM7 22H4a2 2 0 0 1-2-2v-7a2 2 0 0 1 2-2h3"/></symbol><symbol id="feather-thumbs-down" viewBox="0 0 24 24"><path d="M10 15v4a3 3 0 0 0 3 3l4-9V2H5.72a2 2 0 0 0-2 1.7l-1.38 9a2 2 0 0 0 2 2.3zm7-13h2.67A2.31 2.31 0 0 1 22 4v7a2.31 2.31 0 0 1-2.33 2H17"/></symbol><symbol id="feather-thermometer" viewBox="0 0 24 24"><path d="M14 14.76V3.5a2.5 2.5 0 0 0-5 0v11.26a4.5 4.5 0 1 0 5 0z"/></symbol><symbol id="feather-terminal" viewBox="0 0 24 24"><path d="M4 17 10 11 4 5M12 19 20 19"/></symbol><symbol id="feather-target" viewBox="0 0 24 24"><circle cx="12" cy="12" r="10"/><circle cx="12" cy="12" r="6"/><circle cx="12" cy="12" r="2"/></symbol><symbol id="feather-tag" viewBox="0 0 24 24"><path d="m20.59 13.41-7.17 7.17a2 2 0 0 1-2.83 0L2 12V2h10l8.59 8.59a2 2 0 0 1 0 2.82zM7 7 7.01 7"/></symbol><symbol id="feather-tablet" viewBox="0 0 24 24"><rect x="4" y="2" width="16" height="20" rx="2" ry="2"/><path d="M12 18 12.01 18"/></symbol><symbol id="feather-table" viewBox="0 0 24 24"><path d="M9 3H5a2 2 0 0 0-2 2v4m6-6h10a2 2 0 0 1 2 2v4M9 3v18m0 0h10a2 2 0 0 0 2-2V9M9 21H5a2 2 0 0 1-2-2V9m0 0h18"/></symbol><symbol id="feather-sunset" viewBox="0 0 24 24"><path d="M17 18a5 5 0 0 0-10 0M12 9 12 2M4.22 10.22 5.64 11.64M1 18 3 18M21 18 23 18M18.36 11.64 19.78 10.22M23 22 1 22M16 5 12 9 8 5"/></symbol><symbol id="feather-sunrise" viewBox="0 0 24 24"><path d="M17 18a5 5 0 0 0-10 0M12 2 12 9M4.22 10.22 5.64 11.64M1 18 3 18M21 18 23 18M18.36 11.64 19.78 10.22M23 22 1 22M8 6 12 2 16 6"/></symbol><symbol id="feather-sun" viewBox="0 0 24 24"><circle cx="12" cy="12" r="5"/><path d="M12 1 12 3M12 21 12 23M4.22 4.22 5.64 5.64M18.36 18.36 19.78 19.78M1 12 3 12M21 12 23 12M4.22 19.78 5.64 18.36M18.36 5.64 19.78 4.22"/></symbol><symbol id="feather-stop-circle" viewBox="0 0 24 24"><circle cx="12" cy="12" r="10"/><path d="M9 9H15V15H9z"/></symbol><symbol id="feather-star" viewBox="0 0 24 24"><path d="M12 2 15.09 8.26 22 9.27 17 14.14 18.18 21.02 12 17.77 5.82 21.02 7 14.14 2 9.27 8.91 8.26 12 2z"/></symbol><symbol id="feather-square" viewBox="0 0 24 24"><rect x="3" y="3" width="18" height="18" rx="2" ry="2"/></symbol><symbol id="feather-speaker" viewBox="0 0 24 24"><rect x="4" y="2" width="16" height="20" rx="2" ry="2"/><circle cx="12" cy="14" r="4"/><path d="M12 6 12.01 6"/></symbol><symbol id="feather-smile" viewBox="0 0 24 24"><circle cx="12" cy="12" r="10"/><path d="M8 14s1.5 2 4 2 4-2 4-2M9 9 9.01 9M15 9 15.01 9"/></symbol><symbol id="feather-smartphone" viewBox="0 0 24 24"><rect x="5" y="2" width="14" height="20" rx="2" ry="2"/><path d="M12 18 12.01 18"/></symbol><symbol id="feather-sliders" viewBox="0 0 24 24"><path d="M4 21 4 14M4 10 4 3M12 21 12 12M12 8 12 3M20 21 20 16M20 12 20 3M1 14 7 14M9 8 15 8M17 16 23 16"/></symbol><symbol id="feather-slash" viewBox="0 0 24 24"><circle cx="12" cy="12" r="10"/><path d="M4.93 4.93 19.07 19.07"/></symbol><symbol id="feather-slack" viewBox="0 0 24 24"><path d="M14.5 10c-.83 0-1.5-.67-1.5-1.5v-5c0-.83.67-1.5 1.5-1.5s1.5.67 1.5 1.5v5c0 .83-.67 1.5-1.5 1.5zM20.5 10H19V8.5c0-.83.67-1.5 1.5-1.5s1.5.67 1.5 1.5-.67 1.5-1.5 1.5zM9.5 14c.83 0 1.5.67 1.5 1.5v5c0 .83-.67 1.5-1.5 1.5S8 21.33 8 20.5v-5c0-.83.67-1.5 1.5-1.5zM3.5 14H5v1.5c0 .83-.67 1.5-1.5 1.5S2 16.33 2 15.5 2.67 14 3.5 14zM14 14.5c0-.83.67-1.5 1.5-1.5h5c.83 0 1.5.67 1.5 1.5s-.67 1.5-1.5 1.5h-5c-.83 0-1.5-.67-1.5-1.5zM15.5 19H14v1.5c0 .83.67 1.5 1.5 1.5s1.5-.67 1.5-1.5-.67-1.5-1.5-1.5zM10 9.5C10 8.67 9.33 8 8.5 8h-5C2.67 8 2 8.67 2 9.5S2.67 11 3.5 11h5c.83 0 1.5-.67 1.5-1.5zM8.5 5H10V3.5C10 2.67 9.33 2 8.5 2S7 2.67 7 3.5 7.67 5 8.5 5z"/></symbol><symbol id="feather-skip-forward" viewBox="0 0 24 24"><path d="M5 4 15 12 5 20 5 4zM19 5 19 19"/></symbol><symbol id="feather-skip-back" viewBox="0 0 24 24"><path d="M19 20 9 12 19 4 19 20zM5 19 5 5"/></symbol><symbol id="feather-sidebar" viewBox="0 0 24 24"><rect x="3" y="3" width="18" height="18" rx="2" ry="2"/><path d="M9 3 9 21"/></symbol><symbol id="feather-shuffle" viewBox="0 0 24 24"><path d="M16 3 21 3 21 8M4 20 21 3M21 16 21 21 16 21M15 15 21 21M4 4 9 9"/></symbol><symbol id="feather-shopping-cart" viewBox="0 0 24 24"><circle cx="9" cy="21" r="1"/><circle cx="20" cy="21" r="1"/><path d="M1 1h4l2.68 13.39a2 2 0 0 0 2 1.61h9.72a2 2 0 0 0 2-1.61L23 6H6"/></symbol><symbol id="feather-shopping-bag" viewBox="0 0 24 24"><path d="M6 2 3 6v14a2 2 0 0 0 2 2h14a2 2 0 0 0 2-2V6l-3-4zM3 6 21 6"/><path d="M16 10a4 4 0 0 1-8 0"/></symbol><symbol id="feather-shield" viewBox="0 0 24 24"><path d="M12 22s8-4 8-10V5l-8-3-8 3v7c0 6 8 10 8 10z"/></symbol><symbol id="feather-shield-off" viewBox="0 0 24 24"><path d="M19.69 14a6.9 6.9 0 0 0 .31-2V5l-8-3-3.16 1.18M4.73 4.73 4 5v7c0 6 8 10 8 10a20.29 20.29 0 0 0 5.62-4.38M1 1 23 23"/></symbol><symbol id="feather-share" viewBox="0 0 24 24"><path d="M4 12v8a2 2 0 0 0 2 2h12a2 2 0 0 0 2-2v-8M16 6 12 2 8 6M12 2 12 15"/></symbol><symbol id="feather-share-2" viewBox="0 0 24 24"><circle cx="18" cy="5" r="3"/><circle cx="6" cy="12" r="3"/><circle cx="18" cy="19" r="3"/><path d="M8.59 13.51 15.42 17.49M15.41 6.51 8.59 10.49"/></symbol><symbol id="feather-settings" viewBox="0 0 24 24"><circle cx="12" cy="12" r="3"/><path d="M19.4 15a1.65 1.65 0 0 0 .33 1.82l.06.06a2 2 0 0 1 0 2.83 2 2 0 0 1-2.83 0l-.06-.06a1.65 1.65 0 0 0-1.82-.33 1.65 1.65 0 0 0-1 1.51V21a2 2 0 0 1-2 2 2 2 0 0 1-2-2v-.09A1.65 1.65 0 0 0 9 19.4a1.65 1.65 0 0 0-1.82.33l-.06.06a2 2 0 0 1-2.83 0 2 2 0 0 1 0-2.83l.06-.06a1.65 1.65 0 0 0 .33-1.82 1.65 1.65 0 0 0-1.51-1H3a2 2 0 0 1-2-2 2 2 0 0 1 2-2h.09A1.65 1.65 0 0 0 4.6 9a1.65 1.65 0 0 0-.33-1.82l-.06-.06a2 2 0 0 1 0-2.83 2 2 0 0 1 2.83 0l.06.06a1.65 1.65 0 0 0 1.82.33H9a1.65 1.65 0 0 0 1-1.51V3a2 2 0 0 1 2-2 2 2 0 0 1 2 2v.09a1.65 1.65 0 0 0 1 1.51 1.65 1.65 0 0 0 1.82-.33l.06-.06a2 2 0 0 1 2.83 0 2 2 0 0 1 0 2.83l-.06.06a1.65 1.65 0 0 0-.33 1.82V9a1.65 1.65 0 0 0 1.51 1H21a2 2 0 0 1 2 2 2 2 0 0 1-2 2h-.09a1.65 1.65 0 0 0-1.51 1z"/></symbol><symbol id="feather-server" viewBox="0 0 24 24"><rect x="2" y="2" width="20" height="8" rx="2" ry="2"/><rect x="2" y="14" width="20" height="8" rx="2" ry="2"/><path d="M6 6 6.01 6M6 18 6.01 18"/></symbol><symbol id="feather-send" viewBox="0 0 24 24"><path d="M22 2 11 13M22 2 15 22 11 13 2 9 22 2z"/></symbol><symbol id="feather-search" viewBox="0 0 24 24"><circle cx="11" cy="11" r="8"/><path d="M21 21 16.65 16.65"/></symbol><symbol id="feather-scissors" viewBox="0 0 24 24"><circle cx="6" cy="6" r="3"/><circle cx="6" cy="18" r="3"/><path d="M20 4 8.12 15.88M14.47 14.48 20 20M8.12 8.12 12 12"/></symbol><symbol id="feather-save" viewBox="0 0 24 24"><path d="M19 21H5a2 2 0 0 1-2-2V5a2 2 0 0 1 2-2h11l5 5v11a2 2 0 0 1-2 2z"/><path d="M17 21 17 13 7 13 7 21M7 3 7 8 15 8"/></symbol><symbol id="feather-rss" viewBox="0 0 24 24"><path d="M4 11a9 9 0 0 1 9 9M4 4a16 16 0 0 1 16 16"/><circle cx="5" cy="19" r="1"/></symbol><symbol id="feather-rotate-cw" viewBox="0 0 24 24"><path d="M23 4 23 10 17 10"/><path d="M20.49 15a9 9 0 1 1-2.12-9.36L23 10"/></symbol><symbol id="feather-rotate-ccw" viewBox="0 0 24 24"><path d="M1 4 1 10 7 10"/><path d="M3.51 15a9 9 0 1 0 2.13-9.36L1 10"/></symbol><symbol id="feather-rewind" viewBox="0 0 24 24"><path d="M11 19 2 12 11 5 11 19zM22 19 13 12 22 5 22 19z"/></symbol><symbol id="feather-repeat" viewBox="0 0 24 24"><path d="M17 1 21 5 17 9"/><path d="M3 11V9a4 4 0 0 1 4-4h14M7 23 3 19 7 15"/><path d="M21 13v2a4 4 0 0 1-4 4H3"/></symbol><symbol id="feather-refresh-cw" viewBox="0 0 24 24"><path d="M23 4 23 10 17 10M1 20 1 14 7 14"/><path d="M3.51 9a9 9 0 0 1 14.85-3.36L23 10M1 14l4.64 4.36A9 9 0 0 0 20.49 15"/></symbol><symbol id="feather-refresh-ccw" viewBox="0 0 24 24"><path d="M1 4 1 10 7 10M23 20 23 14 17 14"/><path d="M20.49 9A9 9 0 0 0 5.64 5.64L1 10m22 4l-4.64 4.36A9 9 0 0 1 3.51 15"/></symbol><symbol id="feather-radio" viewBox="0 0 24 24"><circle cx="12" cy="12" r="2"/><path d="M16.24 7.76a6 6 0 0 1 0 8.49m-8.48-.01a6 6 0 0 1 0-8.49m11.31-2.82a10 10 0 0 1 0 14.14m-14.14 0a10 10 0 0 1 0-14.14"/></symbol><symbol id="feather-printer" viewBox="0 0 24 24"><path d="M6 9 6 2 18 2 18 9M6 18H4a2 2 0 0 1-2-2v-5a2 2 0 0 1 2-2h16a2 2 0 0 1 2 2v5a2 2 0 0 1-2 2h-2"/><path d="M6 14H18V22H6z"/></symbol><symbol id="feather-power" viewBox="0 0 24 24"><path d="M18.36 6.64a9 9 0 1 1-12.73 0M12 2 12 12"/></symbol><symbol id="feather-pocket" viewBox="0 0 24 24"><path d="M4 3h16a2 2 0 0 1 2 2v6a10 10 0 0 1-10 10A10 10 0 0 1 2 11V5a2 2 0 0 1 2-2z"/><path d="M8 10 12 14 16 10"/></symbol><symbol id="feather-plus" viewBox="0 0 24 24"><path d="M12 5 12 19M5 12 19 12"/></symbol><symbol id="feather-plus-square" viewBox="0 0 24 24"><rect x="3" y="3" width="18" height="18" rx="2" ry="2"/><path d="M12 8 12 16M8 12 16 12"/></symbol><symbol id="feather-plus-circle" viewBox="0 0 24 24"><circle cx="12" cy="12" r="10"/><path d="M12 8 12 16M8 12 16 12"/></symbol><symbol id="feather-play" viewBox="0 0 24 24"><path d="M5 3 19 12 5 21 5 3z"/></symbol><symbol id="feather-play-circle" viewBox="0 0 24 24"><circle cx="12" cy="12" r="10"/><path d="M10 8 16 12 10 16 10 8z"/></symbol><symbol id="feather-pie-chart" viewBox="0 0 24 24"><path d="M21.21 15.89A10 10 0 1 1 8 2.83"/><path d="M22 12A10 10 0 0 0 12 2v10z"/></symbol><symbol id="feather-phone" viewBox="0 0 24 24"><path d="M22 16.92v3a2 2 0 0 1-2.18 2 19.79 19.79 0 0 1-8.63-3.07 19.5 19.5 0 0 1-6-6 19.79 19.79 0 0 1-3.07-8.67A2 2 0 0 1 4.11 2h3a2 2 0 0 1 2 1.72 12.84 12.84 0 0 0 .7 2.81 2 2 0 0 1-.45 2.11L8.09 9.91a16 16 0 0 0 6 6l1.27-1.27a2 2 0 0 1 2.11-.45 12.84 12.84 0 0 0 2.81.7A2 2 0 0 1 22 16.92z"/></symbol><symbol id="feather-phone-outgoing" viewBox="0 0 24 24"><path d="M23 7 23 1 17 1M16 8 23 1M22 16.92v3a2 2 0 0 1-2.18 2 19.79 19.79 0 0 1-8.63-3.07 19.5 19.5 0 0 1-6-6 19.79 19.79 0 0 1-3.07-8.67A2 2 0 0 1 4.11 2h3a2 2 0 0 1 2 1.72 12.84 12.84 0 0 0 .7 2.81 2 2 0 0 1-.45 2.11L8.09 9.91a16 16 0 0 0 6 6l1.27-1.27a2 2 0 0 1 2.11-.45 12.84 12.84 0 0 0 2.81.7A2 2 0 0 1 22 16.92z"/></symbol><symbol id="feather-phone-off" viewBox="0 0 24 24"><path d="M10.68 13.31a16 16 0 0 0 3.41 2.6l1.27-1.27a2 2 0 0 1 2.11-.45 12.84 12.84 0 0 0 2.81.7 2 2 0 0 1 1.72 2v3a2 2 0 0 1-2.18 2 19.79 19.79 0 0 1-8.63-3.07 19.42 19.42 0 0 1-3.33-2.67m-2.67-3.34a19.79 19.79 0 0 1-3.07-8.63A2 2 0 0 1 4.11 2h3a2 2 0 0 1 2 1.72 12.84 12.84 0 0 0 .7 2.81 2 2 0 0 1-.45 2.11L8.09 9.91M23 1 1 23"/></symbol><symbol id="feather-phone-missed" viewBox="0 0 24 24"><path d="M23 1 17 7M17 1 23 7M22 16.92v3a2 2 0 0 1-2.18 2 19.79 19.79 0 0 1-8.63-3.07 19.5 19.5 0 0 1-6-6 19.79 19.79 0 0 1-3.07-8.67A2 2 0 0 1 4.11 2h3a2 2 0 0 1 2 1.72 12.84 12.84 0 0 0 .7 2.81 2 2 0 0 1-.45 2.11L8.09 9.91a16 16 0 0 0 6 6l1.27-1.27a2 2 0 0 1 2.11-.45 12.84 12.84 0 0 0 2.81.7A2 2 0 0 1 22 16.92z"/></symbol><symbol id="feather-phone-incoming" viewBox="0 0 24 24"><path d="M16 2 16 8 22 8M23 1 16 8M22 16.92v3a2 2 0 0 1-2.18 2 19.79 19.79 0 0 1-8.63-3.07 19.5 19.5 0 0 1-6-6 19.79 19.79 0 0 1-3.07-8.67A2 2 0 0 1 4.11 2h3a2 2 0 0 1 2 1.72 12.84 12.84 0 0 0 .7 2.81 2 2 0 0 1-.45 2.11L8.09 9.91a16 16 0 0 0 6 6l1.27-1.27a2 2 0 0 1 2.11-.45 12.84 12.84 0 0 0 2.81.7A2 2 0 0 1 22 16.92z"/></symbol><symbol id="feather-phone-forwarded" viewBox="0 0 24 24"><path d="M19 1 23 5 19 9M15 5 23 5M22 16.92v3a2 2 0 0 1-2.18 2 19.79 19.79 0 0 1-8.63-3.07 19.5 19.5 0 0 1-6-6 19.79 19.79 0 0 1-3.07-8.67A2 2 0 0 1 4.11 2h3a2 2 0 0 1 2 1.72 12.84 12.84 0 0 0 .7 2.81 2 2 0 0 1-.45 2.11L8.09 9.91a16 16 0 0 0 6 6l1.27-1.27a2 2 0 0 1 2.11-.45 12.84 12.84 0 0 0 2.81.7A2 2 0 0 1 22 16.92z"/></symbol><symbol id="feather-phone-call" viewBox="0 0 24 24"><path d="M15.05 5A5 5 0 0 1 19 8.95M15.05 1A9 9 0 0 1 23 8.94m-1 7.98v3a2 2 0 0 1-2.18 2 19.79 19.79 0 0 1-8.63-3.07 19.5 19.5 0 0 1-6-6 19.79 19.79 0 0 1-3.07-8.67A2 2 0 0 1 4.11 2h3a2 2 0 0 1 2 1.72 12.84 12.84 0 0 0 .7 2.81 2 2 0 0 1-.45 2.11L8.09 9.91a16 16 0 0 0 6 6l1.27-1.27a2 2 0 0 1 2.11-.45 12.84 12.84 0 0 0 2.81.7A2 2 0 0 1 22 16.92z"/></symbol><symbol id="feather-percent" viewBox="0 0 24 24"><path d="M19 5 5 19"/><circle cx="6.5" cy="6.5" r="2.5"/><circle cx="17.5" cy="17.5" r="2.5"/></symbol><symbol id="feather-pen-tool" viewBox="0 0 24 24"><path d="M12 19l7-7 3 3-7 7-3-3z"/><path d="m18 13-1.5-7.5L2 2l3.5 14.5L13 18l5-5zM2 2l7.586 7.586"/><circle cx="11" cy="11" r="2"/></symbol><symbol id="feather-pause" viewBox="0 0 24 24"><path d="M6 4H10V20H6zM14 4H18V20H14z"/></symbol><symbol id="feather-pause-circle" viewBox="0 0 24 24"><circle cx="12" cy="12" r="10"/><path d="M10 15 10 9M14 15 14 9"/></symbol><symbol id="feather-paperclip" viewBox="0 0 24 24"><path d="M21.44 11.05l-9.19 9.19a6 6 0 0 1-8.49-8.49l9.19-9.19a4 4 0 0 1 5.66 5.66l-9.2 9.19a2 2 0 0 1-2.83-2.83l8.49-8.48"/></symbol><symbol id="feather-package" viewBox="0 0 24 24"><path d="M16.5 9.4 7.5 4.21M21 16V8a2 2 0 0 0-1-1.73l-7-4a2 2 0 0 0-2 0l-7 4A2 2 0 0 0 3 8v8a2 2 0 0 0 1 1.73l7 4a2 2 0 0 0 2 0l7-4A2 2 0 0 0 21 16z"/><path d="M3.27 6.96 12 12.01 20.73 6.96M12 22.08 12 12"/></symbol><symbol id="feather-octagon" viewBox="0 0 24 24"><path d="M7.86 2 16.14 2 22 7.86 22 16.14 16.14 22 7.86 22 2 16.14 2 7.86 7.86 2z"/></symbol><symbol id="feather-navigation" viewBox="0 0 24 24"><path d="M3 11 22 2 13 21 11 13 3 11z"/></symbol><symbol id="feather-navigation-2" viewBox="0 0 24 24"><path d="M12 2 19 21 12 17 5 21 12 2z"/></symbol><symbol id="feather-music" viewBox="0 0 24 24"><path d="M9 18V5l12-2v13"/><circle cx="6" cy="18" r="3"/><circle cx="18" cy="16" r="3"/></symbol><symbol id="feather-move" viewBox="0 0 24 24"><path d="M5 9 2 12 5 15M9 5 12 2 15 5M15 19 12 22 9 19M19 9 22 12 19 15M2 12 22 12M12 2 12 22"/></symbol><symbol id="feather-mouse-pointer" viewBox="0 0 24 24"><path d="m3 3 7.07 16.97 2.51-7.39 7.39-2.51L3 3zM13 13l6 6"/></symbol><symbol id="feather-more-vertical" viewBox="0 0 24 24"><circle cx="12" cy="12" r="1"/><circle cx="12" cy="5" r="1"/><circle cx="12" cy="19" r="1"/></symbol><symbol id="feather-more-horizontal" viewBox="0 0 24 24"><circle cx="12" cy="12" r="1"/><circle cx="19" cy="12" r="1"/><circle cx="5" cy="12" r="1"/></symbol><symbol id="feather-moon" viewBox="0 0 24 24"><path d="M21 12.79A9 9 0 1 1 11.21 3 7 7 0 0 0 21 12.79z"/></symbol><symbol id="feather-monitor" viewBox="0 0 24 24"><rect x="2" y="3" width="20" height="14" rx="2" ry="2"/><path d="M8 21 16 21M12 17 12 21"/></symbol><symbol id="feather-minus" viewBox="0 0 24 24"><path d="M5 12 19 12"/></symbol><symbol id="feather-minus-square" viewBox="0 0 24 24"><rect x="3" y="3" width="18" height="18" rx="2" ry="2"/><path d="M8 12 16 12"/></symbol><symbol id="feather-minus-circle" viewBox="0 0 24 24"><circle cx="12" cy="12" r="10"/><path d="M8 12 16 12"/></symbol><symbol id="feather-minimize" viewBox="0 0 24 24"><path d="M8 3v3a2 2 0 0 1-2 2H3m18 0h-3a2 2 0 0 1-2-2V3m0 18v-3a2 2 0 0 1 2-2h3M3 16h3a2 2 0 0 1 2 2v3"/></symbol><symbol id="feather-minimize-2" viewBox="0 0 24 24"><path d="M4 14 10 14 10 20M20 10 14 10 14 4M14 10 21 3M3 21 10 14"/></symbol><symbol id="feather-mic" viewBox="0 0 24 24"><path d="M12 1a3 3 0 0 0-3 3v8a3 3 0 0 0 6 0V4a3 3 0 0 0-3-3z"/><path d="M19 10v2a7 7 0 0 1-14 0v-2M12 19 12 23M8 23 16 23"/></symbol><symbol id="feather-mic-off" viewBox="0 0 24 24"><path d="M1 1 23 23M9 9v3a3 3 0 0 0 5.12 2.12M15 9.34V4a3 3 0 0 0-5.94-.6"/><path d="M17 16.95A7 7 0 0 1 5 12v-2m14 0v2a7 7 0 0 1-.11 1.23M12 19 12 23M8 23 16 23"/></symbol><symbol id="feather-message-square" viewBox="0 0 24 24"><path d="M21 15a2 2 0 0 1-2 2H7l-4 4V5a2 2 0 0 1 2-2h14a2 2 0 0 1 2 2z"/></symbol><symbol id="feather-message-circle" viewBox="0 0 24 24"><path d="M21 11.5a8.38 8.38 0 0 1-.9 3.8 8.5 8.5 0 0 1-7.6 4.7 8.38 8.38 0 0 1-3.8-.9L3 21l1.9-5.7a8.38 8.38 0 0 1-.9-3.8 8.5 8.5 0 0 1 4.7-7.6 8.38 8.38 0 0 1 3.8-.9h.5a8.48 8.48 0 0 1 8 8v.5z"/></symbol><symbol id="feather-menu" viewBox="0 0 24 24"><path d="M3 12 21 12M3 6 21 6M3 18 21 18"/></symbol><symbol id="feather-meh" viewBox="0 0 24 24"><circle cx="12" cy="12" r="10"/><path d="M8 15 16 15M9 9 9.01 9M15 9 15.01 9"/></symbol><symbol id="feather-maximize" viewBox="0 0 24 24"><path d="M8 3H5a2 2 0 0 0-2 2v3m18 0V5a2 2 0 0 0-2-2h-3m0 18h3a2 2 0 0 0 2-2v-3M3 16v3a2 2 0 0 0 2 2h3"/></symbol><symbol id="feather-maximize-2" viewBox="0 0 24 24"><path d="M15 3 21 3 21 9M9 21 3 21 3 15M21 3 14 10M3 21 10 14"/></symbol><symbol id="feather-map" viewBox="0 0 24 24"><path d="M1 6 1 22 8 18 16 22 23 18 23 2 16 6 8 2 1 6zM8 2 8 18M16 6 16 22"/></symbol><symbol id="feather-map-pin" viewBox="0 0 24 24"><path d="M21 10c0 7-9 13-9 13s-9-6-9-13a9 9 0 0 1 18 0z"/><circle cx="12" cy="10" r="3"/></symbol><symbol id="feather-mail" viewBox="0 0 24 24"><path d="M4 4h16c1.1 0 2 .9 2 2v12c0 1.1-.9 2-2 2H4c-1.1 0-2-.9-2-2V6c0-1.1.9-2 2-2z"/><path d="M22 6 12 13 2 6"/></symbol><symbol id="feather-log-out" viewBox="0 0 24 24"><path d="M9 21H5a2 2 0 0 1-2-2V5a2 2 0 0 1 2-2h4M16 17 21 12 16 7M21 12 9 12"/></symbol><symbol id="feather-log-in" viewBox="0 0 24 24"><path d="M15 3h4a2 2 0 0 1 2 2v14a2 2 0 0 1-2 2h-4M10 17 15 12 10 7M15 12 3 12"/></symbol><symbol id="feather-lock" viewBox="0 0 24 24"><rect x="3" y="11" width="18" height="11" rx="2" ry="2"/><path d="M7 11V7a5 5 0 0 1 10 0v4"/></symbol><symbol id="feather-loader" viewBox="0 0 24 24"><path d="M12 2 12 6M12 18 12 22M4.93 4.93 7.76 7.76M16.24 16.24 19.07 19.07M2 12 6 12M18 12 22 12M4.93 19.07 7.76 16.24M16.24 7.76 19.07 4.93"/></symbol><symbol id="feather-list" viewBox="0 0 24 24"><path d="M8 6 21 6M8 12 21 12M8 18 21 18M3 6 3.01 6M3 12 3.01 12M3 18 3.01 18"/></symbol><symbol id="feather-linkedin" viewBox="0 0 24 24"><path d="M16 8a6 6 0 0 1 6 6v7h-4v-7a2 2 0 0 0-2-2 2 2 0 0 0-2 2v7h-4v-7a6 6 0 0 1 6-6zM2 9H6V21H2z"/><circle cx="4" cy="4" r="2"/></symbol><symbol id="feather-link" viewBox="0 0 24 24"><path d="M10 13a5 5 0 0 0 7.54.54l3-3a5 5 0 0 0-7.07-7.07l-1.72 1.71"/><path d="M14 11a5 5 0 0 0-7.54-.54l-3 3a5 5 0 0 0 7.07 7.07l1.71-1.71"/></symbol><symbol id="feather-link-2" viewBox="0 0 24 24"><path d="M15 7h3a5 5 0 0 1 5 5 5 5 0 0 1-5 5h-3m-6 0H6a5 5 0 0 1-5-5 5 5 0 0 1 5-5h3M8 12 16 12"/></symbol><symbol id="feather-life-buoy" viewBox="0 0 24 24"><circle cx="12" cy="12" r="10"/><circle cx="12" cy="12" r="4"/><path d="M4.93 4.93 9.17 9.17M14.83 14.83 19.07 19.07M14.83 9.17 19.07 4.93M14.83 9.17 18.36 5.64M4.93 19.07 9.17 14.83"/></symbol><symbol id="feather-layout" viewBox="0 0 24 24"><rect x="3" y="3" width="18" height="18" rx="2" ry="2"/><path d="M3 9 21 9M9 21 9 9"/></symbol><symbol id="feather-layers" viewBox="0 0 24 24"><path d="M12 2 2 7 12 12 22 7 12 2zM2 17 12 22 22 17M2 12 12 17 22 12"/></symbol><symbol id="feather-key" viewBox="0 0 24 24"><path d="M21 2l-2 2m-7.61 7.61a5.5 5.5 0 1 1-7.778 7.778 5.5 5.5 0 0 1 7.777-7.777zm0 0L15.5 7.5m0 0l3 3L22 7l-3-3m-3.5 3.5L19 4"/></symbol><symbol id="feather-italic" viewBox="0 0 24 24"><path d="M19 4 10 4M14 20 5 20M15 4 9 20"/></symbol><symbol id="feather-instagram" viewBox="0 0 24 24"><rect x="2" y="2" width="20" height="20" rx="5" ry="5"/><path d="M16 11.37A4 4 0 1 1 12.63 8 4 4 0 0 1 16 11.37zM17.5 6.5 17.51 6.5"/></symbol><symbol id="feather-info" viewBox="0 0 24 24"><circle cx="12" cy="12" r="10"/><path d="M12 16 12 12M12 8 12.01 8"/></symbol><symbol id="feather-inbox" viewBox="0 0 24 24"><path d="M22 12 16 12 14 15 10 15 8 12 2 12"/><path d="M5.45 5.11L2 12v6a2 2 0 0 0 2 2h16a2 2 0 0 0 2-2v-6l-3.45-6.89A2 2 0 0 0 16.76 4H7.24a2 2 0 0 0-1.79 1.11z"/></symbol><symbol id="feather-image" viewBox="0 0 24 24"><rect x="3" y="3" width="18" height="18" rx="2" ry="2"/><circle cx="8.5" cy="8.5" r="1.5"/><path d="M21 15 16 10 5 21"/></symbol><symbol id="feather-home" viewBox="0 0 24 24"><path d="M3 9l9-7 9 7v11a2 2 0 0 1-2 2H5a2 2 0 0 1-2-2z"/><path d="M9 22 9 12 15 12 15 22"/></symbol><symbol id="feather-hexagon" viewBox="0 0 24 24"><path d="M21 16V8a2 2 0 0 0-1-1.73l-7-4a2 2 0 0 0-2 0l-7 4A2 2 0 0 0 3 8v8a2 2 0 0 0 1 1.73l7 4a2 2 0 0 0 2 0l7-4A2 2 0 0 0 21 16z"/></symbol><symbol id="feather-help-circle" viewBox="0 0 24 24"><circle cx="12" cy="12" r="10"/><path d="M9.09 9a3 3 0 0 1 5.83 1c0 2-3 3-3 3M12 17 12.01 17"/></symbol><symbol id="feather-heart" viewBox="0 0 24 24"><path d="M20.84 4.61a5.5 5.5 0 0 0-7.78 0L12 5.67l-1.06-1.06a5.5 5.5 0 0 0-7.78 7.78l1.06 1.06L12 21.23l7.78-7.78 1.06-1.06a5.5 5.5 0 0 0 0-7.78z"/></symbol><symbol id="feather-headphones" viewBox="0 0 24 24"><path d="M3 18v-6a9 9 0 0 1 18 0v6"/><path d="M21 19a2 2 0 0 1-2 2h-1a2 2 0 0 1-2-2v-3a2 2 0 0 1 2-2h3zM3 19a2 2 0 0 0 2 2h1a2 2 0 0 0 2-2v-3a2 2 0 0 0-2-2H3z"/></symbol><symbol id="feather-hash" viewBox="0 0 24 24"><path d="M4 9 20 9M4 15 20 15M10 3 8 21M16 3 14 21"/></symbol><symbol id="feather-hard-drive" viewBox="0 0 24 24"><path d="M22 12 2 12M5.45 5.11 2 12v6a2 2 0 0 0 2 2h16a2 2 0 0 0 2-2v-6l-3.45-6.89A2 2 0 0 0 16.76 4H7.24a2 2 0 0 0-1.79 1.11zM6 16 6.01 16M10 16 10.01 16"/></symbol><symbol id="feather-grid" viewBox="0 0 24 24"><path d="M3 3H10V10H3zM14 3H21V10H14zM14 14H21V21H14zM3 14H10V21H3z"/></symbol><symbol id="feather-globe" viewBox="0 0 24 24"><circle cx="12" cy="12" r="10"/><path d="M2 12 22 12M12 2a15.3 15.3 0 0 1 4 10 15.3 15.3 0 0 1-4 10 15.3 15.3 0 0 1-4-10 15.3 15.3 0 0 1 4-10z"/></symbol><symbol id="feather-gitlab" viewBox="0 0 24 24"><path d="M22.65 14.39L12 22.13 1.35 14.39a.84.84 0 0 1-.3-.94l1.22-3.78 2.44-7.51A.42.42 0 0 1 4.82 2a.43.43 0 0 1 .58 0 .42.42 0 0 1 .11.18l2.44 7.49h8.1l2.44-7.51A.42.42 0 0 1 18.6 2a.43.43 0 0 1 .58 0 .42.42 0 0 1 .11.18l2.44 7.51L23 13.45a.84.84 0 0 1-.35.94z"/></symbol><symbol id="feather-github" viewBox="0 0 24 24"><path d="M9 19c-5 1.5-5-2.5-7-3m14 6v-3.87a3.37 3.37 0 0 0-.94-2.61c3.14-.35 6.44-1.54 6.44-7A5.44 5.44 0 0 0 20 4.77 5.07 5.07 0 0 0 19.91 1S18.73.65 16 2.48a13.38 13.38 0 0 0-7 0C6.27.65 5.09 1 5.09 1A5.07 5.07 0 0 0 5 4.77a5.44 5.44 0 0 0-1.5 3.78c0 5.42 3.3 6.61 6.44 7A3.37 3.37 0 0 0 9 18.13V22"/></symbol><symbol id="feather-git-pull-request" viewBox="0 0 24 24"><circle cx="18" cy="18" r="3"/><circle cx="6" cy="6" r="3"/><path d="M13 6h3a2 2 0 0 1 2 2v7M6 9 6 21"/></symbol><symbol id="feather-git-merge" viewBox="0 0 24 24"><circle cx="18" cy="18" r="3"/><circle cx="6" cy="6" r="3"/><path d="M6 21V9a9 9 0 0 0 9 9"/></symbol><symbol id="feather-git-commit" viewBox="0 0 24 24"><circle cx="12" cy="12" r="4"/><path d="M1.05 12 7 12M17.01 12 22.96 12"/></symbol><symbol id="feather-git-branch" viewBox="0 0 24 24"><path d="M6 3 6 15"/><circle cx="18" cy="6" r="3"/><circle cx="6" cy="18" r="3"/><path d="M18 9a9 9 0 0 1-9 9"/></symbol><symbol id="feather-gift" viewBox="0 0 24 24"><path d="M20 12 20 22 4 22 4 12M2 7H22V12H2zM12 22 12 7M12 7H7.5a2.5 2.5 0 0 1 0-5C11 2 12 7 12 7zM12 7h4.5a2.5 2.5 0 0 0 0-5C13 2 12 7 12 7z"/></symbol><symbol id="feather-frown" viewBox="0 0 24 24"><circle cx="12" cy="12" r="10"/><path d="M16 16s-1.5-2-4-2-4 2-4 2M9 9 9.01 9M15 9 15.01 9"/></symbol><symbol id="feather-framer" viewBox="0 0 24 24"><path d="M5 16V9h14V2H5l14 14h-7m-7 0l7 7v-7m-7 0h7"/></symbol><symbol id="feather-folder" viewBox="0 0 24 24"><path d="M22 19a2 2 0 0 1-2 2H4a2 2 0 0 1-2-2V5a2 2 0 0 1 2-2h5l2 3h9a2 2 0 0 1 2 2z"/></symbol><symbol id="feather-folder-plus" viewBox="0 0 24 24"><path d="M22 19a2 2 0 0 1-2 2H4a2 2 0 0 1-2-2V5a2 2 0 0 1 2-2h5l2 3h9a2 2 0 0 1 2 2zM12 11 12 17M9 14 15 14"/></symbol><symbol id="feather-folder-minus" viewBox="0 0 24 24"><path d="M22 19a2 2 0 0 1-2 2H4a2 2 0 0 1-2-2V5a2 2 0 0 1 2-2h5l2 3h9a2 2 0 0 1 2 2zM9 14 15 14"/></symbol><symbol id="feather-flag" viewBox="0 0 24 24"><path d="M4 15s1-1 4-1 5 2 8 2 4-1 4-1V3s-1 1-4 1-5-2-8-2-4 1-4 1zM4 22 4 15"/></symbol><symbol id="feather-filter" viewBox="0 0 24 24"><path d="M22 3 2 3 10 12.46 10 19 14 21 14 12.46 22 3z"/></symbol><symbol id="feather-film" viewBox="0 0 24 24"><rect x="2" y="2" width="20" height="20" rx="2.18" ry="2.18"/><path d="M7 2 7 22M17 2 17 22M2 12 22 12M2 7 7 7M2 17 7 17M17 17 22 17M17 7 22 7"/></symbol><symbol id="feather-file" viewBox="0 0 24 24"><path d="M13 2H6a2 2 0 0 0-2 2v16a2 2 0 0 0 2 2h12a2 2 0 0 0 2-2V9z"/><path d="M13 2 13 9 20 9"/></symbol><symbol id="feather-file-text" viewBox="0 0 24 24"><path d="M14 2H6a2 2 0 0 0-2 2v16a2 2 0 0 0 2 2h12a2 2 0 0 0 2-2V8z"/><path d="M14 2 14 8 20 8M16 13 8 13M16 17 8 17M10 9 9 9 8 9"/></symbol><symbol id="feather-file-plus" viewBox="0 0 24 24"><path d="M14 2H6a2 2 0 0 0-2 2v16a2 2 0 0 0 2 2h12a2 2 0 0 0 2-2V8z"/><path d="M14 2 14 8 20 8M12 18 12 12M9 15 15 15"/></symbol><symbol id="feather-file-minus" viewBox="0 0 24 24"><path d="M14 2H6a2 2 0 0 0-2 2v16a2 2 0 0 0 2 2h12a2 2 0 0 0 2-2V8z"/><path d="M14 2 14 8 20 8M9 15 15 15"/></symbol><symbol id="feather-figma" viewBox="0 0 24 24"><path d="M5 5.5A3.5 3.5 0 0 1 8.5 2H12v7H8.5A3.5 3.5 0 0 1 5 5.5zM12 2h3.5a3.5 3.5 0 1 1 0 7H12V2z"/><path d="M12 12.5a3.5 3.5 0 1 1 7 0 3.5 3.5 0 1 1-7 0zM5 19.5A3.5 3.5 0 0 1 8.5 16H12v3.5a3.5 3.5 0 1 1-7 0zM5 12.5A3.5 3.5 0 0 1 8.5 9H12v7H8.5A3.5 3.5 0 0 1 5 12.5z"/></symbol><symbol id="feather-feather" viewBox="0 0 24 24"><path d="M20.24 12.24a6 6 0 0 0-8.49-8.49L5 10.5V19h8.5zM16 8 2 22M17.5 15 9 15"/></symbol><symbol id="feather-fast-forward" viewBox="0 0 24 24"><path d="M13 19 22 12 13 5 13 19zM2 19 11 12 2 5 2 19z"/></symbol><symbol id="feather-facebook" viewBox="0 0 24 24"><path d="M18 2h-3a5 5 0 0 0-5 5v3H7v4h3v8h4v-8h3l1-4h-4V7a1 1 0 0 1 1-1h3z"/></symbol><symbol id="feather-eye" viewBox="0 0 24 24"><path d="M1 12s4-8 11-8 11 8 11 8-4 8-11 8-11-8-11-8z"/><circle cx="12" cy="12" r="3"/></symbol><symbol id="feather-eye-off" viewBox="0 0 24 24"><path d="M17.94 17.94A10.07 10.07 0 0 1 12 20c-7 0-11-8-11-8a18.45 18.45 0 0 1 5.06-5.94M9.9 4.24A9.12 9.12 0 0 1 12 4c7 0 11 8 11 8a18.5 18.5 0 0 1-2.16 3.19m-6.72-1.07a3 3 0 1 1-4.24-4.24M1 1 23 23"/></symbol><symbol id="feather-external-link" viewBox="0 0 24 24"><path d="M18 13v6a2 2 0 0 1-2 2H5a2 2 0 0 1-2-2V8a2 2 0 0 1 2-2h6M15 3 21 3 21 9M10 14 21 3"/></symbol><symbol id="feather-edit" viewBox="0 0 24 24"><path d="M11 4H4a2 2 0 0 0-2 2v14a2 2 0 0 0 2 2h14a2 2 0 0 0 2-2v-7"/><path d="M18.5 2.5a2.121 2.121 0 0 1 3 3L12 15l-4 1 1-4 9.5-9.5z"/></symbol><symbol id="feather-edit-3" viewBox="0 0 24 24"><path d="M12 20h9M16.5 3.5a2.121 2.121 0 0 1 3 3L7 19l-4 1 1-4L16.5 3.5z"/></symbol><symbol id="feather-edit-2" viewBox="0 0 24 24"><path d="M17 3a2.828 2.828 0 1 1 4 4L7.5 20.5 2 22l1.5-5.5L17 3z"/></symbol><symbol id="feather-droplet" viewBox="0 0 24 24"><path d="M12 2.69l5.66 5.66a8 8 0 1 1-11.31 0z"/></symbol><symbol id="feather-dribbble" viewBox="0 0 24 24"><circle cx="12" cy="12" r="10"/><path d="M8.56 2.75c4.37 6.03 6.02 9.42 8.03 17.72m2.54-15.38c-3.72 4.35-8.94 5.66-16.88 5.85m19.5 1.9c-3.5-.93-6.63-.82-8.94 0-2.58.92-5.01 2.86-7.44 6.32"/></symbol><symbol id="feather-download" viewBox="0 0 24 24"><path d="M21 15v4a2 2 0 0 1-2 2H5a2 2 0 0 1-2-2v-4M7 10 12 15 17 10M12 15 12 3"/></symbol><symbol id="feather-download-cloud" viewBox="0 0 24 24"><path d="M8 17 12 21 16 17M12 12 12 21"/><path d="M20.88 18.09A5 5 0 0 0 18 9h-1.26A8 8 0 1 0 3 16.29"/></symbol><symbol id="feather-dollar-sign" viewBox="0 0 24 24"><path d="M12 1 12 23M17 5H9.5a3.5 3.5 0 0 0 0 7h5a3.5 3.5 0 0 1 0 7H6"/></symbol><symbol id="feather-divide" viewBox="0 0 24 24"><circle cx="12" cy="6" r="2"/><path d="M5 12 19 12"/><circle cx="12" cy="18" r="2"/></symbol><symbol id="feather-divide-square" viewBox="0 0 24 24"><rect x="3" y="3" width="18" height="18" rx="2" ry="2"/><path d="M8 12 16 12M12 16 12 16M12 8 12 8"/></symbol><symbol id="feather-divide-circle" viewBox="0 0 24 24"><path d="M8 12 16 12M12 16 12 16M12 8 12 8"/><circle cx="12" cy="12" r="10"/></symbol><symbol id="feather-disc" viewBox="0 0 24 24"><circle cx="12" cy="12" r="10"/><circle cx="12" cy="12" r="3"/></symbol><symbol id="feather-delete" viewBox="0 0 24 24"><path d="M21 4H8l-7 8 7 8h13a2 2 0 0 0 2-2V6a2 2 0 0 0-2-2zM18 9 12 15M12 9 18 15"/></symbol><symbol id="feather-database" viewBox="0 0 24 24"><ellipse cx="12" cy="5" rx="9" ry="3"/><path d="M21 12c0 1.66-4 3-9 3s-9-1.34-9-3"/><path d="M3 5v14c0 1.66 4 3 9 3s9-1.34 9-3V5"/></symbol><symbol id="feather-crosshair" viewBox="0 0 24 24"><circle cx="12" cy="12" r="10"/><path d="M22 12 18 12M6 12 2 12M12 6 12 2M12 22 12 18"/></symbol><symbol id="feather-crop" viewBox="0 0 24 24"><path d="M6.13 1L6 16a2 2 0 0 0 2 2h15"/><path d="M1 6.13L16 6a2 2 0 0 1 2 2v15"/></symbol><symbol id="feather-credit-card" viewBox="0 0 24 24"><rect x="1" y="4" width="22" height="16" rx="2" ry="2"/><path d="M1 10 23 10"/></symbol><symbol id="feather-cpu" viewBox="0 0 24 24"><rect x="4" y="4" width="16" height="16" rx="2" ry="2"/><path d="M9 9H15V15H9zM9 1 9 4M15 1 15 4M9 20 9 23M15 20 15 23M20 9 23 9M20 14 23 14M1 9 4 9M1 14 4 14"/></symbol><symbol id="feather-corner-up-right" viewBox="0 0 24 24"><path d="M15 14 20 9 15 4"/><path d="M4 20v-7a4 4 0 0 1 4-4h12"/></symbol><symbol id="feather-corner-up-left" viewBox="0 0 24 24"><path d="M9 14 4 9 9 4"/><path d="M20 20v-7a4 4 0 0 0-4-4H4"/></symbol><symbol id="feather-corner-right-up" viewBox="0 0 24 24"><path d="M10 9 15 4 20 9"/><path d="M4 20h7a4 4 0 0 0 4-4V4"/></symbol><symbol id="feather-corner-right-down" viewBox="0 0 24 24"><path d="M10 15 15 20 20 15"/><path d="M4 4h7a4 4 0 0 1 4 4v12"/></symbol><symbol id="feather-corner-left-up" viewBox="0 0 24 24"><path d="M14 9 9 4 4 9"/><path d="M20 20h-7a4 4 0 0 1-4-4V4"/></symbol><symbol id="feather-corner-left-down" viewBox="0 0 24 24"><path d="M14 15 9 20 4 15"/><path d="M20 4h-7a4 4 0 0 0-4 4v12"/></symbol><symbol id="feather-corner-down-right" viewBox="0 0 24 24"><path d="M15 10 20 15 15 20"/><path d="M4 4v7a4 4 0 0 0 4 4h12"/></symbol><symbol id="feather-corner-down-left" viewBox="0 0 24 24"><path d="M9 10 4 15 9 20"/><path d="M20 4v7a4 4 0 0 1-4 4H4"/></symbol><symbol id="feather-copy" viewBox="0 0 24 24"><rect x="9" y="9" width="13" height="13" rx="2" ry="2"/><path d="M5 15H4a2 2 0 0 1-2-2V4a2 2 0 0 1 2-2h9a2 2 0 0 1 2 2v1"/></symbol><symbol id="feather-compass" viewBox="0 0 24 24"><circle cx="12" cy="12" r="10"/><path d="M16.24 7.76 14.12 14.12 7.76 16.24 9.88 9.88 16.24 7.76z"/></symbol><symbol id="feather-command" viewBox="0 0 24 24"><path d="M18 3a3 3 0 0 0-3 3v12a3 3 0 0 0 3 3 3 3 0 0 0 3-3 3 3 0 0 0-3-3H6a3 3 0 0 0-3 3 3 3 0 0 0 3 3 3 3 0 0 0 3-3V6a3 3 0 0 0-3-3 3 3 0 0 0-3 3 3 3 0 0 0 3 3h12a3 3 0 0 0 3-3 3 3 0 0 0-3-3z"/></symbol><symbol id="feather-columns" viewBox="0 0 24 24"><path d="M12 3h7a2 2 0 0 1 2 2v14a2 2 0 0 1-2 2h-7m0-18H5a2 2 0 0 0-2 2v14a2 2 0 0 0 2 2h7m0-18v18"/></symbol><symbol id="feather-coffee" viewBox="0 0 24 24"><path d="M18 8h1a4 4 0 0 1 0 8h-1M2 8h16v9a4 4 0 0 1-4 4H6a4 4 0 0 1-4-4V8zM6 1 6 4M10 1 10 4M14 1 14 4"/></symbol><symbol id="feather-codesandbox" viewBox="0 0 24 24"><path d="M21 16V8a2 2 0 0 0-1-1.73l-7-4a2 2 0 0 0-2 0l-7 4A2 2 0 0 0 3 8v8a2 2 0 0 0 1 1.73l7 4a2 2 0 0 0 2 0l7-4A2 2 0 0 0 21 16z"/><path d="M7.5 4.21 12 6.81 16.5 4.21M7.5 19.79 7.5 14.6 3 12M21 12 16.5 14.6 16.5 19.79M3.27 6.96 12 12.01 20.73 6.96M12 22.08 12 12"/></symbol><symbol id="feather-codepen" viewBox="0 0 24 24"><path d="M12 2 22 8.5 22 15.5 12 22 2 15.5 2 8.5 12 2zM12 22 12 15.5"/><path d="M22 8.5 12 15.5 2 8.5"/><path d="M2 15.5 12 8.5 22 15.5M12 2 12 8.5"/></symbol><symbol id="feather-code" viewBox="0 0 24 24"><path d="M16 18 22 12 16 6M8 6 2 12 8 18"/></symbol><symbol id="feather-cloud" viewBox="0 0 24 24"><path d="M18 10h-1.26A8 8 0 1 0 9 20h9a5 5 0 0 0 0-10z"/></symbol><symbol id="feather-cloud-snow" viewBox="0 0 24 24"><path d="M20 17.58A5 5 0 0 0 18 8h-1.26A8 8 0 1 0 4 16.25M8 16 8.01 16M8 20 8.01 20M12 18 12.01 18M12 22 12.01 22M16 16 16.01 16M16 20 16.01 20"/></symbol><symbol id="feather-cloud-rain" viewBox="0 0 24 24"><path d="M16 13 16 21M8 13 8 21M12 15 12 23M20 16.58A5 5 0 0 0 18 7h-1.26A8 8 0 1 0 4 15.25"/></symbol><symbol id="feather-cloud-off" viewBox="0 0 24 24"><path d="M22.61 16.95A5 5 0 0 0 18 10h-1.26a8 8 0 0 0-7.05-6M5 5a8 8 0 0 0 4 15h9a5 5 0 0 0 1.7-.3M1 1 23 23"/></symbol><symbol id="feather-cloud-lightning" viewBox="0 0 24 24"><path d="M19 16.9A5 5 0 0 0 18 7h-1.26a8 8 0 1 0-11.62 9"/><path d="M13 11 9 17 15 17 11 23"/></symbol><symbol id="feather-cloud-drizzle" viewBox="0 0 24 24"><path d="M8 19 8 21M8 13 8 15M16 19 16 21M16 13 16 15M12 21 12 23M12 15 12 17M20 16.58A5 5 0 0 0 18 7h-1.26A8 8 0 1 0 4 15.25"/></symbol><symbol id="feather-clock" viewBox="0 0 24 24"><circle cx="12" cy="12" r="10"/><path d="M12 6 12 12 16 14"/></symbol><symbol id="feather-clipboard" viewBox="0 0 24 24"><path d="M16 4h2a2 2 0 0 1 2 2v14a2 2 0 0 1-2 2H6a2 2 0 0 1-2-2V6a2 2 0 0 1 2-2h2"/><rect x="8" y="2" width="8" height="4" rx="1" ry="1"/></symbol><symbol id="feather-circle" viewBox="0 0 24 24"><circle cx="12" cy="12" r="10"/></symbol><symbol id="feather-chrome" viewBox="0 0 24 24"><circle cx="12" cy="12" r="10"/><circle cx="12" cy="12" r="4"/><path d="M21.17 8 12 8M3.95 6.06 8.54 14M10.88 21.94 15.46 14"/></symbol><symbol id="feather-chevrons-up" viewBox="0 0 24 24"><path d="M17 11 12 6 7 11M17 18 12 13 7 18"/></symbol><symbol id="feather-chevrons-right" viewBox="0 0 24 24"><path d="M13 17 18 12 13 7M6 17 11 12 6 7"/></symbol><symbol id="feather-chevrons-left" viewBox="0 0 24 24"><path d="M11 17 6 12 11 7M18 17 13 12 18 7"/></symbol><symbol id="feather-chevrons-down" viewBox="0 0 24 24"><path d="M7 13 12 18 17 13M7 6 12 11 17 6"/></symbol><symbol id="feather-chevron-up" viewBox="0 0 24 24"><path d="M18 15 12 9 6 15"/></symbol><symbol id="feather-chevron-right" viewBox="0 0 24 24"><path d="M9 18 15 12 9 6"/></symbol><symbol id="feather-chevron-left" viewBox="0 0 24 24"><path d="M15 18 9 12 15 6"/></symbol><symbol id="feather-chevron-down" viewBox="0 0 24 24"><path d="M6 9 12 15 18 9"/></symbol><symbol id="feather-check" viewBox="0 0 24 24"><path d="M20 6 9 17 4 12"/></symbol><symbol id="feather-check-square" viewBox="0 0 24 24"><path d="M9 11 12 14 22 4"/><path d="M21 12v7a2 2 0 0 1-2 2H5a2 2 0 0 1-2-2V5a2 2 0 0 1 2-2h11"/></symbol><symbol id="feather-check-circle" viewBox="0 0 24 24"><path d="M22 11.08V12a10 10 0 1 1-5.93-9.14"/><path d="M22 4 12 14.01 9 11.01"/></symbol><symbol id="feather-cast" viewBox="0 0 24 24"><path d="M2 16.1A5 5 0 0 1 5.9 20M2 12.05A9 9 0 0 1 9.95 20M2 8V6a2 2 0 0 1 2-2h16a2 2 0 0 1 2 2v12a2 2 0 0 1-2 2h-6M2 20 2.01 20"/></symbol><symbol id="feather-camera" viewBox="0 0 24 24"><path d="M23 19a2 2 0 0 1-2 2H3a2 2 0 0 1-2-2V8a2 2 0 0 1 2-2h4l2-3h6l2 3h4a2 2 0 0 1 2 2z"/><circle cx="12" cy="13" r="4"/></symbol><symbol id="feather-camera-off" viewBox="0 0 24 24"><path d="M1 1 23 23M21 21H3a2 2 0 0 1-2-2V8a2 2 0 0 1 2-2h3m3-3h6l2 3h4a2 2 0 0 1 2 2v9.34m-7.72-2.06a4 4 0 1 1-5.56-5.56"/></symbol><symbol id="feather-calendar" viewBox="0 0 24 24"><rect x="3" y="4" width="18" height="18" rx="2" ry="2"/><path d="M16 2 16 6M8 2 8 6M3 10 21 10"/></symbol><symbol id="feather-briefcase" viewBox="0 0 24 24"><rect x="2" y="7" width="20" height="14" rx="2" ry="2"/><path d="M16 21V5a2 2 0 0 0-2-2h-4a2 2 0 0 0-2 2v16"/></symbol><symbol id="feather-box" viewBox="0 0 24 24"><path d="M21 16V8a2 2 0 0 0-1-1.73l-7-4a2 2 0 0 0-2 0l-7 4A2 2 0 0 0 3 8v8a2 2 0 0 0 1 1.73l7 4a2 2 0 0 0 2 0l7-4A2 2 0 0 0 21 16z"/><path d="M3.27 6.96 12 12.01 20.73 6.96M12 22.08 12 12"/></symbol><symbol id="feather-bookmark" viewBox="0 0 24 24"><path d="M19 21l-7-5-7 5V5a2 2 0 0 1 2-2h10a2 2 0 0 1 2 2z"/></symbol><symbol id="feather-book" viewBox="0 0 24 24"><path d="M4 19.5A2.5 2.5 0 0 1 6.5 17H20"/><path d="M6.5 2H20v20H6.5A2.5 2.5 0 0 1 4 19.5v-15A2.5 2.5 0 0 1 6.5 2z"/></symbol><symbol id="feather-book-open" viewBox="0 0 24 24"><path d="M2 3h6a4 4 0 0 1 4 4v14a3 3 0 0 0-3-3H2zM22 3h-6a4 4 0 0 0-4 4v14a3 3 0 0 1 3-3h7z"/></symbol><symbol id="feather-bold" viewBox="0 0 24 24"><path d="M6 4h8a4 4 0 0 1 4 4 4 4 0 0 1-4 4H6zM6 12h9a4 4 0 0 1 4 4 4 4 0 0 1-4 4H6z"/></symbol><symbol id="feather-bluetooth" viewBox="0 0 24 24"><path d="M6.5 6.5 17.5 17.5 12 23 12 1 17.5 6.5 6.5 17.5"/></symbol><symbol id="feather-bell" viewBox="0 0 24 24"><path d="M18 8A6 6 0 0 0 6 8c0 7-3 9-3 9h18s-3-2-3-9M13.73 21a2 2 0 0 1-3.46 0"/></symbol><symbol id="feather-bell-off" viewBox="0 0 24 24"><path d="M13.73 21a2 2 0 0 1-3.46 0M18.63 13A17.89 17.89 0 0 1 18 8M6.26 6.26A5.86 5.86 0 0 0 6 8c0 7-3 9-3 9h14M18 8a6 6 0 0 0-9.33-5M1 1 23 23"/></symbol><symbol id="feather-battery" viewBox="0 0 24 24"><rect x="1" y="6" width="18" height="12" rx="2" ry="2"/><path d="M23 13 23 11"/></symbol><symbol id="feather-battery-charging" viewBox="0 0 24 24"><path d="M5 18H3a2 2 0 0 1-2-2V8a2 2 0 0 1 2-2h3.19M15 6h2a2 2 0 0 1 2 2v8a2 2 0 0 1-2 2h-3.19M23 13 23 11M11 6 7 12 13 12 9 18"/></symbol><symbol id="feather-bar-chart" viewBox="0 0 24 24"><path d="M12 20 12 10M18 20 18 4M6 20 6 16"/></symbol><symbol id="feather-bar-chart-2" viewBox="0 0 24 24"><path d="M18 20 18 10M12 20 12 4M6 20 6 14"/></symbol><symbol id="feather-award" viewBox="0 0 24 24"><circle cx="12" cy="8" r="7"/><path d="M8.21 13.89 7 23 12 20 17 23 15.79 13.88"/></symbol><symbol id="feather-at-sign" viewBox="0 0 24 24"><circle cx="12" cy="12" r="4"/><path d="M16 8v5a3 3 0 0 0 6 0v-1a10 10 0 1 0-3.92 7.94"/></symbol><symbol id="feather-arrow-up" viewBox="0 0 24 24"><path d="M12 19 12 5M5 12 12 5 19 12"/></symbol><symbol id="feather-arrow-up-right" viewBox="0 0 24 24"><path d="M7 17 17 7M7 7 17 7 17 17"/></symbol><symbol id="feather-arrow-up-left" viewBox="0 0 24 24"><path d="M17 17 7 7M7 17 7 7 17 7"/></symbol><symbol id="feather-arrow-up-circle" viewBox="0 0 24 24"><circle cx="12" cy="12" r="10"/><path d="M16 12 12 8 8 12M12 16 12 8"/></symbol><symbol id="feather-arrow-right" viewBox="0 0 24 24"><path d="M5 12 19 12M12 5 19 12 12 19"/></symbol><symbol id="feather-arrow-right-circle" viewBox="0 0 24 24"><circle cx="12" cy="12" r="10"/><path d="M12 16 16 12 12 8M8 12 16 12"/></symbol><symbol id="feather-arrow-left" viewBox="0 0 24 24"><path d="M19 12 5 12M12 19 5 12 12 5"/></symbol><symbol id="feather-arrow-left-circle" viewBox="0 0 24 24"><circle cx="12" cy="12" r="10"/><path d="M12 8 8 12 12 16M16 12 8 12"/></symbol><symbol id="feather-arrow-down" viewBox="0 0 24 24"><path d="M12 5 12 19M19 12 12 19 5 12"/></symbol><symbol id="feather-arrow-down-right" viewBox="0 0 24 24"><path d="M7 7 17 17M17 7 17 17 7 17"/></symbol><symbol id="feather-arrow-down-left" viewBox="0 0 24 24"><path d="M17 7 7 17M17 17 7 17 7 7"/></symbol><symbol id="feather-arrow-down-circle" viewBox="0 0 24 24"><circle cx="12" cy="12" r="10"/><path d="M8 12 12 16 16 12M12 8 12 16"/></symbol><symbol id="feather-archive" viewBox="0 0 24 24"><path d="M21 8 21 21 3 21 3 8M1 3H23V8H1zM10 12 14 12"/></symbol><symbol id="feather-aperture" viewBox="0 0 24 24"><circle cx="12" cy="12" r="10"/><path d="M14.31 8 20.05 17.94M9.69 8 21.17 8M7.38 12 13.12 2.06M9.69 16 3.95 6.06M14.31 16 2.83 16M16.62 12 10.88 21.94"/></symbol><symbol id="feather-anchor" viewBox="0 0 24 24"><circle cx="12" cy="5" r="3"/><path d="M12 22 12 8M5 12H2a10 10 0 0 0 20 0h-3"/></symbol><symbol id="feather-align-right" viewBox="0 0 24 24"><path d="M21 10 7 10M21 6 3 6M21 14 3 14M21 18 7 18"/></symbol><symbol id="feather-align-left" viewBox="0 0 24 24"><path d="M17 10 3 10M21 6 3 6M21 14 3 14M17 18 3 18"/></symbol><symbol id="feather-align-justify" viewBox="0 0 24 24"><path d="M21 10 3 10M21 6 3 6M21 14 3 14M21 18 3 18"/></symbol><symbol id="feather-align-center" viewBox="0 0 24 24"><path d="M18 10 6 10M21 6 3 6M21 14 3 14M18 18 6 18"/></symbol><symbol id="feather-alert-triangle" viewBox="0 0 24 24"><path d="M10.29 3.86 1.82 18a2 2 0 0 0 1.71 3h16.94a2 2 0 0 0 1.71-3L13.71 3.86a2 2 0 0 0-3.42 0zM12 9 12 13M12 17 12.01 17"/></symbol><symbol id="feather-alert-octagon" viewBox="0 0 24 24"><path d="M7.86 2 16.14 2 22 7.86 22 16.14 16.14 22 7.86 22 2 16.14 2 7.86 7.86 2zM12 8 12 12M12 16 12.01 16"/></symbol><symbol id="feather-alert-circle" viewBox="0 0 24 24"><circle cx="12" cy="12" r="10"/><path d="M12 8 12 12M12 16 12.01 16"/></symbol><symbol id="feather-airplay" viewBox="0 0 24 24"><path d="M5 17H4a2 2 0 0 1-2-2V5a2 2 0 0 1 2-2h16a2 2 0 0 1 2 2v10a2 2 0 0 1-2 2h-1"/><path d="M12 15 17 21 7 21 12 15z"/></symbol><symbol id="feather-activity" viewBox="0 0 24 24"><path d="M22 12 18 12 15 21 9 3 6 12 2 12"/></symbol></svg>