<svg viewBox="0 0 40 40" fill="none" xmlns="http://www.w3.org/2000/svg"><g fill="transparent"><circle cx="30.448" cy="31.448" r="3.552" fill="#fff" stroke="#000" stroke-width="2"/><mask id="a" fill="#fff"><path d="M23.052 3a14.224 14.224 0 0114.224 14.224H23.052V3z"/></mask><path d="M23.052 3a14.224 14.224 0 0114.224 14.224H23.052V3z" fill="#9425A8" stroke="#000" stroke-width="2" mask="url(#a)"/><circle cx="15.655" cy="31.448" r="3.552" fill="#fff" stroke="#000" stroke-width="2"/><path d="M9.828 17.655h26.448v3.38a6 6 0 01-6 6H15.828a6 6 0 01-6-6v-3.38z" fill="#fff" stroke="#000" stroke-width="2"/><path d="M15.655 17.793L11.691 9.3a5 5 0 00-4.53-2.885H2" stroke="#000" stroke-width="2"/><path d="M25.047 14h9.796l.605 2.706H25.047V14z" fill="#9425A8"/></g></svg>