<svg viewBox="0 0 40 40" xmlns="http://www.w3.org/2000/svg"><g fill="transparent"><path fill-rule="evenodd" clip-rule="evenodd" d="M29.618 15.716L6.931 21.03l.574 2.449 22.687-5.316-.574-2.448zM7.505 23.48l22.687-5.316.573 2.448L8.08 25.928l-.574-2.448zm1.147 4.896l.574 2.448.573 2.449 22.687-5.316-.573-2.448-.574-2.448-22.687 5.315zM9.8 33.273l.574 2.448 22.687-5.315-.574-2.449L9.8 33.273zm20.966-12.66l.574 2.448-22.687 5.315-.574-2.448 22.687-5.316z" fill="#fff"/><path stroke="#000" stroke-width="2" d="M6.202 20.579l23.869-5.593 3.8 16.22L10.002 36.8z"/><path d="M12.365 19.186V4.682C12.365 3.201 13.566 2 15.047 2v0c1.057 0 2.016.62 2.448 1.585l5.673 12.655" stroke="#000" stroke-width="2"/><circle cx="19.731" cy="25.569" r="4.892" stroke="#9425A8" stroke-width="2"/><path stroke="#9425A8" stroke-width="2.5" d="M22.579 22.525l-5.893 5.892"/></g></svg>