<svg viewBox="0 0 50 50" xmlns="http://www.w3.org/2000/svg" fill-rule="evenodd" clip-rule="evenodd" stroke-linejoin="round" stroke-miterlimit="1.414"><circle cx="25" cy="25" r="25" fill="#118df0"/><circle cx="25" cy="25" r="23.7" fill="#fff"/><circle cx="25" cy="25" r="21.6" fill="#118df0"/><g><path d="M37.5,34.8l-25,0c-0.3,0 -0.6,-0.3 -0.6,-0.6l0,-18.6c0,-0.3 0.3,-0.6 0.6,-0.6l25,0c0.3,0 0.6,0.3 0.6,0.6l0,18.6c0,0.3 -0.3,0.6 -0.6,0.6Z" fill="#fff" fill-rule="nonzero"/><g fill="#118df0"><path d="M25.7 26.1H34.8V27.900000000000002H25.7zM25.7 21.8H34.8V23.6H25.7z"/></g><g fill="#118df0"><path d="M14.4,30c0,-0.1 0,-0.3 0,-0.4c0,-2.4 1.9,-4.3 4.3,-4.3c2.4,0 4.3,1.9 4.3,4.3c0,0.1 0,0.3 0,0.4" fill-rule="nonzero"/><circle cx="18.9" cy="22.7" r="2.9"/></g></g></svg>