<svg viewBox="0 0 50 50" xmlns="http://www.w3.org/2000/svg" fill-rule="evenodd" clip-rule="evenodd" stroke-miterlimit="10"><circle cx="25" cy="25" r="25" fill="#118df0"/><circle cx="25" cy="25" r="22.9" fill="none" stroke="#fff" stroke-width="2"/><g><g fill="#fff" fill-rule="nonzero"><path d="M25.6 8.8l4.3 7.5-8.7 0 4.4-7.5zM25.3 41.8l-4.4-7.4 8.7 0-4.3 7.4zM9.1 25.4l7.5-4.3 0 8.6-7.5-4.3zM42.2 25.4l-7.6 4.3 0-8.6 7.6 4.3z"/><path d="M13.9 13.7l8.3 2.2-6.1 6.1-2.2-8.3zM37.2 37l-8.3-2.2 6.1-6.1 2.2 8.3zM13.6 37.1l2.3-8.4 6.1 6.1-8.4 2.3zM37.3 13.7l-2.2 8.3-6.1-6.1 8.3-2.2z"/></g><circle cx="25.3" cy="25.3" r="10.6" fill="#118df0"/><circle cx="25.3" cy="25.3" r="9.5" fill="#fff"/></g></svg>