<svg viewBox="0 0 692 121" xmlns="http://www.w3.org/2000/svg"><g fill="currentColor" fill-rule="nonzero"><path d="M367.84 53.03l7.82-7.38V23.23L352.2.81h-78.18l-23.45 22.42V8.29L242.75.81h-31.28l-7.81 7.48v14.94l-15.63 14.95-15.64-14.95V8.29L164.57.81H133.3l-7.82 7.48-7.82-7.48H86.39l-7.82 7.48v29.89L39.48.81H8.21L.38 8.29v104.62l7.83 7.47h31.27l7.81-7.47V83.02l39.1 37.36h31.27l7.82-7.47V53.12l39.09 37.37v22.42l7.82 7.47h31.27l7.81-7.47V90.49l39.1-37.37v44.84l23.45 22.42h78.18l23.46-22.42V75.54l-7.82-7.48h-39.09v7.48h-31.27V45.65h31.27v7.38zM391 3.33h11.49l5.16 20h.08l5.16-20h11.49v30h-7.34V10.54H417l-6.3 22.74h-6l-6.29-22.74h-.08v22.74H391zM429.23 18.22a6.62 6.62 0 013.4-5.83 13.9 13.9 0 016.92-1.51c5.16 0 10.15 1.13 10.15 7.3v9.52a12.69 12.69 0 00.84 5.58h-7.17a8.32 8.32 0 01-.42-2.06 9.6 9.6 0 01-7.18 2.68c-4.2 0-7.42-2.1-7.42-6.59 0-7 7.72-6.54 12.67-7.55 1.22-.29 1.88-.67 1.88-2 0-1.64-2-2.26-3.44-2.26-2.06 0-3.23.92-3.57 2.73l-6.66-.01zm9.23 11.28c3.4 0 4.53-1.89 4.36-6.42-1 .63-2.85.71-4.4 1.17-1.55.46-2.94 1-2.94 2.77s1.35 2.48 2.98 2.48zM466.26 35.21c-1.68 4.78-4.32 5.37-9.1 5.37h-3.36v-5.79h2.48c1.64 0 2.85-.92 2.85-2.43 0-1.18-1.38-4.53-1.8-5.7l-5.62-15.14h7.55l4.11 14.18h.09l4.11-14.18h7.3l-8.61 23.69zM487.32 10.88a11.16 11.16 0 0111.49 11.54c0 6.335-5.135 11.47-11.47 11.47-6.335 0-11.47-5.135-11.47-11.47a11.13 11.13 0 0111.45-11.54zm0 17.58c3.35 0 4.36-3.23 4.36-6s-1-6.08-4.36-6.08c-3.36 0-4.32 3.27-4.32 6.03 0 2.76 1 6.04 4.32 6.04v.01zM502.79 11.51h6.92v3.82h.09a6.51 6.51 0 016.54-4.24 7.61 7.61 0 011.68.17v6.5a8.79 8.79 0 00-2.73-.42 5 5 0 00-5.37 5.16v10.78h-7.13V11.51zM520.91 3.33h6.67v7c0 4.19-2.1 7.34-6.67 8.14v-3.4a3.69 3.69 0 003-3.94h-3v-7.8zM538.35 26.11a2.87 2.87 0 001.17 2.43 4.46 4.46 0 002.64.76c1.34 0 3.36-.63 3.36-2.31 0-1.68-2.27-2-3.48-2.31-4.49-1.13-10.11-1.26-10.11-7.13 0-5.2 5.66-6.67 9.94-6.67 4.74 0 9.82 1.38 10 7h-6.58a2 2 0 00-.92-1.89 3.94 3.94 0 00-2.27-.55c-1.17 0-3.06.13-3.06 1.64 0 2 4.78 2.48 8.05 3.15 4.36.88 5.54 4.07 5.54 5.87 0 5.83-5.54 7.76-10.44 7.76-5.2 0-10.45-1.72-10.66-7.8l6.82.05zM583.27 2.7c9.4 0 14.77 6.92 14.77 15.6s-5.37 15.6-14.77 15.6c-9.4 0-14.77-6.9-14.77-15.6s5.37-15.6 14.77-15.6zm0 24.5c5 0 7-4.4 7-8.89s-1.93-8.89-7-8.89-7 4.4-7 8.89 1.97 8.89 7 8.89zM603.52 16.12h-3.44v-4.61h3.44c0-6.25 2.18-8.18 8.27-8.18 1.13 0 2.31.08 3.44.13v5a15.3 15.3 0 00-1.93-.13c-1.63 0-2.64.21-2.64 2.18v1h4.28v4.61h-4.28v17.16h-7.13l-.01-17.16zM619 16.12h-3.4v-4.61h3.4c0-6.25 2.18-8.18 8.26-8.18 1.13 0 2.31.08 3.44.13v5a15.34 15.34 0 00-1.93-.13c-1.63 0-2.64.21-2.64 2.18v1h4.28v4.61h-4.28v17.16H619V16.12zm20.6-7.34h-7.1V3.33h7.13l-.03 5.45zm-7.13 2.73h7.13v21.77h-7.1l-.03-21.77zM658.84 19.48a3.33 3.33 0 00-3.48-3.15c-4 0-4.61 3.4-4.61 6.42 0 2.81 1.22 5.7 4.24 5.7 2.52 0 3.73-1.38 4.07-3.73H666c-.67 5.87-5.12 9.19-10.95 9.19-6.54 0-11.41-4.45-11.41-11.16 0-6.92 4.4-11.87 11.41-11.87 5.45 0 10.19 2.89 10.74 8.6h-6.95zM675.61 24.13c.13 3 1.85 5 4.87 5a4.18 4.18 0 004.07-2.39h6.67c-1.34 5-6 7.22-10.82 7.22-7.09 0-11.91-4.28-11.91-11.58a11.43 11.43 0 0111.74-11.45c7.8 0 11.71 5.87 11.37 13.26l-15.99-.06zm8.85-4a4.38 4.38 0 00-4.24-4.45c-2.52 0-4.15 1.76-4.61 4.45h8.85zM392.24 56h-3.44v-4.65h3.44c0-6.25 2.18-8.18 8.26-8.18 1.13 0 2.31.08 3.44.13v5a15.34 15.34 0 00-1.94-.1c-1.63 0-2.64.21-2.64 2.18v1h4.28V56h-4.28v17.12h-7.13l.01-17.12zM416.61 50.72a11.16 11.16 0 0111.49 11.54c0 6.337-5.138 11.475-11.475 11.475S405.15 68.597 405.15 62.26a11.13 11.13 0 0111.46-11.54zm0 17.58c3.36 0 4.36-3.23 4.36-6s-1-6.08-4.36-6.08c-3.36 0-4.32 3.31-4.32 6.08s1.01 6 4.32 6zM432.08 51.35H439v3.82h.08a6.52 6.52 0 016.55-4.24 7.6 7.6 0 011.68.17v6.5a8.78 8.78 0 00-2.73-.42 5 5 0 00-5.37 5.16v10.78h-7.13V51.35zM463.2 43.17h23.87v6.25H471v5.24h14.68v6H471v5.7h16.49v6.71H463.2zM505.81 59.32a3.33 3.33 0 00-3.48-3.15c-4 0-4.61 3.4-4.61 6.42 0 2.81 1.22 5.7 4.24 5.7 2.52 0 3.73-1.38 4.07-3.73h6.92c-.67 5.87-5.12 9.19-10.95 9.19-6.54 0-11.41-4.45-11.41-11.16 0-6.92 4.4-11.87 11.41-11.87 5.45 0 10.19 2.89 10.74 8.6h-6.93zM526.91 50.72a11.16 11.16 0 0111.49 11.54c0 6.337-5.138 11.475-11.475 11.475S515.45 68.597 515.45 62.26a11.13 11.13 0 0111.46-11.54zm0 17.58c3.36 0 4.36-3.23 4.36-6s-1-6.08-4.36-6.08c-3.36 0-4.32 3.31-4.32 6.08s1 6 4.32 6zM542.13 51.35H549v3h.08a8.28 8.28 0 016.92-3.63c7.26 0 7.84 5.29 7.84 8.43v14h-7.13V60.41c0-2.1-.71-3.82-3.56-3.82-2.68 0-3.86 2.31-3.86 4.66v11.87h-7.13l-.03-21.77zM578.95 50.72a11.16 11.16 0 0111.49 11.54c0 6.337-5.138 11.475-11.475 11.475S567.49 68.597 567.49 62.26a11.13 11.13 0 0111.46-11.54zm0 17.58c3.35 0 4.36-3.23 4.36-6s-1-6.08-4.36-6.08c-3.36 0-4.32 3.31-4.32 6.08s1 6 4.32 6zM594.17 51.35h6.92v3h.09a7.2 7.2 0 016.25-3.61c2.73 0 5.16.88 6.33 3.52a7.83 7.83 0 016.8-3.52c6.92 0 7.68 5.24 7.68 9.4v13h-7.14V60.33c0-2.35-1.13-3.73-3-3.73-3.06 0-3.35 2.35-3.35 5.87v10.65h-7.13V60.75c0-2.56-.71-4.15-2.68-4.15-2.56 0-3.65 1.51-3.65 5.91v10.61h-7.13l.01-21.77zM640.38 48.62h-7.13v-5.45h7.13v5.45zm-7.13 2.73h7.13v21.77h-7.13V51.35zM659.6 59.32a3.33 3.33 0 00-3.48-3.15c-4 0-4.61 3.4-4.61 6.42 0 2.81 1.22 5.7 4.24 5.7 2.52 0 3.74-1.38 4.07-3.73h6.92c-.67 5.87-5.12 9.19-10.95 9.19-6.54 0-11.41-4.45-11.41-11.16 0-6.92 4.4-11.87 11.41-11.87 5.45 0 10.19 2.89 10.74 8.6h-6.93zM404.62 82.4c9.4 0 14.77 6.92 14.77 15.6s-5.37 15.6-14.77 15.6c-9.4 0-14.77-6.92-14.77-15.6s5.37-15.6 14.77-15.6zm0 24.5c5 0 7-4.4 7-8.89s-1.93-8.89-7-8.89-7 4.4-7 8.89 1.96 8.89 7 8.89zM422.89 91.21h6.8v2.52h.08a6.87 6.87 0 016-3.15c6.84 0 9.73 5.83 9.73 12 0 5.66-3 11-9.19 11a7.34 7.34 0 01-6.21-3h-.1v9.65h-7.13l.02-29.02zm6.88 10.65c0 3.82 1.09 6.29 4.32 6.29 3.23 0 4.28-3.31 4.28-6.29 0-2.77-1-5.83-4.24-5.83-1.88-.03-4.36 1.3-4.36 5.83zM448.88 91.21h6.8v2.52h.08a6.86 6.86 0 016-3.15c6.84 0 9.73 5.83 9.73 12 0 5.66-3 11-9.19 11a7.33 7.33 0 01-6.21-3H456v9.65h-7.13l.01-29.02zm6.88 10.65c0 3.82 1.09 6.29 4.32 6.29 3.23 0 4.28-3.31 4.28-6.29 0-2.77-1.05-5.83-4.24-5.83-1.88-.03-4.36 1.3-4.36 5.83zM485.28 90.58a11.52 11.52 0 11-11.45 11.54 11.16 11.16 0 0111.45-11.54zm0 17.58c3.36 0 4.36-3.23 4.36-6s-1-6.08-4.36-6.08c-3.36 0-4.32 3.31-4.32 6.08s1.04 6 4.32 6zM499.28 91.21h6.92V95h.08a6.51 6.51 0 016.54-4.24 7.61 7.61 0 011.68.17v6.5a8.78 8.78 0 00-2.73-.42 5 5 0 00-5.37 5.16V113h-7.13l.01-21.79zM531.69 95.82h-4.4v9.9c0 1.72 1 2.1 2.56 2.1.63 0 1.22-.08 1.85-.08V113c-1.3 0-2.6.21-3.9.21-6.08 0-7.64-1.8-7.64-7.68v-9.71h-3.61v-4.61h3.61v-6.59h7.13v6.59h4.4v4.61zM556.94 113H550v-3h-.08a8 8 0 01-6.63 3.61c-6.25 0-8.05-3.61-8.05-9.31V91.21h7.13v12.63c0 2.89 1.22 3.9 3.53 3.9 1.51 0 3.9-1 3.9-4.87V91.21h7.13l.01 21.79zM561.71 91.21h6.92v3h.09a8.28 8.28 0 016.84-3.61c7.25 0 7.84 5.29 7.84 8.43v14h-7.13v-12.76c0-2.1-.71-3.82-3.56-3.82-2.68 0-3.86 2.31-3.86 4.66V113h-7.13l-.01-21.79zM595.08 88.48h-7.13V83h7.13v5.48zm-7.13 2.73h7.13V113h-7.13V91.21zM613.24 95.82h-4.4v9.9c0 1.72 1 2.1 2.56 2.1.63 0 1.22-.08 1.84-.08V113c-1.3 0-2.6.21-3.9.21-6.08 0-7.64-1.8-7.64-7.68v-9.71h-3.6v-4.61h3.6v-6.59h7.13v6.59h4.4l.01 4.61zM629.34 114.91c-1.68 4.78-4.32 5.37-9.1 5.37h-3.35v-5.79h2.48c1.63 0 2.85-.92 2.85-2.43 0-1.17-1.38-4.53-1.81-5.7l-5.62-15.14h7.55l4.11 14.18h.08l4.11-14.18h7.3l-8.6 23.69z"/></g></svg>