<svg viewBox="0 0 50 50" xmlns="http://www.w3.org/2000/svg" fill-rule="evenodd" clip-rule="evenodd" stroke-linejoin="round" stroke-miterlimit="1.414"><circle cx="25" cy="25" r="25" fill="#118df0"/><circle cx="25" cy="25" r="23.7" fill="#fff"/><circle cx="25" cy="25" r="21.6" fill="#118df0"/><g fill-rule="nonzero"><path d="M32.1,21c-0.9,0 -3.1,-1.5 -3.1,-2.3l0,-5.7l-13.3,0c-1.9,0 -3.7,1.5 -3.7,3.3l0,19.5c0,1.8 1.8,3.1 3.7,3.1l18.2,0c1.9,0 3.1,-1.3 3.1,-3.1l0,-14.8l-4.9,0Z" fill="#fff"/><path d="M29,18.7c0,1.2 1.4,2.3 2.9,2.3l5.1,0l-8,-8l0,5.7Z" fill="#184e9e"/><path d="M27.2,23.1c-0.3,-0.3 -0.7,-0.5 -1,-0.6c-0.3,-0.1 -0.7,-0.2 -1.2,-0.2c-0.5,0 -0.9,0.1 -1.2,0.3c-0.3,0.2 -0.4,0.5 -0.4,1c0,0.3 0.1,0.6 0.4,0.8c0.2,0.2 0.6,0.4 0.9,0.6c0.4,0.2 0.8,0.4 1.2,0.5c0.4,0.2 0.8,0.4 1.2,0.6c0.4,0.3 0.7,0.6 0.9,0.9c0.2,0.4 0.4,0.8 0.4,1.4c0,0.8 -0.2,1.4 -0.7,2c-0.5,0.5 -1.2,0.9 -2.1,1l0,1.7l-1.5,0l0,-1.6c-0.6,-0.1 -1.1,-0.2 -1.7,-0.4c-0.6,-0.2 -1.1,-0.5 -1.5,-0.8l1,-1.3c0.4,0.3 0.9,0.6 1.3,0.7c0.4,0.2 0.9,0.3 1.4,0.3c0.6,0 1.1,-0.1 1.4,-0.4c0.3,-0.2 0.4,-0.6 0.4,-1c0,-0.4 -0.1,-0.7 -0.4,-0.9c-0.2,-0.2 -0.6,-0.5 -0.9,-0.7l-2.4,-1.2c-0.4,-0.2 -0.7,-0.5 -0.9,-0.9c-0.2,-0.3 -0.4,-0.8 -0.4,-1.3c0,-0.8 0.2,-1.4 0.7,-1.9c0.5,-0.5 1.2,-0.8 2,-1l0,-1.7l1.5,0l0,1.6c0.6,0.1 1.1,0.2 1.5,0.5c0.4,0.2 0.8,0.5 1.2,0.8l-1.1,1.2Z" fill="#118df0"/></g></svg>