<svg viewBox="0 0 42 44" xmlns="http://www.w3.org/2000/svg"><g fill-rule="nonzero" fill="none"><path d="M-4-2h48v48H-4z"/><path fill="currentColor" d="M23 44H0V29.169L11.5 21l11.354 8.012.146.157z"/><path fill="#FFF" d="M6 37v4h4v-4zM6 30v4h4v-4zM13 37v4h4v-4zM13 30v4h4v-4z"/><path fill="currentColor" d="M40 2H21v42h19z"/><path fill="#FFF" d="M36 37h-4v4h4zM29 37h-4v4h4zM36 29h-4v4h4zM29 29h-4v4h4zM36 21h-4v4h4zM29 21h-4v4h4zM36 13h-4v4h4zM29 13h-4v4h4zM36 5h-4v4h4zM29 5h-4v4h4z"/><path fill="currentColor" d="M19 0h23v2H19z"/></g></svg>