<svg viewBox="0 0 350 117" xmlns="http://www.w3.org/2000/svg" xml:space="preserve" style="fill-rule:evenodd;clip-rule:evenodd;stroke-linejoin:round;stroke-miterlimit:1.41421"><g fill="currentColor" fill-rule="nonzero"><path d="m327.9 0-72.9 0-21.8 21.9 0 72.8 21.8 21.9 72.9 0 21.8-21.9 0-21.8-7.2-7.3-36.5 0 0 7.3-29.1 0 0-29.2 29.1 0 0 7.2 36.5 0 7.2-7.2 0-21.8-21.8-21.9ZM109.3 0l-29.2 0-7.2 7.3 0 29.1-36.5-36.4-29.1 0-7.3 7.3 0 102 7.3 7.3 29.1 0 7.3-7.3 0-29.2 36.4 36.5 29.2 0 7.3-7.3 0-102-7.3-7.3Z"/><path d="M160.3,116.6l29.1,0l7.3,-7.3l0,-21.9l36.5,-36.4l0,-43.7l-7.3,-7.3l-29.2,0l-7.3,7.3l0,14.6l-14.5,14.5l-14.6,-14.5l0,-14.6l-7.3,-7.3l-29.1,0l-7.3,7.3l0,43.7l36.4,36.4l0,21.9l7.3,7.3Z"/></g></svg>