<svg viewBox="0 0 48 48" fill="none" xmlns="http://www.w3.org/2000/svg"><path d="M24 48C37.2548 48 48 37.2548 48 24C48 10.7452 37.2548 0 24 0C10.7452 0 0 10.7452 0 24C0 37.2548 10.7452 48 24 48Z"/><path d="M24 44C35.0457 44 44 35.0457 44 24C44 12.9543 35.0457 4 24 4C12.9543 4 4 12.9543 4 24C4 35.0457 12.9543 44 24 44Z" fill="currentColor"/><path d="M24.1209 10 29.3766 14.0777 35.6291 12.0842 33.3637 18.3367 37.2602 23.6831 30.5546 23.5018 26.6581 28.7576 24.8458 22.4145 18.5933 20.3303 24.0302 16.615 24.1209 10V10ZM14.4305 24.4075 18.1458 27.3072 22.6766 25.948 21.0455 30.3882 23.8546 34.2847 19.052 34.1034 16.2429 37.9999 14.8836 33.3785 10.3528 31.838 14.3399 29.2101 14.4305 24.4075V24.4075Z" fill="#fff"/></svg>