<svg viewBox="0 0 48 48" fill="none" xmlns="http://www.w3.org/2000/svg"><path d="M24 48C37.2548 48 48 37.2548 48 24C48 10.7452 37.2548 0 24 0C10.7452 0 0 10.7452 0 24C0 37.2548 10.7452 48 24 48Z"/><path d="M24 44C35.0457 44 44 35.0457 44 24C44 12.9543 35.0457 4 24 4C12.9543 4 4 12.9543 4 24C4 35.0457 12.9543 44 24 44Z" fill="currentColor"/><path d="M35.3334 26.6668L24 38.0001L12.6666 26.6668C9.53701 23.5371 9.53701 18.463 12.6666 15.3334C15.7963 12.2038 20.8704 13.2038 24 16.3334C27.1296 13.2038 32.2037 12.2038 35.3334 15.3334C38.463 18.463 38.463 23.5371 35.3334 26.6668Z" fill="#fff"/><path fill="currentColor" d="M22 20H26V30H22z"/><path transform="rotate(90 29 23)" fill="currentColor" d="M29 23H33V33H29z"/></svg>