<svg viewBox="0 0 48 48" fill="none" xmlns="http://www.w3.org/2000/svg"><path d="M24 48C37.2548 48 48 37.2548 48 24C48 10.7452 37.2548 0 24 0C10.7452 0 0 10.7452 0 24C0 37.2548 10.7452 48 24 48Z"/><path d="M24 44C35.0457 44 44 35.0457 44 24C44 12.9543 35.0457 4 24 4C12.9543 4 4 12.9543 4 24C4 35.0457 12.9543 44 24 44Z" fill="currentColor"/><path d="M31 21C32.1046 21 33 21.8954 33 23V27.0263C33 27.7668 32.5909 28.4467 31.9366 28.7934L24.9366 32.5036C24.3508 32.8141 23.6492 32.8141 23.0634 32.5036L16.0634 28.7934C15.4091 28.4467 15 27.7668 15 27.0263V23C15 21.8954 15.8954 21 17 21H31ZM14 21H13V31H14V21Z" fill="#fff"/><path d="M13.5 30L15 34H12L13.5 30V30Z" fill="#fff"/><path d="M37.7914 19.0173L24.4303 12.6511C24.1581 12.5214 23.8421 12.5214 23.57 12.6511L10.2089 19.0173C9.44703 19.3803 9.44964 20.4655 10.2132 20.8248L23.5743 27.1124C23.844 27.2393 24.1562 27.2393 24.4259 27.1124L37.787 20.8248C38.5506 20.4655 38.5532 19.3803 37.7914 19.0173Z" fill="#fff" stroke="currentColor"/><path d="M24 21C24.5523 21 25 20.5523 25 20C25 19.4477 24.5523 19 24 19C23.4477 19 23 19.4477 23 20C23 20.5523 23.4477 21 24 21Z" fill="currentColor"/><circle cx="13.5" cy="31" r="1" fill="#fff"/></svg>