<svg viewBox="0 0 48 48" fill="none" xmlns="http://www.w3.org/2000/svg"><path d="M24 48C37.2548 48 48 37.2548 48 24C48 10.7452 37.2548 0 24 0C10.7452 0 0 10.7452 0 24C0 37.2548 10.7452 48 24 48Z"/><path d="M24 44C35.0457 44 44 35.0457 44 24C44 12.9543 35.0457 4 24 4C12.9543 4 4 12.9543 4 24C4 35.0457 12.9543 44 24 44Z" fill="currentColor"/><ellipse cx="24" cy="29.5" rx="11" ry="8.5" fill="#fff"/><circle cx="24" cy="16" r="6" fill="#fff"/><ellipse cx="24" cy="35.5" rx="6" ry="4.5" fill="currentColor"/><circle cx="24" cy="28" r="4" fill="currentColor"/></svg>