<svg viewBox="0 0 48 48" fill="none" xmlns="http://www.w3.org/2000/svg"><path d="M24 48C37.2548 48 48 37.2548 48 24C48 10.7452 37.2548 0 24 0C10.7452 0 0 10.7452 0 24C0 37.2548 10.7452 48 24 48Z"/><path d="M24 44C35.0457 44 44 35.0457 44 24C44 12.9543 35.0457 4 24 4C12.9543 4 4 12.9543 4 24C4 35.0457 12.9543 44 24 44Z" fill="currentColor"/><path d="M20.3516 23.03 14.7266 25.8092M27.6484 23.03 33.3646 25.8654" stroke="#fff" stroke-width="4.5" stroke-linecap="round"/><path d="M28.1697 31.3694 33.3646 34.1486M19.8303 31.3694 14.8109 34.3055" stroke="#fff" stroke-width="6" stroke-linecap="round"/><path d="M26.2267 33.9754H21.7732C18.9641 33.9754 16.7031 31.4771 16.7031 28.3731V26.0263C16.7031 22.9224 18.9641 20.4241 21.7732 20.4241H26.2267C29.0358 20.4241 31.2968 22.9224 31.2968 26.0263V28.3731C31.2968 31.4771 28.9673 33.9754 26.2267 33.9754V33.9754Z" fill="#fff"/><path d="M24.5213 32.9329H23.4789C21.4724 32.9329 18.7881 30.819 18.7881 28.1926V26.2068C18.7881 23.5804 20.4031 21.4664 22.4096 21.4664H25.5906C27.5972 21.4664 29.2121 23.5804 29.2121 26.2068V28.1926C29.2121 30.819 26.4789 32.9329 24.5213 32.9329Z" fill="currentColor"/><path d="M17.2244 15.212C18.6637 15.212 19.8304 14.0453 19.8304 12.606 19.8304 11.1668 18.6637 10 17.2244 10 15.7852 10 14.6184 11.1668 14.6184 12.606 14.6184 14.0453 15.7852 15.212 17.2244 15.212ZM30.7757 15.212C32.215 15.212 33.3817 14.0453 33.3817 12.606 33.3817 11.1668 32.215 10 30.7757 10 29.3364 10 28.1697 11.1668 28.1697 12.606 28.1697 14.0453 29.3364 15.212 30.7757 15.212Z" fill="#fff"/><path d="M24 22.5089C21.1909 22.5089 16.7031 19.7592 16.7031 17.0186V14.9464C16.7031 12.2058 18.9641 10 21.7732 10H26.2267C29.0358 10 31.2968 12.2058 31.2968 14.9464V17.0186C31.2968 19.7592 26.7406 22.5089 24 22.5089Z" fill="#fff"/><circle cx="21" cy="14" r="1" fill="currentColor"/><circle cx="27" cy="14" r="1" fill="currentColor"/><ellipse cx="24" cy="18.5" rx="3" ry="2.5" fill="currentColor"/><circle cx="24" cy="18" r="1" fill="#fff"/></svg>