<svg viewBox="0 0 48 50" fill="none" xmlns="http://www.w3.org/2000/svg"><path d="M18.3076 23.5215 8.94318 28.1483M30.4553 23.5215 39.9716 28.2418" stroke="currentColor" stroke-width="7.5" stroke-linecap="round"/><path d="M31.3232 37.4048 39.9717 42.0316M17.4399 37.4048 9.08359 42.2928" stroke="currentColor" stroke-width="10" stroke-linecap="round"/><path d="M28.0884 41.743H20.6743C15.9977 41.743 12.2336 37.5839 12.2336 32.4165V28.5095C12.2336 23.3421 15.9977 19.183 20.6743 19.183H28.0884C32.765 19.183 36.5291 23.3421 36.5291 28.5095V32.4165C36.5291 37.5839 32.6509 41.743 28.0884 41.743V41.743Z" fill="currentColor"/><path d="M25.2495 40.0076H23.5141C20.1737 40.0076 15.7048 36.4883 15.7048 32.1159V28.81C15.7048 24.4376 18.3935 20.9183 21.7339 20.9183H27.0297C30.3701 20.9183 33.0587 24.4376 33.0587 28.81V32.1159C33.0587 36.4883 28.5084 40.0076 25.2495 40.0076Z" fill="#FFF"/><path d="M13.1017 10.506C15.4977 10.506 17.4401 8.56364 17.4401 6.16757 17.4401 3.7715 15.4977 1.8291 13.1017 1.8291 10.7056 1.8291 8.76318 3.7715 8.76318 6.16757 8.76318 8.56364 10.7056 10.506 13.1017 10.506ZM35.6617 10.506C38.0578 10.506 40.0002 8.56364 40.0002 6.16757 40.0002 3.7715 38.0578 1.8291 35.6617 1.8291 33.2656 1.8291 31.3232 3.7715 31.3232 6.16757 31.3232 8.56364 33.2656 10.506 35.6617 10.506Z" fill="currentColor"/><path d="M24.3814 22.6538C19.7048 22.6538 12.2336 18.0761 12.2336 13.5136V10.0639C12.2336 5.50136 15.9977 1.8291 20.6743 1.8291H28.0884C32.765 1.8291 36.5291 5.50136 36.5291 10.0639V13.5136C36.5291 18.0761 28.9439 22.6538 24.3814 22.6538Z" fill="currentColor"/><circle cx="19.5" cy="8.5" r="1.5" fill="#FFF"/><circle cx="29.5" cy="8.5" r="1.5" fill="#FFF"/><ellipse cx="24.5" cy="16.5" rx="5.5" ry="4.5" fill="#FFF"/><circle cx="24.5" cy="15.5" r="1.5" fill="currentColor"/></svg>