<svg viewBox="0 0 40 40" fill="none" xmlns="http://www.w3.org/2000/svg"><g fill="transparent"><circle cx="18.5" cy="19.5" r="15.5" fill="#EDEDF0"/><path d="M10.75 32.9234C8.98722 31.9057 7.44215 30.5507 6.20302 28.9358C4.9639 27.3209 4.05497 25.4778 3.52815 23.5117C3.00133 21.5456 2.86692 19.4949 3.13261 17.4768C3.39829 15.4588 4.05886 13.5128 5.07661 11.75C6.09435 9.98721 7.44934 8.44215 9.0642 7.20302C10.6791 5.9639 12.5222 5.05497 14.4883 4.52815C16.4544 4.00133 18.5051 3.86692 20.5232 4.13261C22.5412 4.39829 24.4872 5.05886 26.25 6.07661L10.75 32.9234Z" fill="#fff"/><path transform="scale(-1 1) rotate(-18.425 20.694 73.659)" fill="#9425A8" d="M0 0H1V10.349H0z"/><circle cx="18.5" cy="19.5" r="14.5" stroke="#000" stroke-width="2"/><path transform="rotate(54.207 26.173 13.82)" fill="#000" d="M26.173 13.82H27.808V23.541H26.173z"/><path transform="rotate(117.195 18.438 19.448)" fill="#000" d="M18.438 19.448H20.073V24.722H18.438z"/><circle cx="18.526" cy="20.03" r="1.64" fill="#000"/><path fill-rule="evenodd" clip-rule="evenodd" d="M19 7 19 10 18 10 18 7 19 7ZM18 32 18 29 19 29 19 32 18 32ZM31 20 28 20 28 19 31 19 31 20ZM6 19 9 19 9 20 6 20 6 19ZM10.0147 10.3076 12.136 12.4289 11.4289 13.136 9.3076 11.0147 10.0147 10.3076ZM9.30762 27.9853 11.4289 25.864 12.136 26.5711 10.0147 28.6924 9.30762 27.9853ZM27.6924 11.0147 25.5711 13.136 24.864 12.4289 26.9853 10.3076 27.6924 11.0147Z" fill="#000"/><path fill="#9425A8" d="M26.8 19H35.2V29.058999999999997H26.8z"/><path d="M31 38L23.2058 27.1029L38.7942 27.1029L31 38Z" fill="#9425A8"/></g></svg>