<svg viewBox="0 0 40 40" fill="none" xmlns="http://www.w3.org/2000/svg"><g fill="transparent"><mask id="path-2-inside-1" fill="#fff"><path d="M0 12H39V34H0V12Z"/></mask><path d="M0 12H39V34H0V12Z" fill="#fff"/><path d="M0 12V10H-2V12H0ZM39 12H41V10H39V12ZM39 34V36H41V34H39ZM0 34H-2V36H0V34ZM0 14H39V10H0V14ZM37 12V34H41V12H37ZM39 32H0V36H39V32ZM2 34V12H-2V34H2Z" fill="#000" mask="url(#path-2-inside-1)"/><path fill="#fff" stroke="#000" stroke-width="2" d="M10 5H29V33H10z"/><path fill="#000" d="M16 23H23V34H16z"/><path fill="#9425A8" d="M17.829 10.029H21.172V20.058H17.829z"/><path transform="rotate(90 24.514 13.371)" fill="#9425A8" d="M24.514 13.371H27.857V23.4H24.514z"/></g></svg>