<svg viewBox="0 0 40 40" fill="none" xmlns="http://www.w3.org/2000/svg"><g fill="transparent"><circle cx="19.5" cy="19.5" r="15.5" fill="#EDEDF0"/><path d="M11.75 32.9234C9.98722 31.9057 8.44215 30.5507 7.20302 28.9358C5.9639 27.3209 5.05497 25.4778 4.52815 23.5117C4.00133 21.5456 3.86692 19.4949 4.13261 17.4768C4.39829 15.4588 5.05886 13.5128 6.07661 11.75C7.09435 9.98721 8.44934 8.44215 10.0642 7.20302C11.6791 5.9639 13.5222 5.05497 15.4883 4.52815C17.4544 4.00133 19.5051 3.86692 21.5232 4.13261C23.5412 4.39829 25.4872 5.05886 27.25 6.07661L11.75 32.9234Z" fill="#fff"/><path transform="scale(-1 1) rotate(-18.425 20.194 76.742)" fill="#9425A8" d="M0 0H1V10.349H0z"/><circle cx="19.5" cy="19.5" r="14.5" stroke="#000" stroke-width="2"/><path transform="rotate(54.207 27.173 13.82)" fill="#000" d="M27.173 13.82H28.808V23.541H27.173z"/><path transform="rotate(117.195 19.438 19.448)" fill="#000" d="M19.438 19.448H21.073V24.722H19.438z"/><circle cx="19.526" cy="20.03" r="1.64" fill="#000"/><path fill-rule="evenodd" clip-rule="evenodd" d="M20 7 20 10 19 10 19 7 20 7ZM19 32 19 29 20 29 20 32 19 32ZM32 20 29 20 29 19 32 19 32 20ZM7 19 10 19 10 20 7 20 7 19ZM27.9853 28.6924 25.864 26.5711 26.5711 25.864 28.6924 27.9853 27.9853 28.6924ZM11.0147 10.3076 13.136 12.4289 12.4289 13.136 10.3076 11.0147 11.0147 10.3076ZM10.3076 27.9853 12.4289 25.864 13.136 26.5711 11.0147 28.6924 10.3076 27.9853ZM28.6924 11.0147 26.5711 13.136 25.864 12.4289 27.9853 10.3076 28.6924 11.0147Z" fill="#000"/></g></svg>