<svg viewBox="0 0 40 40" fill="none" xmlns="http://www.w3.org/2000/svg"><path d="M30.3967 27.0665L30.1322 27.3675L30.1488 27.7679L30.4763 35.6954L24.1949 31.6008L23.8167 31.3543L23.3817 31.4748C22.1474 31.8169 20.8459 32 19.5 32C11.4919 32 5 25.5081 5 17.5C5 9.49188 11.4919 3 19.5 3C27.5081 3 34 9.49188 34 17.5C34 21.1664 32.6405 24.5128 30.3967 27.0665Z" fill="#fff" stroke="#000" stroke-width="2"/><path d="M19.5 23.1429C22.6165 23.1429 25.1429 20.6165 25.1429 17.5C25.1429 14.3835 22.6165 11.8571 19.5 11.8571C16.3836 11.8571 13.8572 14.3835 13.8572 17.5C13.8572 20.6165 16.3836 23.1429 19.5 23.1429Z" fill="#fff" stroke="#9425A8" stroke-width="2"/><path d="M22.5982 13.9553L15.9553 20.5982" stroke="#9425A8" stroke-width="2"/></svg>