<svg viewBox="0 0 40 40" xmlns="http://www.w3.org/2000/svg"><g fill="transparent"><path fill-rule="evenodd" clip-rule="evenodd" d="M29.618 15.7157L6.93118 21.0312L7.50483 23.4795L30.1916 18.164L29.618 15.7157ZM7.50486 23.4795L30.1916 18.164L30.7653 20.6123L8.0785 25.9278L7.50486 23.4795ZM8.65215 28.3762L9.22579 30.8245L9.22577 30.8245L9.79941 33.2728L32.4862 27.9572L31.9126 25.509L31.9126 25.509L31.3389 23.0607L8.65215 28.3762ZM9.79945 33.2729L10.3731 35.7212L33.0599 30.4056L32.4862 27.9573L9.79945 33.2729ZM30.7653 20.6123L31.3389 23.0606L8.65212 28.3762L8.07848 25.9279L30.7653 20.6123Z" fill="#fff"/><path transform="rotate(-13.187 6.202 20.579)" stroke="#000" stroke-width="2" d="M6.202 20.579H30.717V37.238H6.202z"/><path d="M12.3653 19.1857V4.68219C12.3653 3.20086 13.5662 2 15.0475 2V2C16.1044 2 17.0627 2.62063 17.495 3.58503L23.1678 16.2396" stroke="#000" stroke-width="2"/><circle cx="19.731" cy="25.569" r="4.892" stroke="#9425A8" stroke-width="2"/><path stroke="#9425A8" stroke-width="2.5" d="M22.579 22.525 16.686 28.417"/></g></svg>