<svg viewBox="0 0 21 20" xmlns="http://www.w3.org/2000/svg" fill-rule="evenodd" clip-rule="evenodd" stroke-linejoin="round" stroke-miterlimit="1.414"><g fill="currentColor" fill-rule="nonzero"><path d="M17.5,19.9l-4.7,-4.7c-1.3,0.8 -2.8,1.3 -4.5,1.3c-4.6,0 -8.3,-3.7 -8.3,-8.2c0,-4.6 3.7,-8.3 8.3,-8.3c4.6,0 8.3,3.7 8.3,8.3c0,1.6 -0.4,3.1 -1.2,4.3l4.8,4.8c0.3,0.2 0,0.9 -0.5,1.4l-0.7,0.7c-0.6,0.4 -1.2,0.6 -1.5,0.4Zm-3.7,-11.6c0,-3 -2.5,-5.5 -5.5,-5.5c-3,0 -5.5,2.5 -5.5,5.5c0,3 2.5,5.5 5.5,5.5c3,0 5.5,-2.5 5.5,-5.5Z"/><path d="M12 6.7l-4.6 0c-.2 0-.3-.1-.3-.3 0-.2.1-.3.3-.3l4.6 0c.2 0 .3.1.3.3 0 .2-.2.3-.3.3zM5.7 6.7l-.6 0c-.1 0-.3-.1-.3-.3 0-.2.1-.3.3-.3l.6 0c.2 0 .3.1.3.3 0 .2-.1.3-.3.3zM12 8.6l-4.6 0c-.2 0-.3-.1-.3-.3 0-.2.1-.3.3-.3l4.6 0c.2 0 .3.1.3.3 0 .2-.2.3-.3.3zM5.7 8.6l-.6 0c-.1 0-.3-.1-.3-.3 0-.2.2-.3.3-.3l.6 0c.2 0 .3.1.3.3 0 .2-.1.3-.3.3z"/><g><path d="M12 10.5l-4.6 0c-.2 0-.3-.1-.3-.3 0-.2.1-.3.3-.3l4.6 0c.2 0 .3.1.3.3 0 .2-.2.3-.3.3zM5.7 10.5l-.6 0c-.2 0-.3-.1-.3-.3 0-.2.2-.3.3-.3l.6 0c.2 0 .3.1.3.3 0 .2-.1.3-.3.3z"/></g></g></svg>