<svg viewBox="0 0 40 40" fill="none" xmlns="http://www.w3.org/2000/svg"><g fill="transparent"><circle cx="20.791" cy="13.256" r="6.07" fill="#9425A8" stroke="#000" stroke-width="2"/><circle cx="20.791" cy="13.256" r="6.07" transform="rotate(45 20.79 13.256)" fill="#9425A8" stroke="#000" stroke-width="2"/><circle cx="31.395" cy="13.256" r="1.651" fill="#9425A8" stroke="#000" stroke-width="2"/><circle cx="28.289" cy="20.754" r="1.651" transform="rotate(45 28.29 20.754)" fill="#9425A8" stroke="#000" stroke-width="2"/><circle cx="20.791" cy="23.86" r="1.651" transform="rotate(90 20.79 23.86)" fill="#9425A8" stroke="#000" stroke-width="2"/><circle cx="13.292" cy="20.754" r="1.651" transform="rotate(135 13.292 20.754)" fill="#9425A8" stroke="#000" stroke-width="2"/><circle cx="10.186" cy="13.256" r="1.651" transform="rotate(-180 10.186 13.256)" fill="#9425A8" stroke="#000" stroke-width="2"/><circle cx="13.292" cy="5.757" r="1.651" transform="rotate(-135 13.292 5.757)" fill="#9425A8" stroke="#000" stroke-width="2"/><circle cx="20.791" cy="2.651" r="1.651" transform="rotate(-90 20.79 2.651)" fill="#9425A8" stroke="#000" stroke-width="2"/><circle cx="28.289" cy="5.757" r="1.651" transform="rotate(-45 28.29 5.757)" fill="#9425A8" stroke="#000" stroke-width="2"/><path stroke="#000" stroke-width="2" d="M29.628 13.372h-2.651M26.957 19.587l-1.874-1.875M20.674 22.093v-2.651M14.46 19.422l1.874-1.874M11.954 13.14h2.651M14.624 6.925l1.875 1.874M20.907 4.419V7.07M27.122 7.089l-1.875 1.875"/><path d="M4 36.674v-8.616h4.504v1.326l2.713-.946c1.956-.681 4.064-.8 6.084-.343l7.328 1.659a1.66 1.66 0 011.292 1.618l6.598-2.265a1.82 1.82 0 011.3 3.398l-8.588 3.63a15.883 15.883 0 01-9.124.978L8.504 35.68v.994H4z" fill="#fff"/><path d="M8.504 29.384v-1.326H4v8.616h4.504v-.994m0-6.296l2.713-.946c1.956-.681 4.064-.8 6.084-.343l7.328 1.659a1.66 1.66 0 011.292 1.618v0M8.504 29.384v6.296m8.31-3.645l7.488.562a1.535 1.535 0 001.62-1.225v0M8.503 35.68l7.603 1.433c3.071.578 6.245.238 9.124-.979l8.588-3.63a1.82 1.82 0 001.111-1.676v0a1.82 1.82 0 00-2.41-1.721l-6.599 2.265" stroke="#000" stroke-width="2"/></g></svg>