<svg viewBox="0 0 40 40" fill="none" xmlns="http://www.w3.org/2000/svg"><g fill="transparent"><path d="M4 6h31v27H4V6z" fill="#fff" stroke="#000" stroke-width="2"/><mask id="a" maskUnits="userSpaceOnUse" x="3.063" y="10.688" width="12" height="9" fill="#000"><path fill="#fff" d="M3.063 10.688h12v9h-12z"/><path d="M12.281 13.297a3.609 3.609 0 11-7.219 0h7.22z"/></mask><path d="M12.281 13.297a3.609 3.609 0 11-7.219 0h7.22z" stroke="#000" stroke-width="4" mask="url(#a)"/><mask id="b" maskUnits="userSpaceOnUse" x="10.281" y="10.688" width="12" height="9" fill="#000"><path fill="#fff" d="M10.281 10.688h12v9h-12z"/><path d="M19.5 13.297a3.61 3.61 0 01-6.944 1.381 3.607 3.607 0 01-.275-1.381H19.5z"/></mask><path d="M19.5 13.297a3.61 3.61 0 01-6.944 1.381 3.607 3.607 0 01-.275-1.381H19.5z" stroke="#000" stroke-width="4" mask="url(#b)"/><mask id="c" maskUnits="userSpaceOnUse" x="17.5" y="10.688" width="12" height="9" fill="#000"><path fill="#fff" d="M17.5 10.688h12v9h-12z"/><path d="M26.719 13.297a3.609 3.609 0 01-7.219 0H26.719z"/></mask><path d="M26.719 13.297a3.609 3.609 0 01-7.219 0H26.719z" stroke="#000" stroke-width="4" mask="url(#c)"/><mask id="d" maskUnits="userSpaceOnUse" x="24.719" y="10.688" width="12" height="9" fill="#000"><path fill="#fff" d="M24.719 10.688h12v9h-12z"/><path d="M33.938 13.297a3.61 3.61 0 01-6.945 1.381 3.607 3.607 0 01-.274-1.381h7.218z"/></mask><path d="M33.938 13.297a3.61 3.61 0 01-6.945 1.381 3.607 3.607 0 01-.274-1.381h7.218z" stroke="#000" stroke-width="4" mask="url(#d)"/><path fill="#9425A8" d="M5 7h29v7H5z"/><path d="M12.297 13.443c0 .455-.094.905-.276 1.325-.181.42-.448.802-.784 1.124a3.633 3.633 0 01-1.173.75 3.756 3.756 0 01-2.769 0 3.633 3.633 0 01-1.173-.75 3.457 3.457 0 01-.784-1.124 3.336 3.336 0 01-.276-1.325H12.297zM19.531 13.443c0 .455-.093.905-.275 1.325-.182.42-.448.802-.784 1.124a3.633 3.633 0 01-1.174.75 3.756 3.756 0 01-2.768 0 3.634 3.634 0 01-1.174-.75 3.457 3.457 0 01-.784-1.124 3.336 3.336 0 01-.275-1.325h7.234zM26.766 13.443c0 .455-.094.905-.276 1.325-.181.42-.448.802-.784 1.124a3.634 3.634 0 01-1.173.75 3.756 3.756 0 01-2.769 0 3.633 3.633 0 01-1.173-.75 3.457 3.457 0 01-.784-1.124 3.334 3.334 0 01-.276-1.325H26.766zM34 13.443c0 .455-.094.905-.275 1.325-.182.42-.449.802-.784 1.124a3.634 3.634 0 01-1.174.75 3.757 3.757 0 01-2.768 0 3.633 3.633 0 01-1.174-.75 3.455 3.455 0 01-.784-1.124 3.336 3.336 0 01-.275-1.325H34z" fill="#9425A8"/><path fill="#000" d="M16 24h8v10h-8z"/></g></svg>