<svg viewBox="0 0 40 40" fill="none" xmlns="http://www.w3.org/2000/svg"><g fill="transparent"><circle cx="28.448" cy="31.448" r="3.552" fill="#fff" stroke="#000" stroke-width="2"/><mask id="a" fill="#fff"><path d="M21.052 3a14.224 14.224 0 0114.224 14.224H21.052V3z"/></mask><path d="M21.052 3a14.224 14.224 0 0114.224 14.224H21.052V3z" fill="#EDEDF0" stroke="#000" stroke-width="4" mask="url(#a)"/><circle cx="13.655" cy="31.448" r="3.552" fill="#fff" stroke="#000" stroke-width="2"/><path d="M7.828 17.655h26.448v3.38a6 6 0 01-6 6H13.828a6 6 0 01-6-6v-3.38z" fill="#fff" stroke="#000" stroke-width="2"/><path d="M13.655 17.793L9.691 9.3a5 5 0 00-4.53-2.885H0" stroke="#000" stroke-width="2"/><path d="M23.047 14h9.796l.605 2.706H23.047V14z" fill="#EDEDF0"/><path fill="#9425A8" d="M36.874 12.75L39 14.875l-8.874 8.874L28 21.624z"/><path fill="#9425A8" d="M38.997 21.628l-2.12 2.12-8.874-8.875 2.12-2.12z"/></g></svg>