<svg viewBox="0 0 40 40" fill="none" xmlns="http://www.w3.org/2000/svg"><g fill="transparent"><mask id="a" fill="#fff"><path d="M0 12h39v22H0V12z"/></mask><path d="M0 12h39v22H0V12z" fill="#fff"/><path d="M0 12v-2h-2v2h2zm39 0h2v-2h-2v2zm0 22v2h2v-2h-2zM0 34h-2v2h2v-2zm0-20h39v-4H0v4zm37-2v22h4V12h-4zm2 20H0v4h39v-4zM2 34V12h-4v22h4z" fill="#000" mask="url(#a)"/><path fill="#fff" stroke="#000" stroke-width="2" d="M10 5h19v28H10z"/><path fill="#000" d="M16 23h7v11h-7z"/><path fill="#9425A8" d="M17.829 10.029h3.343v10.029h-3.343z"/><path fill="#9425A8" d="M24.515 13.371v3.343h-10.03v-3.343z"/></g></svg>