<svg viewBox="0 0 50 50" xmlns="http://www.w3.org/2000/svg" fill-rule="evenodd" clip-rule="evenodd" stroke-linejoin="round" stroke-miterlimit="1.414"><circle cx="25" cy="25" r="25" fill="#118df0"/><circle cx="25" cy="25" r="23.7" fill="#fff"/><circle cx="25" cy="25" r="21.6" fill="#118df0"/><g><path d="M37.5 34.8h-25c-.3 0-.6-.3-.6-.6V15.6c0-.3.3-.6.6-.6h25c.3 0 .6.3.6.6v18.6c0 .3-.3.6-.6.6z" fill="#fff" fill-rule="nonzero"/><g fill="#118df0"><rect x="25.7" y="26.1" width="9.1" height="1.8"/><rect x="25.7" y="21.8" width="9.1" height="1.8"/></g><g fill="#118df0"><path d="M14.4 30v-.4c0-2.4 1.9-4.3 4.3-4.3s4.3 1.9 4.3 4.3v.4" fill-rule="nonzero"/><circle cx="18.9" cy="22.7" r="2.9"/></g></g></svg>