<svg xmlns="http://www.w3.org/2000/svg" width="500" height="500"><path d="M468.011 124.918c-22.429-38.426-52.854-68.851-91.279-91.279C338.295 11.211 296.338 0 250.829 0c-45.506 0-87.475 11.211-125.903 33.639-38.43 22.425-68.854 52.85-91.283 91.279C11.211 163.35 0 205.319 0 250.82c0 45.506 11.215 87.467 33.639 125.903 22.429 38.422 52.854 68.851 91.283 91.279 38.432 22.427 80.397 33.639 125.902 33.639 45.506 0 87.475-11.212 125.903-33.639 38.426-22.425 68.851-52.854 91.279-91.279 22.423-38.433 33.635-80.401 33.635-125.903.001-45.505-11.211-87.476-33.63-125.902zM413.46 212.61L236.125 389.947c-4.138 4.138-9.143 6.209-15.024 6.209-5.661 0-10.558-2.071-14.696-6.209L88.175 271.725c-3.915-3.924-5.876-8.813-5.876-14.695 0-6.097 1.956-11.107 5.876-15.028l29.72-29.391c4.142-4.136 9.035-6.205 14.699-6.205s10.563 2.069 14.7 6.205l73.811 73.811 133.25-132.924c4.136-4.138 9.035-6.207 14.695-6.207 5.654 0 10.562 2.069 14.695 6.207l29.72 29.395c3.925 3.917 5.88 8.923 5.88 15.019.001 5.88-1.956 10.779-5.885 14.698z"/></svg>