<svg viewBox="0 0 180 30" xmlns="http://www.w3.org/2000/svg"><path d="M22.4,23c0,0.5 -0.4,1 -1,1l-12.8,0c-0.5,0 -1,-0.4 -1,-1l0,-8.7c0,-0.5 0.4,-1 1,-1l11.2,0l0,-2.5c0,-2.4 -1.2,-3.5 -3.9,-3.5c-5.5,0 -5.5,1.7 -5.5,2.8l0,1c0,0.3 -0.2,0.6 -0.7,0.4l-1.6,-0.6c-0.3,-0.1 -0.3,-0.3 -0.3,-0.7l0,-0.2c0,-5.4 5.9,-5.4 8.1,-5.4c4.1,0 6.5,2.2 6.5,6.1l0,12.3Zm-7.4,-23c-8.3,0 -15,6.7 -15,15c0,8.3 6.7,15 15,15c8.3,0 15,-6.7 15,-15c0,-8.3 -6.7,-15 -15,-15Zm4.3,16l-8.6,0c-0.3,0 -0.5,0.2 -0.5,0.5l0,4.4c0,0.3 0.2,0.5 0.5,0.5l8.6,0c0.3,0 0.5,-0.2 0.5,-0.5l0,-4.4c0,-0.3 -0.2,-0.5 -0.5,-0.5Z" fill="#fbb720"/><g fill="currentColor"><path d="M46.5 15.8l-2.1-5-2.1 5 4.2 0zm-3.6-9.1l3.1 0 6.6 15.6-3.6 0-1.4-3.5-6.5 0-1.4 3.5-3.5 0 6.7-15.6zM52.6 14.5c0-4.4 3.3-8 8.1-8 2.9 0 4.7 1 6.1 2.4l-2.2 2.5c-1.2-1.1-2.4-1.7-4-1.7-2.6 0-4.5 2.2-4.5 4.8 0 2.7 1.8 4.9 4.5 4.9 1.8 0 2.8-.7 4.1-1.8l2.2 2.2c-1.6 1.7-3.4 2.8-6.3 2.8-4.6-.1-8-3.6-8-8.1zM68.3 14.5c0-4.4 3.3-8 8.1-8 2.9 0 4.7 1 6.1 2.4l-2.2 2.5c-1.2-1.1-2.4-1.7-4-1.7-2.6 0-4.5 2.2-4.5 4.8 0 2.7 1.8 4.9 4.5 4.9 1.8 0 2.8-.7 4.1-1.8l2.2 2.2c-1.6 1.7-3.4 2.8-6.3 2.8-4.6-.1-8-3.6-8-8.1zM85.3 6.8l11.6 0 0 3-8.2 0 0 3.1 7.2 0 0 3-7.2 0 0 3.3 8.4 0 0 3-11.8 0 0-15.4zM99.5 20l2-2.4c1.4 1.1 2.8 1.9 4.6 1.9 1.4 0 2.2-.6 2.2-1.5 0-.9-.5-1.3-3.1-2-3.1-.8-5.1-1.7-5.1-4.7 0-2.8 2.3-4.7 5.4-4.7 2.3 0 4.2.7 5.7 2l-1.8 2.6c-1.4-.9-2.7-1.5-4-1.5-1.3 0-2 .6-2 1.3 0 1 .7 1.3 3.3 2 3.1.8 4.9 1.9 4.9 4.6 0 3.1-2.3 4.8-5.7 4.8-2.2 0-4.6-.8-6.4-2.4zM113.8 20l2-2.4c1.4 1.1 2.8 1.9 4.6 1.9 1.4 0 2.2-.6 2.2-1.5 0-.9-.5-1.3-3.1-2-3.1-.8-5.1-1.7-5.1-4.7 0-2.8 2.3-4.7 5.4-4.7 2.3 0 4.2.7 5.7 2l-1.8 2.6c-1.4-.9-2.7-1.5-4-1.5-1.3 0-2 .6-2 1.3 0 1 .7 1.3 3.3 2 3.1.8 4.9 1.9 4.9 4.6 0 3.1-2.3 4.8-5.7 4.8-2.2 0-4.5-.8-6.4-2.4zM134.4 6.8l3.2 0 7.2 9.5 0-9.5 3.4 0 0 15.4-2.9 0-7.5-9.8 0 9.8-3.4 0 0-15.4zM155.9 16.1l-6-9.3 4 0 3.7 6.2 3.8-6.2 3.8 0-5.9 9.3 0 6.1-3.4 0 0-6.1zM165 14.5c0-4.4 3.3-8 8.1-8 2.9 0 4.7 1 6.1 2.4l-2.2 2.5c-1.2-1.1-2.4-1.7-4-1.7-2.6 0-4.5 2.2-4.5 4.8 0 2.7 1.8 4.9 4.5 4.9 1.8 0 2.8-.7 4.1-1.8l2.2 2.2c-1.6 1.7-3.4 2.8-6.3 2.8-4.6-.1-8-3.6-8-8.1z"/><path d="M46.5 15.8l-2.1-5-2.1 5 4.2 0zm-3.6-9.1l3.1 0 6.6 15.6-3.6 0-1.4-3.5-6.5 0-1.4 3.5-3.5 0 6.7-15.6zM52.6 14.5c0-4.4 3.3-8 8.1-8 2.9 0 4.7 1 6.1 2.4l-2.2 2.5c-1.2-1.1-2.4-1.7-4-1.7-2.6 0-4.5 2.2-4.5 4.8 0 2.7 1.8 4.9 4.5 4.9 1.8 0 2.8-.7 4.1-1.8l2.2 2.2c-1.6 1.7-3.4 2.8-6.3 2.8-4.6-.1-8-3.6-8-8.1zM68.3 14.5c0-4.4 3.3-8 8.1-8 2.9 0 4.7 1 6.1 2.4l-2.2 2.5c-1.2-1.1-2.4-1.7-4-1.7-2.6 0-4.5 2.2-4.5 4.8 0 2.7 1.8 4.9 4.5 4.9 1.8 0 2.8-.7 4.1-1.8l2.2 2.2c-1.6 1.7-3.4 2.8-6.3 2.8-4.6-.1-8-3.6-8-8.1zM85.3 6.8l11.6 0 0 3-8.2 0 0 3.1 7.2 0 0 3-7.2 0 0 3.3 8.4 0 0 3-11.8 0 0-15.4zM99.5 20l2-2.4c1.4 1.1 2.8 1.9 4.6 1.9 1.4 0 2.2-.6 2.2-1.5 0-.9-.5-1.3-3.1-2-3.1-.8-5.1-1.7-5.1-4.7 0-2.8 2.3-4.7 5.4-4.7 2.3 0 4.2.7 5.7 2l-1.8 2.6c-1.4-.9-2.7-1.5-4-1.5-1.3 0-2 .6-2 1.3 0 1 .7 1.3 3.3 2 3.1.8 4.9 1.9 4.9 4.6 0 3.1-2.3 4.8-5.7 4.8-2.2 0-4.6-.8-6.4-2.4zM113.8 20l2-2.4c1.4 1.1 2.8 1.9 4.6 1.9 1.4 0 2.2-.6 2.2-1.5 0-.9-.5-1.3-3.1-2-3.1-.8-5.1-1.7-5.1-4.7 0-2.8 2.3-4.7 5.4-4.7 2.3 0 4.2.7 5.7 2l-1.8 2.6c-1.4-.9-2.7-1.5-4-1.5-1.3 0-2 .6-2 1.3 0 1 .7 1.3 3.3 2 3.1.8 4.9 1.9 4.9 4.6 0 3.1-2.3 4.8-5.7 4.8-2.2 0-4.5-.8-6.4-2.4zM134.4 6.8l3.2 0 7.2 9.5 0-9.5 3.4 0 0 15.4-2.9 0-7.5-9.8 0 9.8-3.4 0 0-15.4zM155.9 16.1l-6-9.3 4 0 3.7 6.2 3.8-6.2 3.8 0-5.9 9.3 0 6.1-3.4 0 0-6.1zM165 14.5c0-4.4 3.3-8 8.1-8 2.9 0 4.7 1 6.1 2.4l-2.2 2.5c-1.2-1.1-2.4-1.7-4-1.7-2.6 0-4.5 2.2-4.5 4.8 0 2.7 1.8 4.9 4.5 4.9 1.8 0 2.8-.7 4.1-1.8l2.2 2.2c-1.6 1.7-3.4 2.8-6.3 2.8-4.6-.1-8-3.6-8-8.1z"/></g></svg>