<svg xmlns="http://www.w3.org/2000/svg" width="500" height="500"><path d="M496.535 430.03L281.516 35.808c-3.175-5.786-7.562-10.36-13.169-13.717-5.595-3.361-11.664-5.042-18.196-5.042-6.533 0-12.602 1.685-18.2 5.042-5.598 3.357-9.987 7.932-13.159 13.717L3.766 430.03c-6.534 11.763-6.348 23.522.559 35.281 3.176 5.41 7.516 9.706 13.021 12.874 5.509 3.177 11.434 4.767 17.782 4.767h430.05c6.354 0 12.276-1.59 17.785-4.767 5.509-3.168 9.841-7.464 13.021-12.874 6.906-11.762 7.091-23.518.551-35.281zm-210.538-28.001c0 2.611-.891 4.805-2.656 6.576-1.773 1.774-3.874 2.656-6.303 2.656H223.28c-2.426 0-4.527-.882-6.299-2.656-1.774-1.775-2.66-3.965-2.66-6.576v-53.198c0-2.611.886-4.801 2.66-6.576 1.772-1.774 3.869-2.656 6.299-2.656h53.753c2.43 0 4.53.882 6.303 2.656 1.771 1.775 2.658 3.965 2.658 6.576v53.198h.003zm-.557-104.712c-.193 1.866-1.174 3.405-2.942 4.62-1.776 1.215-3.967 1.817-6.581 1.817h-51.799c-2.611 0-4.851-.605-6.719-1.817-1.869-1.219-2.8-2.754-2.8-4.626l-4.759-127.946c0-2.616.935-4.574 2.8-5.879 2.426-2.052 4.667-3.079 6.722-3.079h61.596c2.056 0 4.296 1.023 6.722 3.079 1.866 1.306 2.794 3.079 2.794 5.319l-5.034 128.512z"/></svg>