<svg viewBox="0 0 40 40" fill="none" xmlns="http://www.w3.org/2000/svg"><g fill="transparent"><circle cx="27.5" cy="17.5" r="8.5" fill="#fff" stroke="#000" stroke-width="2"/><circle cx="26" cy="33" r="3" fill="#fff" stroke="#000" stroke-width="2"/><path fill="#9425A8" d="M26 12h3v11h-3z"/><path fill="#9425A8" d="M26.179 16.944l1.142 2.774-4.389 1.808-1.142-2.774zM32.094 13.572l1.142 2.774-4.92 2.027-1.142-2.774z"/><path fill="#9425A8" d="M32.106 21.512l1.134-2.777-5.86-2.393-1.135 2.777z"/><path fill="#9425A8" d="M27.15 18.553l1.134-2.777-5.363-2.19-1.134 2.777z"/><path d="M5 4v8a5 5 0 005 5v0a5 5 0 005-5V4M10 17.3v9.114c0 2.54 2.698 4.17 4.947 2.991v0a6.755 6.755 0 017.702 1.002l.701.643" stroke="#000" stroke-width="2"/><circle cx="15" cy="4" r="2" fill="#000"/><circle cx="5" cy="4" r="2" fill="#000"/></g></svg>