<svg viewBox="0 0 40 40" fill="none" xmlns="http://www.w3.org/2000/svg"><g fill="transparent"><circle cx="19.5" cy="19.5" r="15.5" fill="#EDEDF0"/><path d="M11.75 32.923a15.499 15.499 0 1115.5-26.846l-15.5 26.846z" fill="#fff"/><path fill="#9425A8" d="M23.22 10.316L22.27 10 19 19.819l.949.316z"/><circle cx="19.5" cy="19.5" r="14.5" stroke="#000" stroke-width="2"/><path fill="#000" d="M27.173 13.82l.956 1.327-7.885 5.685-.956-1.326z"/><path fill="#000" d="M19.438 19.448l-.747 1.454L14 18.492l.747-1.454z"/><circle cx="19.526" cy="20.03" r="1.64" fill="#000"/><path fill-rule="evenodd" clip-rule="evenodd" d="M20 7v3h-1V7h1zM19 32v-3h1v3h-1zM32 20h-3v-1h3v1zM7 19h3v1H7v-1zM27.985 28.692l-2.121-2.12.707-.708 2.121 2.121-.707.707zM11.015 10.308l2.121 2.12-.707.708-2.121-2.121.707-.707zM10.308 27.985l2.12-2.121.708.707-2.121 2.121-.707-.707zM28.692 11.015l-2.12 2.121-.708-.707 2.121-2.121.707.707z" fill="#000"/></g></svg>