<svg viewBox="0 0 40 40" fill="none" xmlns="http://www.w3.org/2000/svg"><g fill="transparent"><path d="M15.055 37.19h5.76v-4.23c4.365-.855 7.425-3.735 7.425-8.19 0-4.185-2.385-6.66-6.795-7.74l-4.905-1.215c-1.395-.36-2.16-.945-2.16-2.16 0-1.35 1.215-2.25 3.06-2.25 2.025 0 3.24.99 3.825 2.34h6.66c-.675-3.78-3.015-6.57-7.11-7.515V2h-5.76v4.095c-4.545.765-7.56 3.87-7.56 8.19 0 4.635 2.97 6.615 6.66 7.515l4.455 1.035c1.845.45 2.7.99 2.7 2.385 0 1.485-1.305 2.385-3.195 2.385-2.07 0-3.51-.855-4.095-2.565H7c.72 4.275 3.69 7.02 8.055 7.875v4.275z" fill="#fff" stroke="#000" stroke-width="2"/><path fill="#9425A8" d="M25.8 20h8.4v10.059h-8.4z"/><path d="M30 39l-7.794-10.897h15.588L30 39z" fill="#9425A8"/></g></svg>