<svg viewBox="0 0 48 48" fill="none" xmlns="http://www.w3.org/2000/svg"><path d="M24 48C37.2548 48 48 37.2548 48 24C48 10.7452 37.2548 0 24 0C10.7452 0 0 10.7452 0 24C0 37.2548 10.7452 48 24 48Z"/><path d="M24 44C35.0457 44 44 35.0457 44 24C44 12.9543 35.0457 4 24 4C12.9543 4 4 12.9543 4 24C4 35.0457 12.9543 44 24 44Z" fill="currentColor"/><path d="M24.626 12.9863C23.6721 10.072 20.6933 8.75087 17.8958 9.15836 18.1786 11.9769 20.0341 14.5716 22.8866 14.9786 24.563 15.2177 25.1569 14.6079 24.626 12.9863ZM29.1721 16C26.8378 16 25.0174 16.4783 24.0713 17.913 23.1252 16.4783 21.3047 16 18.9704 16 5.14953 16 11.7721 38 20.287 38 22.1792 38 23.1252 37.0544 24.0713 37.0544 25.0174 37.0544 25.9635 38 27.8556 38 35.8973 38 42.993 16 29.1721 16Z" fill="#fff"/></svg>