<svg viewBox="0 0 48 48" fill="none" xmlns="http://www.w3.org/2000/svg"><path d="M24 48C37.2548 48 48 37.2548 48 24C48 10.7452 37.2548 0 24 0C10.7452 0 0 10.7452 0 24C0 37.2548 10.7452 48 24 48Z"/><path d="M24 44C35.0457 44 44 35.0457 44 24C44 12.9543 35.0457 4 24 4C12.9543 4 4 12.9543 4 24C4 35.0457 12.9543 44 24 44Z" fill="currentColor"/><path d="M23.5 32C27.6421 32 31 28.6421 31 24.5C31 20.3579 27.6421 17 23.5 17C19.3579 17 16 20.3579 16 24.5C16 28.6421 19.3579 32 23.5 32Z" fill="currentColor"/><rect x="10" y="15" width="28" height="18" rx="1" fill="#fff"/><circle cx="24" cy="24" r="8" fill="currentColor"/><path d="M21 27.1351C21 27.1351 22.3636 28 24.2727 28C25.3636 28 27 27.5676 27 26.2703C27 25.1892 26.0641 24.7101 24 23.8919C23.8405 23.8287 23.4545 23.6757 22.9091 23.4595C21.8182 23.027 21.5455 22.3784 21.5455 21.7297C21.5455 20.9496 22.3636 20 24.2727 20C25.5818 20 26.6364 20.5766 27 20.8649" stroke="#fff" stroke-width="1.5" fill="transparent"/><path d="M24 20 24 18M24 30 24 28" stroke="#fff" stroke-width="1.5"/></svg>