<svg viewBox="0 0 48 48" fill="none" xmlns="http://www.w3.org/2000/svg"><path d="M24 48C37.2548 48 48 37.2548 48 24C48 10.7452 37.2548 0 24 0C10.7452 0 0 10.7452 0 24C0 37.2548 10.7452 48 24 48Z"/><path d="M24 44C35.0457 44 44 35.0457 44 24C44 12.9543 35.0457 4 24 4C12.9543 4 4 12.9543 4 24C4 35.0457 12.9543 44 24 44Z" fill="currentColor"/><path d="M33 13H23V35H33V13Z" fill="#fff"/><path d="M27 27H25V29H27V27ZM27 31H25V33H27V31ZM31 27H29V29H31V27ZM31 31H29V33H31V31ZM27 23H25V25H27V23ZM31 23H29V25H31V23ZM27 19H25V21H27V19ZM31 19H29V21H31V19ZM27 15H25V17H27V15ZM31 15H29V17H31V15Z" fill="currentColor"/><path d="M24 35H12V26.9394L18 22.5L23.9241 26.8545L24 26.9394V35Z" fill="#fff"/><path d="M19 27 19 29 21 29 21 27 19 27ZM19 31 19 33 21 33 21 31 19 31ZM15 27 15 29 17 29 17 27 15 27ZM15 31 15 33 17 33 17 31 15 31Z" fill="currentColor"/><path fill="#fff" d="M22 12H34V13H22z"/></svg>