<svg viewBox="0 0 48 48" fill="none" xmlns="http://www.w3.org/2000/svg"><path d="M24 48C37.2548 48 48 37.2548 48 24C48 10.7452 37.2548 0 24 0C10.7452 0 0 10.7452 0 24C0 37.2548 10.7452 48 24 48Z"/><path d="M24 44C35.0457 44 44 35.0457 44 24C44 12.9543 35.0457 4 24 4C12.9543 4 4 12.9543 4 24C4 35.0457 12.9543 44 24 44Z" fill="currentColor"/><ellipse cx="21.5" cy="29" rx="10.5" ry="8" fill="#fff"/><circle cx="21.5" cy="15.5" r="6.5" fill="#fff"/><path d="M30.5 37.75C34.5041 37.75 37.75 34.5041 37.75 30.5C37.75 26.4959 34.5041 23.25 30.5 23.25C26.4959 23.25 23.25 26.4959 23.25 30.5C23.25 34.5041 26.4959 37.75 30.5 37.75Z" fill="currentColor" stroke="#fff" stroke-width="1.5"/><path d="M30.5178 30.7789H29.7678V31.1099L30.0123 31.3329L30.5178 30.7789ZM30.0123 31.3329L32.9945 34.054L34.0055 32.946L31.0233 30.2249L30.0123 31.3329ZM31.2678 30.7789V25.5H29.7678V30.7789H31.2678Z" fill="#fff"/></svg>