<svg viewBox="0 0 42 44" xmlns="http://www.w3.org/2000/svg"><g id="Page-1" stroke="none" stroke-width="1" fill="none" fill-rule="evenodd"><g id="icon-housing-v2" transform="translate(-4 -2)" fill-rule="nonzero"><path id="Rectangle" d="M0 0H48V48H0z"/><path id="Shape" fill="currentColor" d="M27 46 4 46 4 31.1685 15.5 23 26.8544 31.0124 27 31.1685z"/><path id="Shape" fill="#FFF" d="M10 39 10 43 14 43 14 39zM10 32 10 36 14 36 14 32zM17 39 17 43 21 43 21 39zM17 32 17 36 21 36 21 32z"/><path id="Shape" fill="currentColor" d="M44 4 25 4 25 46 44 46z"/><path id="Shape" fill="#FFF" d="M40 39 36 39 36 43 40 43zM33 39 29 39 29 43 33 43zM40 31 36 31 36 35 40 35zM33 31 29 31 29 35 33 35zM40 23 36 23 36 27 40 27zM33 23 29 23 29 27 33 27zM40 15 36 15 36 19 40 19zM33 15 29 15 29 19 33 19zM40 7 36 7 36 11 40 11zM33 7 29 7 29 11 33 11z"/><path id="Rectangle-path" fill="currentColor" d="M23 2H46V4H23z"/></g></g></svg>