<svg viewBox="0 0 40 40" fill="none" xmlns="http://www.w3.org/2000/svg">
<g fill="transparent">
<rect x="6" y="7" width="27" height="27" fill="white" stroke="black" stroke-width="2"/>
<rect x="9" y="18" width="3" height="3" fill="#EDEDF0"/>
<rect x="9" y="23" width="3" height="3" fill="#EDEDF0"/>
<rect x="9" y="28" width="3" height="3" fill="#EDEDF0"/>
<rect x="15" y="18" width="3" height="3" fill="#EDEDF0"/>
<rect x="15" y="23" width="3" height="3" fill="#EDEDF0"/>
<rect x="15" y="28" width="3" height="3" fill="#EDEDF0"/>
<rect x="21" y="18" width="3" height="3" fill="#EDEDF0"/>
<rect x="21" y="23" width="3" height="3" fill="#EDEDF0"/>
<rect x="21" y="28" width="3" height="3" fill="#EDEDF0"/>
<rect x="27" y="18" width="3" height="3" fill="#EDEDF0"/>
<rect x="27" y="23" width="3" height="3" fill="#EDEDF0"/>
<rect x="6" y="7" width="27" height="8" fill="#9425A8" stroke="black" stroke-width="2"/>
<rect x="28" y="3" width="2" height="8" fill="black"/>
<rect x="9" y="3" width="2" height="8" fill="black"/>
</g>
</svg>
