<svg viewBox="0 0 48 48" fill="none" xmlns="http://www.w3.org/2000/svg">
<rect x="2" y="10" width="44" height="28" rx="1" fill="currentColor"/>
<path d="M42 26H27V29H42V26Z" fill="#FFFFFF"/>
<path d="M42 19H27V22H42V19Z" fill="#FFFFFF"/>
<rect x="6" y="15" width="17" height="18" fill="#FFFFFF"/>
<path d="M7 33.0001C7 32.8412 7 32.5235 7 32.3647C7 28.5519 10.314 25.5334 14.5 25.5334C18.686 25.5334 22 28.5519 22 32.3647C22 32.5235 22 32.8412 22 33.0001" fill="currentColor"/>
<path d="M14.4999 26.0667C17.0147 26.0667 19.0534 24.037 19.0534 21.5333C19.0534 19.0296 17.0147 17 14.4999 17C11.985 17 9.94629 19.0296 9.94629 21.5333C9.94629 24.037 11.985 26.0667 14.4999 26.0667Z" fill="currentColor"/>
</svg>
