<svg><defs/><symbol id="icon-arrow-down" viewBox="0 0 444.8 444.8"><path fill="currentColor" d="M248.1 352L434 165.9c7.2-6.9 10.8-15.4 10.8-25.7 0-10.3-3.6-18.8-10.8-25.7l-21.4-21.7c-7-7-15.6-10.6-25.7-10.6-9.9 0-18.6 3.5-26 10.6L222.4 231.5 83.7 92.8c-7-7-15.6-10.6-25.7-10.6-9.9 0-18.6 3.5-26 10.6l-21.4 21.7c-7 7-10.6 15.6-10.6 25.7s3.5 18.7 10.6 25.7L196.4 352c7.4 7 16.1 10.6 26 10.6 10.1 0 18.7-3.5 25.7-10.6z"/></symbol><symbol id="icon-card-cash-expenses" viewBox="0 0 50 50"><circle cx="25" cy="25" r="25" fill="#118df0"/><circle cx="25" cy="25" r="23.7" fill="#fff"/><circle cx="25" cy="25" r="21.6" fill="#118df0"/><path d="M37.1,18.5l0,16.8c0,1.668 -1.348,3.047 -3.1,3.1l-18.1,0c-1.7,0 -3.1,-1.4 -3.1,-3.1l0,-20.6c0,-1.7 1.4,-3.1 3.1,-3.1l14.4,0l0,5.2c0,1 0.8,1.7 1.7,1.7l5.1,0Z" fill="#fff"/><path d="M37.1,18.5l-5.1,0c-0.9,0 -1.7,-0.7 -1.7,-1.7l0,-5.2l0.1,0l6.7,6.9Z" fill="#184e9e"/><path d="M27.4,21.9c-0.3,-0.3 -0.7,-0.5 -1,-0.7c-0.3,-0.1 -0.7,-0.2 -1.1,-0.2c-0.5,0 -0.9,0.1 -1.1,0.3c-0.3,0.2 -0.4,0.6 -0.4,1c0,0.3 0.1,0.6 0.4,0.8c0.2,0.2 0.5,0.4 0.9,0.6c0.4,0.2 0.8,0.4 1.2,0.5c0.4,0.2 0.8,0.4 1.2,0.7c0.4,0.3 0.7,0.6 0.9,0.9c0.2,0.4 0.4,0.8 0.4,1.4c0,0.8 -0.2,1.5 -0.7,2c-0.5,0.5 -1.2,0.9 -2.1,1l0,1.7l-1.4,0l0,-1.7c-0.5,-0.1 -1.1,-0.2 -1.6,-0.4c-0.6,-0.2 -1,-0.5 -1.4,-0.9l0.9,-1.3c0.4,0.3 0.8,0.6 1.3,0.7c0.4,0.2 0.9,0.3 1.4,0.3c0.6,0 1,-0.1 1.3,-0.4c0.3,-0.2 0.4,-0.6 0.4,-1.1c0,-0.4 -0.1,-0.7 -0.4,-0.9c-0.2,-0.2 -0.5,-0.5 -0.9,-0.7l-2.4,-1.2c-0.4,-0.2 -0.7,-0.5 -0.9,-0.9c-0.2,-0.3 -0.4,-0.8 -0.4,-1.3c0,-0.8 0.2,-1.4 0.7,-1.9c0.5,-0.5 1.1,-0.8 1.9,-1l0,-1.7l1.4,0l0,1.7c0.6,0.1 1.1,0.2 1.5,0.5c0.4,0.2 0.8,0.5 1.1,0.8l-1.1,1.4l0,0Z" fill="#118df0" fill-rule="nonzero"/></symbol><symbol id="icon-card-child-care" viewBox="0 0 50 50"><circle cx="25" cy="25" r="25" fill="#118df0"/><circle cx="25" cy="25" r="22.9" fill="none" stroke="#fff" stroke-width="2"/><g><path d="M28.3,40.2l-6.5,0c-4.1,0 -7.4,-3.3 -7.4,-7.4l0,-3.1c0,-4.1 3.3,-7.4 7.4,-7.4l6.5,0c4.1,0 7.4,3.3 7.4,7.4l0,3.1c0,4.1 -3.4,7.4 -7.4,7.4Z" fill="#fff" fill-rule="nonzero"/><g fill="#fff" fill-rule="nonzero"><path d="M13.4,23c1.8,0.3 3,1.9 2.7,3.6c-0.3,1.7 -2,2.8 -3.8,2.6c-1.8,-0.2 -3,-1.9 -2.7,-3.6c0.3,-1.8 2,-2.9 3.8,-2.6Z"/><path d="M20.1,24l-1.1,6.1l-6.7,-1l1.1,-6.1l6.7,1Z"/><g><path d="M36.6,23c-1.8,0.3 -3,1.9 -2.7,3.6c0.3,1.7 2,2.8 3.8,2.6c1.8,-0.3 3,-1.9 2.7,-3.6c-0.3,-1.8 -2,-2.9 -3.8,-2.6Z"/><path d="M29.9,24l1.1,6.1l6.7,-1l-1.1,-6.1l-6.7,1Z"/></g></g><ellipse cx="25" cy="18.1" rx="8.9" ry="8.3" fill="#fff"/><ellipse cx="19" cy="11.6" rx="3.3" ry="3.1" fill="#fff"/><ellipse cx="31" cy="11.6" rx="3.3" ry="3.1" fill="#fff"/><ellipse cx="21.5" cy="16.8" rx="1.4" ry="1.3" fill="#118df0"/><ellipse cx="28.5" cy="16.8" rx="1.4" ry="1.3" fill="#118df0"/><ellipse cx="24.9" cy="20" rx="1.5" ry=".8" fill="#184e9e"/><g fill="#184e9e" fill-rule="nonzero"><path d="M21.7 35.4c.9 2.7-.3 5.4-2.6 6.1-2.4.7-5.1-.9-6-3.5-.9-2.7.3-5.4 2.6-6.1 2.4-.7 5 .9 6 3.5zM28.3 35.4c-.9 2.7.3 5.4 2.6 6.1 2.4.7 5.1-.9 6-3.5.9-2.7-.3-5.4-2.6-6.1-2.4-.7-5.1.9-6 3.5z"/></g></g></symbol><symbol id="icon-card-city-id-card" viewBox="0 0 50 50"><circle cx="25" cy="25" r="25" fill="#118df0"/><circle cx="25" cy="25" r="23.7" fill="#fff"/><circle cx="25" cy="25" r="21.6" fill="#118df0"/><g><path d="M37.5,34.8l-25,0c-0.3,0 -0.6,-0.3 -0.6,-0.6l0,-18.6c0,-0.3 0.3,-0.6 0.6,-0.6l25,0c0.3,0 0.6,0.3 0.6,0.6l0,18.6c0,0.3 -0.3,0.6 -0.6,0.6Z" fill="#fff" fill-rule="nonzero"/><g fill="#118df0"><path d="M25.7 26.1H34.8V27.900000000000002H25.7zM25.7 21.8H34.8V23.6H25.7z"/></g><g fill="#118df0"><path d="M14.4,30c0,-0.1 0,-0.3 0,-0.4c0,-2.4 1.9,-4.3 4.3,-4.3c2.4,0 4.3,1.9 4.3,4.3c0,0.1 0,0.3 0,0.4" fill-rule="nonzero"/><circle cx="18.9" cy="22.7" r="2.9"/></g></g></symbol><symbol id="icon-card-education" viewBox="0 0 50 50"><circle cx="25" cy="24.6" r="25" fill="#118df0"/><circle cx="25" cy="24.6" r="23.7" fill="#fff"/><circle cx="25" cy="24.6" r="21.6" fill="#118df0"/><g><path fill="#184e9e" d="M11 21.7H11.9V33.2H11z"/><path d="M11.5,30.2l1.7,3l-3.4,0l1.7,-3Z" fill="#184e9e" fill-rule="nonzero"/><path d="M25,13.8l17,8.1l-17,8l-17,-8l17,-8.1Z" fill="#fff" fill-rule="nonzero"/><path d="M16.1,26.9l8.7,4.4c0.2,0.1 0.5,0.1 0.7,0l8.7,-4.4l0,6.9c-0.3,-0.2 -0.6,-0.3 -1,-0.4c-0.2,-0.1 -0.4,-0.1 -0.5,-0.2l-0.1,0c-0.1,0 -0.2,-0.1 -0.3,-0.1c-0.4,-0.1 -0.8,-0.2 -1.2,-0.3c-0.4,-0.1 -0.8,-0.1 -1.2,-0.2c-0.3,0 -0.6,-0.1 -0.9,-0.1c-0.6,-0.1 -1.2,-0.1 -1.9,-0.2l-1,0l-0.1,0l-2.8,0c-0.1,0 -0.1,0 -0.2,0c-0.2,0 -0.5,0 -0.7,0.1c-0.2,0 -0.3,0 -0.5,0c-0.4,0 -0.9,0.1 -1.3,0.1c-0.5,0.1 -1,0.2 -1.5,0.2c-0.1,0 -0.1,0 -0.2,0c-0.4,0.1 -0.7,0.1 -1,0.2c-0.1,0 -0.2,0.1 -0.3,0.1l-0.1,0c-0.1,0 -0.2,0.1 -0.3,0.1c-0.1,0 -0.1,0 -0.2,0.1c-0.4,0.1 -0.7,0.2 -1,0.4l0,-6.7l0.2,0Z" fill="#fff" fill-rule="nonzero"/><ellipse cx="24.9" cy="21.6" rx="1.4" ry=".7" fill="#118df0"/><path d="M25.2,32.1l1.3,0c0.8,0 1.6,0.1 2.3,0.2c0.2,0 0.4,0 0.6,0.1c0.1,0 0.1,0 0.2,0c0.1,0 0.3,0 0.4,0.1c0.2,0 0.4,0.1 0.6,0.1c0.3,0 0.5,0.1 0.7,0.1c0.1,0 0.2,0 0.3,0.1l0.1,0c0.8,0.2 1.4,0.4 1.9,0.6c0.3,0.2 0.5,0.3 0.5,0.4c0,0 -0.1,0.1 -0.3,0.2c-0.4,0.2 -1.1,0.5 -1.9,0.7c-1.7,0.4 -4.2,0.7 -6.9,0.7c-2.7,0 -5.1,-0.3 -6.8,-0.7c-0.9,-0.2 -1.5,-0.5 -1.9,-0.7c-0.2,-0.1 -0.3,-0.2 -0.3,-0.2c0.1,0 0.2,-0.2 0.6,-0.4c0.4,-0.2 0.9,-0.4 1.5,-0.5c0.1,0 0.2,0 0.2,-0.1c0.4,-0.1 0.9,-0.2 1.4,-0.3c0.2,0 0.4,-0.1 0.6,-0.1c0.1,0 0.3,0 0.4,-0.1c0.1,0 0.1,0 0.2,0c0.2,0 0.4,0 0.6,-0.1c0.2,0 0.5,0 0.7,-0.1c0.4,0 0.7,-0.1 1.1,-0.1c0.3,0 0.5,0 0.8,0c0.5,0.1 0.8,0.1 1.1,0.1Z" fill="#fff" fill-rule="nonzero"/></g></symbol><symbol id="icon-card-enrichment" viewBox="0 0 50 50"><circle cx="25" cy="25" r="25" fill="#118df0"/><circle cx="25" cy="25" r="22.9" fill="none" stroke="#fff" stroke-width="2"/><g><g fill="#fff" fill-rule="nonzero"><path d="M25.6 8.8l4.3 7.5-8.7 0 4.4-7.5zM25.3 41.8l-4.4-7.4 8.7 0-4.3 7.4zM9.1 25.4l7.5-4.3 0 8.6-7.5-4.3zM42.2 25.4l-7.6 4.3 0-8.6 7.6 4.3z"/><path d="M13.9 13.7l8.3 2.2-6.1 6.1-2.2-8.3zM37.2 37l-8.3-2.2 6.1-6.1 2.2 8.3zM13.6 37.1l2.3-8.4 6.1 6.1-8.4 2.3zM37.3 13.7l-2.2 8.3-6.1-6.1 8.3-2.2z"/></g><circle cx="25.3" cy="25.3" r="10.6" fill="#118df0"/><circle cx="25.3" cy="25.3" r="9.5" fill="#fff"/></g></symbol><symbol id="icon-card-expenses" viewBox="0 0 50 50"><circle cx="25" cy="25" r="25" fill="#118df0"/><circle cx="25" cy="25" r="23.7" fill="#fff"/><circle cx="25" cy="25" r="21.6" fill="#118df0"/><g fill-rule="nonzero"><path d="M32.1,21c-0.9,0 -3.1,-1.5 -3.1,-2.3l0,-5.7l-13.3,0c-1.9,0 -3.7,1.5 -3.7,3.3l0,19.5c0,1.8 1.8,3.1 3.7,3.1l18.2,0c1.9,0 3.1,-1.3 3.1,-3.1l0,-14.8l-4.9,0Z" fill="#fff"/><path d="M29,18.7c0,1.2 1.4,2.3 2.9,2.3l5.1,0l-8,-8l0,5.7Z" fill="#184e9e"/><path d="M27.2,23.1c-0.3,-0.3 -0.7,-0.5 -1,-0.6c-0.3,-0.1 -0.7,-0.2 -1.2,-0.2c-0.5,0 -0.9,0.1 -1.2,0.3c-0.3,0.2 -0.4,0.5 -0.4,1c0,0.3 0.1,0.6 0.4,0.8c0.2,0.2 0.6,0.4 0.9,0.6c0.4,0.2 0.8,0.4 1.2,0.5c0.4,0.2 0.8,0.4 1.2,0.6c0.4,0.3 0.7,0.6 0.9,0.9c0.2,0.4 0.4,0.8 0.4,1.4c0,0.8 -0.2,1.4 -0.7,2c-0.5,0.5 -1.2,0.9 -2.1,1l0,1.7l-1.5,0l0,-1.6c-0.6,-0.1 -1.1,-0.2 -1.7,-0.4c-0.6,-0.2 -1.1,-0.5 -1.5,-0.8l1,-1.3c0.4,0.3 0.9,0.6 1.3,0.7c0.4,0.2 0.9,0.3 1.4,0.3c0.6,0 1.1,-0.1 1.4,-0.4c0.3,-0.2 0.4,-0.6 0.4,-1c0,-0.4 -0.1,-0.7 -0.4,-0.9c-0.2,-0.2 -0.6,-0.5 -0.9,-0.7l-2.4,-1.2c-0.4,-0.2 -0.7,-0.5 -0.9,-0.9c-0.2,-0.3 -0.4,-0.8 -0.4,-1.3c0,-0.8 0.2,-1.4 0.7,-1.9c0.5,-0.5 1.2,-0.8 2,-1l0,-1.7l1.5,0l0,1.6c0.6,0.1 1.1,0.2 1.5,0.5c0.4,0.2 0.8,0.5 1.2,0.8l-1.1,1.2Z" fill="#118df0"/></g></symbol><symbol id="icon-card-family-services" viewBox="0 0 50 50"><circle cx="25" cy="25" r="25" fill="#118df0"/><circle cx="25" cy="25" r="22.9" fill="none" stroke="#fff" stroke-width="2"/><g><path d="M12.5,38.2c0,-0.4 -0.1,-0.8 -0.1,-1.2c0,-6.8 5.5,-12.3 12.3,-12.3c6.8,0 12.3,5.5 12.3,12.3c0,0.4 0,0.8 -0.1,1.2" fill="#fff" fill-rule="nonzero"/><g fill="#118df0"><circle cx="24.5" cy="29.9" r="3.6"/><path d="M19.6,38.2c0,-2.9 2.3,-5.2 5.2,-5.2c2.9,0 5.2,2.3 5.2,5.2" fill-rule="nonzero"/></g><circle cx="24.4" cy="18.9" r="7.3" fill="#fff"/></g></symbol><symbol id="icon-card-food" viewBox="0 0 50 50"><circle cx="25" cy="25" r="25" fill="#118df0"/><circle cx="25" cy="25" r="23.7" fill="#fff"/><circle cx="25" cy="25" r="21.6" fill="#118df0"/><g fill="#fff" fill-rule="nonzero"><path d="M26.6,13.3c-1.6,-3.1 -5.3,-4.1 -8.5,-3.2c0.8,3.1 3.4,5.7 6.8,5.7c-1.1,1.1 -1.1,2.1 -0.1,3c0.9,-2.2 3.1,-4.7 5.1,-6c-0.4,-0.6 -0.9,-1.1 -1.3,-1.7c-0.6,0.7 -1.3,1.4 -2,2.2Z"/><path d="M30.7,15.1c-2.7,0 -4.9,1.4 -5.9,3.6c-1,-2.2 -3.2,-3.6 -5.9,-3.6c-13.9,0 -8.8,26.7 3.6,25c1.1,-0.1 1.8,-0.5 2.3,-1c0.5,0.5 1.2,0.9 2.3,1c12.4,1.7 17.5,-25 3.6,-25Zm-12.7,4.8c-2.3,1 -3.4,3.6 -2.5,6c0.2,0.5 0,1 -0.5,1.2c-0.1,0 -0.2,0.1 -0.3,0.1c-0.3,0 -0.7,-0.2 -0.8,-0.5c-1.3,-3.2 0.2,-7 3.4,-8.3c0.5,-0.2 1,0 1.2,0.5c0.2,0.3 0,0.8 -0.5,1Z"/></g></symbol><symbol id="icon-card-health" viewBox="0 0 50 50"><circle cx="25" cy="25" r="25" fill="#118df0"/><circle cx="25" cy="25" r="23.7" fill="#fff"/><circle cx="25" cy="25" r="21.6" fill="#118df0"/><g fill="#fff" fill-rule="nonzero"><path d="M19.4,23l3.5,3.5l8,-8l8,8c1,-1.7 1.5,-3.5 1.5,-5.3c0,-4.8 -3.7,-8.5 -8.5,-8.5c-2.7,0 -5.3,1.3 -7,3.2c-1.7,-2 -4.3,-3.2 -7,-3.2c-4.8,0 -8.5,3.7 -8.5,8.5c0,2.9 1.3,5.5 3.5,8.2l6.5,-6.4Z"/><path d="M31,21.1l-8,8l-3.5,-3.5l-5.3,5.3c2.2,2.5 5.1,5.1 8.6,8.2l2.2,2l2.2,-2c4.7,-4.3 8.5,-7.7 10.8,-11l-7,-7Z"/></g></symbol><symbol id="icon-card-housing" viewBox="0 0 50 50"><circle cx="25" cy="25" r="25" fill="#118df0"/><circle cx="25" cy="25" r="22.9" fill="none" stroke="#fff" stroke-width="2"/><g><path fill="#fff" d="M24.9 11.1H36.8V36.8H24.9z"/><path fill="#118df0" d="M29.5 30.5H32.1V33.1H29.5zM29.5 25.4H32.1V28H29.5zM29.5 20.3H32.1V22.900000000000002H29.5zM29.5 15.2H32.1V17.8H29.5z"/><path d="M27.1,36.8l-15.8,0l0,-9.5l7.9,-7l7.8,6.9l0.1,0.1l0,9.5Z" fill="#fff" fill-rule="nonzero"/><path fill="#118df0" d="M17.9 30.5H20.5V33.1H17.9zM17.9 25.4H20.5V28H17.9z"/></g></symbol><symbol id="icon-card-people-with-disabilities" viewBox="0 0 50 50"><circle cx="25" cy="25" r="25" fill="#118df0"/><circle cx="25" cy="25" r="23.7" fill="#fff"/><circle cx="25" cy="25" r="21.6" fill="#118df0"/><g fill="#fff" fill-rule="nonzero"><path d="M25.4 9.5l5.8 4.5 6.9-2.2-2.5 6.9 4.3 5.9-7.4-.2-4.3 5.8-2-7-6.9-2.3 6-4.1.1-7.3zM14.7 25.4l4.1 3.2 5-1.5-1.8 4.9 3.1 4.3-5.3-.2-3.1 4.3-1.5-5.1-5-1.7 4.4-2.9.1-5.3z"/></g></symbol><symbol id="icon-card-work" viewBox="0 0 50 50"><circle cx="25" cy="25" r="25" fill="#118df0"/><circle cx="25" cy="25" r="22.9" fill="none" stroke="#fff" stroke-width="2"/><g><g fill="#fff"><path d="M9.4,36.5c0,-0.4 -0.1,-0.8 -0.1,-1.2c0,-6.6 5.4,-12 12,-12c6.6,0 12,5.4 12,12c0,0.4 0,0.8 -0.1,1.2" fill-rule="nonzero"/><circle cx="21.4" cy="16.4" r="8.2"/></g><circle cx="30.7" cy="31.8" r="10" fill="#184e9e"/><path d="M30.6,32.4c-0.4,0 -0.7,-0.3 -0.7,-0.6l0,-7c0,-0.4 0.3,-0.6 0.6,-0.6l0.1,0c0.4,0 0.6,0.3 0.6,0.6l0,7c0,0.3 -0.3,0.6 -0.6,0.6Z" fill="#fff" fill-rule="nonzero"/><path d="M34.5,35.5l-0.2,0.2c-0.2,0.2 -0.6,0.2 -0.8,0l-3.5,-3.5c-0.2,-0.2 -0.2,-0.6 0,-0.8l0.2,-0.2c0.2,-0.2 0.6,-0.2 0.8,0l3.5,3.5c0.2,0.2 0.2,0.6 0,0.8Z" fill="#fff" fill-rule="nonzero"/></g></symbol><symbol id="icon-cash-expenses" viewBox="0 0 20 20"><g fill-rule="nonzero"><path d="M15.55,6c-0.7,0 -2.1,-1.1 -2.1,-1.8l0,-4.2l-10.2,0c-1.5,0 -2.8,1.1 -2.8,2.5l0,14.6c0,1.4 1.3,2.9 2.8,2.9l13.7,0c1.4,0 2.6,-1.5 2.6,-2.8l0,-11.2l-4,0Z" fill="#118df0"/><path d="M13.45,4.3c0,0.8 0.8,1.7 2,1.7l4,0l-6,-6l0,4.3Z" fill="#184e9e"/><path d="M11.85,7.5c-0.3,-0.2 -0.5,-0.4 -0.8,-0.5c-0.3,-0.1 -0.5,-0.2 -0.9,-0.2c-0.3,0.1 -0.6,0.2 -0.8,0.3c-0.2,0.2 -0.3,0.5 -0.3,0.8c0,0.2 0.1,0.4 0.3,0.6c0.2,0.2 0.4,0.3 0.7,0.4c0.3,0.1 0.6,0.3 0.9,0.4c0.3,0.1 0.6,0.3 0.9,0.5c0.3,0.2 0.5,0.4 0.7,0.7c0.2,0.3 0.3,0.6 0.3,1c0,0.6 -0.2,1.1 -0.6,1.5c-0.4,0.4 -0.9,0.7 -1.6,0.8l0,1.3l-1.1,0l0,-1.2c-0.4,0 -0.9,-0.1 -1.3,-0.3c-0.4,-0.2 -0.8,-0.4 -1.1,-0.6l0.7,-1c0.3,0.2 0.7,0.4 1,0.6c0.3,0.1 0.7,0.2 1.1,0.2c0.5,0 0.8,-0.1 1,-0.3c0.2,-0.2 0.3,-0.4 0.3,-0.8c0,-0.3 -0.1,-0.5 -0.3,-0.7c-0.2,-0.2 -0.4,-0.3 -0.7,-0.5c-0.3,-0.1 -0.6,-0.3 -0.9,-0.4c-0.3,-0.2 -0.6,-0.4 -0.9,-0.5c-0.3,-0.2 -0.5,-0.4 -0.7,-0.7c-0.2,-0.3 -0.3,-0.6 -0.3,-1c0,-0.6 0.2,-1.1 0.6,-1.4c0.4,-0.4 0.9,-0.6 1.5,-0.7l0,-1.3l1.1,0l0,1.2c0.4,0 0.8,0.2 1.2,0.3c0.3,0.2 0.6,0.4 0.9,0.6l-0.9,0.9Z" fill="#fff"/></g></symbol><symbol id="icon-checkmark-white" viewBox="0 0 216 146"><path fill="#FFF" d="M168.86 37.966l-11.08-11.08c-1.52-1.52-3.367-2.28-5.54-2.28-2.172 0-4.02.76-5.54 2.28L93.254 80.414 69.3 56.38c-1.52-1.522-3.367-2.282-5.54-2.282-2.172 0-4.02.76-5.54 2.28L47.14 67.46c-1.52 1.522-2.28 3.37-2.28 5.542 0 2.172.76 4.02 2.28 5.54l29.493 29.493 11.08 11.08c1.52 1.52 3.368 2.28 5.54 2.28 2.173 0 4.02-.76 5.54-2.28l11.082-11.08L168.86 49.05c1.52-1.52 2.283-3.37 2.283-5.54 0-2.174-.76-4.02-2.28-5.54z"/></symbol><symbol id="icon-checkmark" viewBox="0 0 216 146"><path fill="currentColor" d="M168.86 37.966l-11.08-11.08c-1.52-1.52-3.367-2.28-5.54-2.28-2.172 0-4.02.76-5.54 2.28L93.254 80.414 69.3 56.38c-1.52-1.522-3.367-2.282-5.54-2.282-2.172 0-4.02.76-5.54 2.28L47.14 67.46c-1.52 1.522-2.28 3.37-2.28 5.542 0 2.172.76 4.02 2.28 5.54l29.493 29.493 11.08 11.08c1.52 1.52 3.368 2.28 5.54 2.28 2.173 0 4.02-.76 5.54-2.28l11.082-11.08L168.86 49.05c1.52-1.52 2.283-3.37 2.283-5.54 0-2.174-.76-4.02-2.28-5.54z"/></symbol><symbol id="icon-child-care" viewBox="0 0 20 21"><path d="M16.5,14.6c0,2.5 -2.1,4.6 -4.6,4.6l-3.9,0c-2.5,0 -4.6,-2.1 -4.6,-4.6l0,-1.9c0,-2.5 2.1,-4.6 4.6,-4.6l3.9,0c2.5,0 4.6,2.1 4.6,4.6l0,1.9Z" fill="#118df0" fill-rule="nonzero"/><g fill="#118df0" fill-rule="nonzero"><path d="M2.8,8.9c1.1,0.2 1.9,1.2 1.7,2.2c-0.2,1 -1.2,1.8 -2.4,1.6c-1.1,-0.2 -1.9,-1.2 -1.7,-2.2c0.2,-1 1.3,-1.8 2.4,-1.6Z"/><path d="M6.9,9.5l-0.7,3.8l-4.1,-0.6l0.7,-3.8l4.1,0.6Z"/><g><path d="M17.1,8.9c-1.1,0.2 -1.9,1.2 -1.7,2.2c0.2,1 1.2,1.8 2.4,1.6c1.1,-0.2 1.9,-1.2 1.7,-2.2c-0.2,-1 -1.3,-1.8 -2.4,-1.6Z"/><path d="M13,9.5l0.7,3.8l4.1,-0.6l-0.7,-3.8l-4.1,0.6Z"/></g></g><ellipse cx="9.9" cy="5.9" rx="5.5" ry="5.1" fill="#118df0"/><ellipse cx="6.2" cy="1.9" rx="2" ry="1.9" fill="#118df0"/><ellipse cx="13.6" cy="1.9" rx="2" ry="1.9" fill="#118df0"/><circle cx="7.8" cy="5.1" r=".8" fill="#fff"/><circle cx="12.1" cy="5.1" r=".8" fill="#fff"/><ellipse cx="9.9" cy="7.1" rx=".9" ry=".5" fill="#184e9e"/><g fill="#184e9e" fill-rule="nonzero"><path d="M7.9 16.6c.6 1.6-.2 3.3-1.6 3.8-1.5.4-3.1-.5-3.7-2.2-.6-1.7.2-3.3 1.6-3.8 1.4-.5 3.1.6 3.7 2.2zM12 16.6c-.6 1.6.2 3.3 1.6 3.8 1.5.4 3.1-.5 3.7-2.2.6-1.7-.2-3.3-1.6-3.8-1.4-.5-3.1.6-3.7 2.2z"/></g></symbol><symbol id="icon-city-id-card" viewBox="0 0 20 17"><path d="M20,15.6c0,0.2 -0.2,0.4 -0.4,0.4l-19.2,0c-0.2,0 -0.4,-0.2 -0.4,-0.4l0,-14.1c0,-0.3 0.2,-0.5 0.4,-0.5l19.1,0c0.3,0 0.5,0.2 0.5,0.5l0,14.1Z" fill="#118df0" fill-rule="nonzero"/><g fill="#fff"><path d="M10 9H17V11H10zM10 6H17V8H10z"/></g><g fill="#fff"><path d="M1.8,12.4c0,-0.1 0,-0.2 0,-0.3c0,-1.8 1.4,-3.2 3.2,-3.2c1.8,0 3.2,1.4 3.2,3.2c0,0.1 0,0.2 0,0.3" fill-rule="nonzero"/><circle cx="5" cy="7" r="2.2"/></g></symbol><symbol id="icon-close" viewBox="0 0 20 20"><path fill="currentColor" d="M9.9,13.7l-6.1,6.1l-3.6,-3.6l6.1,-6.1l-6.3,-6.4l3.7,-3.7l6.3,6.3l6.1,-6.1l3.6,3.6l-6.1,6.1l6.3,6.3l-3.6,3.8l-6.4,-6.3Z"/></symbol><symbol id="icon-contact" viewBox="0 0 22.2 20"><path d="M13.5,4.7c-4.8,0-8.7,3.4-8.7,7.6S8.6,20,13.5,20c1.7,0,3.4-0.4,4.7-1.2c1.2,0.7,2.6,0.7,3.3,0.6 c0.2,0,0.3-0.3,0.1-0.4c-0.7-0.5-1.1-1.2-1.4-1.8c1.2-1.3,1.9-3,1.9-4.8C22.2,8.1,18.3,4.7,13.5,4.7z M14.1,15.5 c0,0.2-0.2,0.4-0.4,0.4h-0.9c-0.2,0-0.4-0.2-0.4-0.4v-0.6c0-0.2,0.2-0.4,0.4-0.4h0.9c0.2,0,0.4,0.2,0.4,0.4V15.5z M15.4,12.1 c-0.2,0.3-0.5,0.6-0.9,0.8c-0.2,0.1-0.3,0.3-0.4,0.4c0,0.1-0.1,0.2-0.1,0.4c0,0.1-0.1,0.2-0.2,0.2h-1.1c-0.1,0-0.3-0.1-0.2-0.3 c0-0.3,0.1-0.5,0.2-0.7c0.1-0.2,0.4-0.5,0.8-0.7c0.2-0.1,0.4-0.3,0.5-0.5c0.1-0.2,0.2-0.4,0.2-0.7c0-0.3-0.1-0.5-0.2-0.6 c-0.1-0.2-0.3-0.2-0.6-0.2c-0.2,0-0.4,0.1-0.5,0.2c-0.1,0.1-0.1,0.2-0.2,0.3c0,0.2-0.2,0.3-0.4,0.3l-1,0c-0.1,0-0.2-0.1-0.2-0.2 c0-0.5,0.2-0.9,0.6-1.2c0.4-0.3,1-0.5,1.7-0.5c0.7,0,1.3,0.2,1.7,0.6c0.4,0.4,0.6,0.9,0.6,1.5C15.8,11.4,15.7,11.8,15.4,12.1z M1.6,10.3C0.6,9.2,0,7.8,0,6.3C0,2.8,3.2,0,7.2,0c2.7,0,5.1,1.3,6.3,3.2l0,0c-5.3,0-9.7,3.7-10.2,8.4l0,0c-1,0.6-2.1,0.6-2.7,0.5 c-0.2,0-0.2-0.3-0.1-0.4C1.1,11.3,1.4,10.8,1.6,10.3z" fill="currentColor"/></symbol><symbol id="icon-education" viewBox="0 0 20 17"><path fill="#184e9e" d="M1.9 7H2.4V13.7H1.9z"/><path d="M2.2,12l1,1.7l-2.1,0l1.1,-1.7Z" fill="#184e9e" fill-rule="nonzero"/><path d="M10,2.4l10,4.7l-9.9,4.7l-10,-4.7l9.9,-4.7Z" fill="#118df0" fill-rule="nonzero"/><ellipse cx="10" cy="6.9" rx=".8" ry=".4" fill="#fff"/><path d="M15.5,14.087c0,0.497 -2.375,0.9 -5.3,0.9c-2.925,0 -5.3,-0.403 -5.3,-0.9l0,-4.087l5.1,2.6c0.1,0.1 0.3,0.1 0.4,0l5.1,-2.6l0,4.087Z" fill="#118df0"/></symbol><symbol id="icon-eligibilitycheck" viewBox="0 0 25 21"><path fill="currentColor" d="M9,20.1l-8.9,-8.9c-0.2,-0.2 -0.2,-0.4 0,-0.6l4.1,-4.1c0.2,-0.2 0.4,-0.2 0.6,0l4.2,4.1c0.2,0.2 0.4,0.2 0.6,0l10.5,-10.5c0.2,-0.2 0.4,-0.2 0.6,0l4.1,4.1c0.2,0.2 0.2,0.4 0,0.6l-15.2,15.3c-0.1,0.2 -0.4,0.2 -0.6,0Z"/></symbol><symbol id="icon-enrichment" viewBox="0 0 20 21"><g fill="#184e9e" fill-rule="nonzero"><path d="M9.7.3l2.6 4.5-5.2 0 2.6-4.5zM9.7 20.2l-2.6-4.4 5.2 0-2.6 4.4zM0 10.6l4.5-2.6 0 5.2-4.5-2.6zM20 10.6l-4.5 2.6 0-5.2 4.5 2.6z"/><path d="M2.7 3.6l5 1.3-3.7 3.7-1.3-5zM16.7 17.6l-5.1-1.3 3.7-3.7 1.4 5zM2.7 17.6l1.4-5 3.6 3.7-5 1.3zM16.7 3.6l-1.3 5-3.7-3.6 5-1.4z"/></g><ellipse cx="9.7" cy="10.6" rx="6.4" ry="6.3" fill="#fff"/><circle cx="9.7" cy="10.6" r="5.7" fill="#118df0"/></symbol><symbol id="icon-family-services" viewBox="0 0 20 21"><path d="M0.7,20.5c0,-0.3 0,-0.6 0,-0.9c0,-5.2 4.2,-9.5 9.5,-9.5c5.3,0 9.5,4.2 9.5,9.5c0,0.3 0,0.6 0,0.9" fill="#118df0" fill-rule="nonzero"/><g fill="#eef3f7"><circle cx="10" cy="14" r="2.8"/><path d="M6.1,20.5c0,-2.2 1.8,-4 4,-4c2.2,0 4,1.8 4,4" fill-rule="nonzero"/></g><circle cx="9.9" cy="5.6" r="5.6" fill="#118df0"/></symbol><symbol id="icon-food" viewBox="0 0 20 21"><g fill-rule="nonzero"><path d="M11.2,2.5c-1.1,-2.1 -3.6,-2.7 -5.7,-2.1c0.5,2.1 2.3,3.8 4.6,3.8c-0.7,0.7 -0.8,1.4 -0.1,2c0.6,-1.5 2.1,-3.1 3.4,-4c-0.3,-0.4 -0.6,-0.7 -0.9,-1.1c-0.4,0.4 -0.9,0.9 -1.3,1.4Z" fill="#184e9e"/><path d="M13.9,3.7c-1.8,0 -3.3,0.9 -3.9,2.4c-0.7,-1.5 -2.1,-2.4 -3.9,-2.4c-9.3,0 -5.9,17.9 2.4,16.7c0.7,-0.1 1.2,-0.3 1.5,-0.7c0.3,0.3 0.8,0.6 1.5,0.7c8.3,1.2 11.7,-16.7 2.4,-16.7Zm-8.5,3.2c-1.6,0.6 -2.3,2.4 -1.6,4c0.1,0.3 0,0.7 -0.3,0.8c-0.1,0 -0.2,0 -0.2,0c-0.2,0 -0.5,-0.1 -0.6,-0.4c-0.9,-2.1 0.1,-4.6 2.3,-5.5c0.3,-0.1 0.7,0 0.8,0.3c0.1,0.3 -0.1,0.7 -0.4,0.8Z" fill="#118df0"/></g></symbol><symbol id="icon-gear" viewBox="0 0 25 25"><g fill-rule="nonzero"><path d="M12.5,23.988c-0.7,0 -1.3,-0.1 -2,-0.2c-6.2,-1.1 -10.4,-7.1 -9.3,-13.3c1.1,-6.2 7.1,-10.4 13.3,-9.3c6.2,1.1 10.4,7.1 9.3,13.3c-1,5.6 -5.8,9.5 -11.3,9.5Zm0,-22c-5,0 -9.4,3.6 -10.3,8.7c-1,5.7 2.8,11.1 8.5,12.1c5.7,1 11.1,-2.8 12.1,-8.5c1,-5.7 -2.8,-11.2 -8.5,-12.2c-0.6,0 -1.2,-0.1 -1.8,-0.1Z" fill="#fbb720"/><path d="M12.631,0.013c0.526,0.008 1.049,0.043 1.57,0.115c1.246,0.172 2.465,0.534 3.602,1.072c1.508,0.713 2.864,1.733 3.974,2.977c1.1,1.232 1.955,2.68 2.501,4.238c0.472,1.348 0.71,2.776 0.697,4.204c-0.024,2.495 -0.815,4.973 -2.238,7.022c-0.867,1.248 -1.963,2.333 -3.218,3.188c-0.996,0.678 -2.091,1.21 -3.24,1.575c-1.22,0.387 -2.501,0.586 -3.781,0.584c-0.546,-0.001 -1.088,-0.06 -1.628,-0.137c-0.409,-0.058 -0.41,-0.052 -0.702,-0.108c-0.824,-0.157 -1.632,-0.398 -2.407,-0.718c-1.407,-0.581 -2.702,-1.425 -3.806,-2.473c-1.125,-1.067 -2.051,-2.341 -2.717,-3.74c-0.631,-1.324 -1.028,-2.758 -1.162,-4.219c-0.105,-1.146 -0.047,-2.307 0.168,-3.438c0.206,-1.076 0.554,-2.125 1.035,-3.109c0.577,-1.182 1.344,-2.269 2.26,-3.212c1.046,-1.076 2.283,-1.964 3.637,-2.609c1.093,-0.52 2.261,-0.882 3.457,-1.068c0.559,-0.086 1.122,-0.13 1.687,-0.143c0.156,-0.002 0.156,-0.002 0.311,-0.001Zm-0.237,2.975c-0.315,0.005 -0.629,0.023 -0.942,0.058c-0.716,0.081 -1.423,0.245 -2.102,0.487c-1.729,0.617 -3.262,1.744 -4.371,3.207c-0.609,0.803 -1.089,1.702 -1.416,2.656c-0.321,0.934 -0.498,1.918 -0.52,2.906c-0.024,1.046 0.129,2.094 0.45,3.089c0.36,1.118 0.931,2.166 1.674,3.076c0.771,0.946 1.725,1.739 2.797,2.323c1.156,0.629 2.442,1.011 3.753,1.123c1.28,0.109 2.578,-0.045 3.795,-0.454c1.15,-0.386 2.221,-0.995 3.142,-1.784c0.869,-0.744 1.601,-1.646 2.148,-2.652c0.454,-0.834 0.78,-1.736 0.968,-2.667c0.212,-1.057 0.247,-2.147 0.098,-3.215c-0.155,-1.106 -0.506,-2.182 -1.03,-3.168c-0.773,-1.453 -1.919,-2.701 -3.308,-3.584c-0.693,-0.44 -1.444,-0.788 -2.228,-1.032c-0.346,-0.108 -0.698,-0.193 -1.054,-0.263l-0.043,-0.007c-0.098,-0.001 -0.195,-0.006 -0.293,-0.01c-0.375,-0.021 -0.749,-0.06 -1.125,-0.081c-0.131,-0.006 -0.262,-0.009 -0.393,-0.008Z" fill="#fbb720"/><path d="M19.7,12.388c-0.4,-0.1 -0.8,-0.2 -1.2,-0.2c0,-0.7 -0.2,-1.3 -0.4,-1.9c0.3,-0.2 0.6,-0.4 1,-0.7c0,0 0.1,0 0.1,-0.1c0.1,-0.1 0.2,-0.2 0.1,-0.4c-0.4,-0.6 -0.8,-1.2 -1.2,-1.7c-0.1,-0.1 -0.3,-0.2 -0.4,-0.1c-0.3,0.2 -0.7,0.5 -1,0.7c-0.5,-0.4 -1,-0.8 -1.6,-1c0.1,-0.4 0.1,-0.8 0.2,-1.2l0,-0.1c0,-0.1 -0.1,-0.3 -0.2,-0.3c-0.7,-0.1 -1.4,-0.2 -2.1,-0.4c-0.2,0 -0.4,0.1 -0.4,0.2c-0.1,0.4 -0.2,0.8 -0.2,1.2c-0.7,0 -1.3,0.2 -1.9,0.4c-0.5,-0.1 -0.7,-0.5 -1,-0.8c0,0 0,-0.1 -0.1,-0.1c0,-0.1 -0.2,-0.1 -0.3,0c-0.6,0.4 -1.2,0.8 -1.7,1.2c-0.2,0.1 -0.3,0.3 -0.1,0.4c0.2,0.3 0.5,0.7 0.7,1c-0.4,0.5 -0.8,1 -1,1.6c-0.4,0 -0.8,-0.1 -1.2,-0.1c-0.2,0 -0.4,0.1 -0.4,0.2c-0.1,0.7 -0.2,1.4 -0.4,2.1c0,0.2 0.1,0.4 0.2,0.4c0.4,0.1 0.8,0.2 1.2,0.2c0,0.7 0.2,1.3 0.4,1.9c-0.3,0.2 -0.6,0.5 -1,0.7c-0.1,0.1 -0.2,0.3 -0.1,0.4c0.5,0.5 0.9,1.1 1.3,1.7c0.1,0.1 0.3,0.2 0.4,0.1c0.3,-0.2 0.7,-0.5 1,-0.7c0.5,0.4 1.1,0.8 1.7,1.1c-0.1,0.4 -0.1,0.8 -0.2,1.2c0,0.2 0.1,0.4 0.2,0.4c0.7,0.1 1.4,0.2 2.1,0.4c0.2,0 0.4,-0.1 0.4,-0.2c0.1,-0.4 0.2,-0.8 0.2,-1.2c0.7,0 1.3,-0.2 1.9,-0.4c0.2,0.3 0.5,0.6 0.7,1c0.1,0.1 0.3,0.2 0.4,0.1c0.6,-0.4 1.2,-0.8 1.7,-1.2c0.1,-0.1 0.2,-0.3 0.1,-0.4c-0.2,-0.3 -0.5,-0.7 -0.7,-1c0.4,-0.5 0.8,-1 1.1,-1.6c0.4,0.1 0.8,0.1 1.2,0.2c0.2,0 0.4,-0.1 0.4,-0.2c0.1,-0.7 0.2,-1.4 0.4,-2.1l0,-0.1c0,-0.4 -0.1,-0.6 -0.3,-0.6Zm-7.8,3.3c-1.8,-0.3 -3,-2 -2.7,-3.8c0.3,-1.8 2,-3 3.9,-2.7c1.8,0.3 3,2 2.7,3.8c-0.3,1.9 -2.1,3.1 -3.9,2.7Z" fill="#112e51"/></g></symbol><symbol id="icon-health" viewBox="0 0 20 21"><g fill="#118df0" fill-rule="nonzero"><path d="M6.5,7.7l2.3,2.3l5.2,-5.2l5.1,5.1c0.6,-1.1 1,-2.2 1,-3.4c0,-3.1 -2.4,-5.5 -5.5,-5.5c-1.7,0 -3.4,0.8 -4.5,2.1c-1.1,-1.3 -2.7,-2.1 -4.5,-2.1c-3.1,0 -5.5,2.4 -5.5,5.5c0,1.8 0.8,3.5 2.2,5.3l4.2,-4.1Z"/><path d="M13.9,6.5l-5.1,5.1l-2.3,-2.3l-3.4,3.4c1.4,1.6 3.3,3.3 5.5,5.3l1.4,1.3l1.4,-1.3c3,-2.7 5.4,-4.9 6.9,-7.1l-4.4,-4.4Z"/></g></symbol><symbol id="icon-housing" viewBox="0 0 20 21"><path fill="#118df0" d="M10.7 0.2H20V20.2H10.7z"/><path fill="#fff" d="M14.3 15.3H16.3V17.3H14.3zM14.3 11.4H16.3V13.4H14.3zM14.3 7.4H16.3V9.4H14.3zM14.3 3.4H16.3V5.4H14.3z"/><path d="M12.4,20.3l-12.3,0l0,-7.4l6.1,-5.5l6.2,5.4l0,7.5Z" fill="#118df0" fill-rule="nonzero"/><path fill="#fff" d="M5.2 15.3H7.2V17.3H5.2zM5.2 11.4H7.2V13.4H5.2z"/></symbol><symbol id="icon-info"><path d="M29.8193559,7.95909344 C28.3902982,5.51080716 26.4515944,3.57229423 24.0032445,2.14323658 C21.5543221,0.714369781 18.880827,0 15.9816779,0 C13.0821471,0 10.4080795,0.714369781 7.95979324,2.14323658 C5.51125249,3.57203976 3.57273956,5.51055268 2.14355467,7.95909344 C0.714369781,10.4078887 0,13.0818926 0,15.9811054 C0,18.8803817 0.714560636,21.554004 2.14323658,24.0029264 C3.57267594,26.4509583 5.51118887,28.3897256 7.95953877,29.8187833 C10.4080795,31.247841 13.0818926,31.9620835 15.9814235,31.9620835 C18.8806998,31.9620835 21.5544493,31.2477773 24.0031173,29.8187833 C26.4512763,28.3899801 28.390171,26.4512763 29.8190378,24.0029264 C31.2476501,21.5543221 31.9621471,18.8801909 31.9621471,15.9811054 C31.9620835,13.0816382 31.2476501,10.407507 29.8193559,7.95909344 Z M13.3177893,3.99497416 C13.3177893,3.8006839 13.3801988,3.64132008 13.5050815,3.51650099 C13.6300278,3.39180915 13.7897097,3.32920875 13.9837455,3.32920875 L17.979165,3.32920875 C18.1737734,3.32920875 18.333328,3.39180915 18.4573201,3.51650099 C18.5820755,3.64132008 18.6448668,3.80074751 18.6448668,3.99497416 L18.6448668,7.32450099 C18.6448668,7.51872763 18.5820755,7.67834592 18.4573201,7.80297416 C18.3333917,7.92772962 18.1737734,7.99007555 17.979165,7.99007555 L13.9837455,7.99007555 C13.7896461,7.99007555 13.6299642,7.92772962 13.5050815,7.80297416 C13.3801988,7.67834592 13.3177893,7.51872763 13.3177893,7.32450099 L13.3177893,3.99497416 Z M21.3081829,25.9693042 C21.3081829,26.1634036 21.2455189,26.3231491 21.1214632,26.4473956 C20.9968986,26.5722783 20.8372803,26.634497 20.6428628,26.634497 L11.320493,26.634497 C11.1256938,26.634497 10.9665209,26.5722147 10.841829,26.4473956 C10.7168191,26.322831 10.6544732,26.1630855 10.6544732,25.9689861 L10.6544732,22.6394592 C10.6544732,22.4447873 10.7168191,22.2858052 10.841829,22.1608588 C10.9665209,22.0362942 11.1262028,21.9736302 11.320493,21.9736302 L13.3177893,21.9736302 L13.3177893,15.3149583 L11.320493,15.3149583 C11.1256938,15.3149583 10.9667117,15.2526123 10.841829,15.1278569 C10.7168191,15.0031014 10.6544732,14.8434831 10.6544732,14.6491292 L10.6544732,11.3199205 C10.6544732,11.1256302 10.7168191,10.9662028 10.841829,10.8412565 C10.9667117,10.7164374 11.1263936,10.6540915 11.320493,10.6540915 L17.9792286,10.6540915 C18.173837,10.6540915 18.3333917,10.7164374 18.4573837,10.8412565 C18.5821392,10.9662028 18.6449304,11.1256302 18.6449304,11.3199205 L18.6449304,21.9738847 L20.642163,21.9738847 C20.8367078,21.9738847 20.9962624,22.0364215 21.1206362,22.1611133 C21.2448827,22.2858688 21.3077376,22.4454871 21.3077376,22.6396501 L21.3081829,25.9693042 Z" fill="currentColor" fill-rule="nonzero"/></symbol><symbol id="icon-logo-full" viewBox="0 0 180 30"><path d="M22.4,23c0,0.5 -0.4,1 -1,1l-12.8,0c-0.5,0 -1,-0.4 -1,-1l0,-8.7c0,-0.5 0.4,-1 1,-1l11.2,0l0,-2.5c0,-2.4 -1.2,-3.5 -3.9,-3.5c-5.5,0 -5.5,1.7 -5.5,2.8l0,1c0,0.3 -0.2,0.6 -0.7,0.4l-1.6,-0.6c-0.3,-0.1 -0.3,-0.3 -0.3,-0.7l0,-0.2c0,-5.4 5.9,-5.4 8.1,-5.4c4.1,0 6.5,2.2 6.5,6.1l0,12.3Zm-7.4,-23c-8.3,0 -15,6.7 -15,15c0,8.3 6.7,15 15,15c8.3,0 15,-6.7 15,-15c0,-8.3 -6.7,-15 -15,-15Zm4.3,16l-8.6,0c-0.3,0 -0.5,0.2 -0.5,0.5l0,4.4c0,0.3 0.2,0.5 0.5,0.5l8.6,0c0.3,0 0.5,-0.2 0.5,-0.5l0,-4.4c0,-0.3 -0.2,-0.5 -0.5,-0.5Z" fill="#fbb720"/><g fill="currentColor"><path d="M46.5 15.8l-2.1-5-2.1 5 4.2 0zm-3.6-9.1l3.1 0 6.6 15.6-3.6 0-1.4-3.5-6.5 0-1.4 3.5-3.5 0 6.7-15.6zM52.6 14.5c0-4.4 3.3-8 8.1-8 2.9 0 4.7 1 6.1 2.4l-2.2 2.5c-1.2-1.1-2.4-1.7-4-1.7-2.6 0-4.5 2.2-4.5 4.8 0 2.7 1.8 4.9 4.5 4.9 1.8 0 2.8-.7 4.1-1.8l2.2 2.2c-1.6 1.7-3.4 2.8-6.3 2.8-4.6-.1-8-3.6-8-8.1zM68.3 14.5c0-4.4 3.3-8 8.1-8 2.9 0 4.7 1 6.1 2.4l-2.2 2.5c-1.2-1.1-2.4-1.7-4-1.7-2.6 0-4.5 2.2-4.5 4.8 0 2.7 1.8 4.9 4.5 4.9 1.8 0 2.8-.7 4.1-1.8l2.2 2.2c-1.6 1.7-3.4 2.8-6.3 2.8-4.6-.1-8-3.6-8-8.1zM85.3 6.8l11.6 0 0 3-8.2 0 0 3.1 7.2 0 0 3-7.2 0 0 3.3 8.4 0 0 3-11.8 0 0-15.4zM99.5 20l2-2.4c1.4 1.1 2.8 1.9 4.6 1.9 1.4 0 2.2-.6 2.2-1.5 0-.9-.5-1.3-3.1-2-3.1-.8-5.1-1.7-5.1-4.7 0-2.8 2.3-4.7 5.4-4.7 2.3 0 4.2.7 5.7 2l-1.8 2.6c-1.4-.9-2.7-1.5-4-1.5-1.3 0-2 .6-2 1.3 0 1 .7 1.3 3.3 2 3.1.8 4.9 1.9 4.9 4.6 0 3.1-2.3 4.8-5.7 4.8-2.2 0-4.6-.8-6.4-2.4zM113.8 20l2-2.4c1.4 1.1 2.8 1.9 4.6 1.9 1.4 0 2.2-.6 2.2-1.5 0-.9-.5-1.3-3.1-2-3.1-.8-5.1-1.7-5.1-4.7 0-2.8 2.3-4.7 5.4-4.7 2.3 0 4.2.7 5.7 2l-1.8 2.6c-1.4-.9-2.7-1.5-4-1.5-1.3 0-2 .6-2 1.3 0 1 .7 1.3 3.3 2 3.1.8 4.9 1.9 4.9 4.6 0 3.1-2.3 4.8-5.7 4.8-2.2 0-4.5-.8-6.4-2.4zM134.4 6.8l3.2 0 7.2 9.5 0-9.5 3.4 0 0 15.4-2.9 0-7.5-9.8 0 9.8-3.4 0 0-15.4zM155.9 16.1l-6-9.3 4 0 3.7 6.2 3.8-6.2 3.8 0-5.9 9.3 0 6.1-3.4 0 0-6.1zM165 14.5c0-4.4 3.3-8 8.1-8 2.9 0 4.7 1 6.1 2.4l-2.2 2.5c-1.2-1.1-2.4-1.7-4-1.7-2.6 0-4.5 2.2-4.5 4.8 0 2.7 1.8 4.9 4.5 4.9 1.8 0 2.8-.7 4.1-1.8l2.2 2.2c-1.6 1.7-3.4 2.8-6.3 2.8-4.6-.1-8-3.6-8-8.1z"/><path d="M46.5 15.8l-2.1-5-2.1 5 4.2 0zm-3.6-9.1l3.1 0 6.6 15.6-3.6 0-1.4-3.5-6.5 0-1.4 3.5-3.5 0 6.7-15.6zM52.6 14.5c0-4.4 3.3-8 8.1-8 2.9 0 4.7 1 6.1 2.4l-2.2 2.5c-1.2-1.1-2.4-1.7-4-1.7-2.6 0-4.5 2.2-4.5 4.8 0 2.7 1.8 4.9 4.5 4.9 1.8 0 2.8-.7 4.1-1.8l2.2 2.2c-1.6 1.7-3.4 2.8-6.3 2.8-4.6-.1-8-3.6-8-8.1zM68.3 14.5c0-4.4 3.3-8 8.1-8 2.9 0 4.7 1 6.1 2.4l-2.2 2.5c-1.2-1.1-2.4-1.7-4-1.7-2.6 0-4.5 2.2-4.5 4.8 0 2.7 1.8 4.9 4.5 4.9 1.8 0 2.8-.7 4.1-1.8l2.2 2.2c-1.6 1.7-3.4 2.8-6.3 2.8-4.6-.1-8-3.6-8-8.1zM85.3 6.8l11.6 0 0 3-8.2 0 0 3.1 7.2 0 0 3-7.2 0 0 3.3 8.4 0 0 3-11.8 0 0-15.4zM99.5 20l2-2.4c1.4 1.1 2.8 1.9 4.6 1.9 1.4 0 2.2-.6 2.2-1.5 0-.9-.5-1.3-3.1-2-3.1-.8-5.1-1.7-5.1-4.7 0-2.8 2.3-4.7 5.4-4.7 2.3 0 4.2.7 5.7 2l-1.8 2.6c-1.4-.9-2.7-1.5-4-1.5-1.3 0-2 .6-2 1.3 0 1 .7 1.3 3.3 2 3.1.8 4.9 1.9 4.9 4.6 0 3.1-2.3 4.8-5.7 4.8-2.2 0-4.6-.8-6.4-2.4zM113.8 20l2-2.4c1.4 1.1 2.8 1.9 4.6 1.9 1.4 0 2.2-.6 2.2-1.5 0-.9-.5-1.3-3.1-2-3.1-.8-5.1-1.7-5.1-4.7 0-2.8 2.3-4.7 5.4-4.7 2.3 0 4.2.7 5.7 2l-1.8 2.6c-1.4-.9-2.7-1.5-4-1.5-1.3 0-2 .6-2 1.3 0 1 .7 1.3 3.3 2 3.1.8 4.9 1.9 4.9 4.6 0 3.1-2.3 4.8-5.7 4.8-2.2 0-4.5-.8-6.4-2.4zM134.4 6.8l3.2 0 7.2 9.5 0-9.5 3.4 0 0 15.4-2.9 0-7.5-9.8 0 9.8-3.4 0 0-15.4zM155.9 16.1l-6-9.3 4 0 3.7 6.2 3.8-6.2 3.8 0-5.9 9.3 0 6.1-3.4 0 0-6.1zM165 14.5c0-4.4 3.3-8 8.1-8 2.9 0 4.7 1 6.1 2.4l-2.2 2.5c-1.2-1.1-2.4-1.7-4-1.7-2.6 0-4.5 2.2-4.5 4.8 0 2.7 1.8 4.9 4.5 4.9 1.8 0 2.8-.7 4.1-1.8l2.2 2.2c-1.6 1.7-3.4 2.8-6.3 2.8-4.6-.1-8-3.6-8-8.1z"/></g></symbol><symbol id="icon-logo-mark" viewBox="0 0 30 30"><path d="M22.4,23c0,0.5 -0.4,1 -1,1l-12.8,0c-0.5,0 -1,-0.4 -1,-1l0,-8.7c0,-0.5 0.4,-1 1,-1l11.2,0l0,-2.5c0,-2.4 -1.2,-3.5 -3.9,-3.5c-5.5,0 -5.5,1.7 -5.5,2.8l0,1c0,0.3 -0.2,0.6 -0.7,0.4l-1.6,-0.6c-0.3,-0.1 -0.3,-0.3 -0.3,-0.7l0,-0.2c0,-5.4 5.9,-5.4 8.1,-5.4c4.1,0 6.5,2.2 6.5,6.1l0,12.3Zm-7.4,-23c-8.3,0 -15,6.7 -15,15c0,8.3 6.7,15 15,15c8.3,0 15,-6.7 15,-15c0,-8.3 -6.7,-15 -15,-15Zm4.3,16l-8.6,0c-0.3,0 -0.5,0.2 -0.5,0.5l0,4.4c0,0.3 0.2,0.5 0.5,0.5l8.6,0c0.3,0 0.5,-0.2 0.5,-0.5l0,-4.4c0,-0.3 -0.2,-0.5 -0.5,-0.5Z" fill="#fbb720" fill-rule="nonzero"/></symbol><symbol id="icon-logo-nyc" viewBox="0 0 350 117"><g fill="currentColor" fill-rule="nonzero"><path d="M327.9 0l-72.9 0-21.8 21.9 0 72.8 21.8 21.9 72.9 0 21.8-21.9 0-21.8-7.2-7.3-36.5 0 0 7.3-29.1 0 0-29.2 29.1 0 0 7.2 36.5 0 7.2-7.2 0-21.8-21.8-21.9zM109.3 0l-29.2 0-7.2 7.3 0 29.1-36.5-36.4-29.1 0-7.3 7.3 0 102 7.3 7.3 29.1 0 7.3-7.3 0-29.2 36.4 36.5 29.2 0 7.3-7.3 0-102-7.3-7.3z"/><path d="M160.3,116.6l29.1,0l7.3,-7.3l0,-21.9l36.5,-36.4l0,-43.7l-7.3,-7.3l-29.2,0l-7.3,7.3l0,14.6l-14.5,14.5l-14.6,-14.5l0,-14.6l-7.3,-7.3l-29.1,0l-7.3,7.3l0,43.7l36.4,36.4l0,21.9l7.3,7.3Z"/></g></symbol><symbol id="icon-minus" viewBox="0 0 33 33"><g fill="currentColor" fill-rule="nonzero"><path d="M8.2 14.5H24.1V17.7H8.2z"/><path d="M16.294,0.039c0.675,0.009 1.349,0.053 2.018,0.144c1.603,0.216 3.171,0.676 4.635,1.363c1.946,0.913 3.699,2.222 5.136,3.819c1.384,1.539 2.472,3.34 3.187,5.283c0.66,1.796 0.998,3.707 0.988,5.621c-0.005,0.888 -0.082,1.778 -0.235,2.653c-0.117,0.666 -0.28,1.325 -0.481,1.971c-0.46,1.476 -1.133,2.883 -1.995,4.167c-1,1.49 -2.252,2.809 -3.685,3.889c-1.475,1.112 -3.139,1.97 -4.9,2.526c-1.513,0.478 -3.096,0.731 -4.683,0.749c-0.712,0.008 -1.425,-0.039 -2.13,-0.142c-0.178,-0.026 -0.354,-0.055 -0.531,-0.089c-0.114,-0.022 -0.228,-0.048 -0.342,-0.07c-0.135,-0.027 -0.271,-0.049 -0.406,-0.076c-0.202,-0.04 -0.404,-0.084 -0.605,-0.132c-0.657,-0.157 -1.305,-0.356 -1.937,-0.595c-1.775,-0.672 -3.424,-1.666 -4.848,-2.92c-1.397,-1.229 -2.575,-2.704 -3.468,-4.336c-0.806,-1.471 -1.381,-3.069 -1.694,-4.717c-0.26,-1.365 -0.341,-2.763 -0.241,-4.149c0.123,-1.696 0.51,-3.374 1.154,-4.948c0.697,-1.702 1.693,-3.278 2.926,-4.643c1.387,-1.536 3.069,-2.802 4.927,-3.714c1.402,-0.688 2.903,-1.173 4.443,-1.432c0.717,-0.121 1.44,-0.188 2.167,-0.215c0.2,-0.005 0.4,-0.007 0.6,-0.007Zm-0.354,1.687c-0.53,0.009 -1.059,0.041 -1.586,0.105c-1.087,0.132 -2.158,0.389 -3.188,0.763c-1.453,0.528 -2.82,1.289 -4.034,2.246c-1.258,0.993 -2.349,2.197 -3.208,3.551c-0.683,1.077 -1.218,2.245 -1.587,3.465c-0.175,0.579 -0.311,1.169 -0.414,1.765c-0.176,1.021 -0.252,2.056 -0.211,3.092c0.066,1.646 0.418,3.277 1.034,4.805c0.692,1.72 1.716,3.304 2.999,4.642c1.297,1.355 2.857,2.453 4.573,3.212c1.838,0.812 3.846,1.232 5.855,1.227c2.003,-0.004 3.997,-0.434 5.826,-1.249c1.588,-0.707 3.046,-1.699 4.286,-2.916c1.085,-1.065 2.002,-2.3 2.702,-3.649c0.582,-1.123 1.014,-2.324 1.282,-3.56c0.31,-1.426 0.403,-2.898 0.273,-4.352c-0.142,-1.576 -0.548,-3.126 -1.192,-4.572c-0.754,-1.694 -1.833,-3.24 -3.163,-4.532c-1.263,-1.227 -2.749,-2.22 -4.369,-2.912c-0.666,-0.285 -1.354,-0.518 -2.056,-0.699c-0.238,-0.061 -0.478,-0.116 -0.719,-0.165c-0.183,-0.038 -0.184,-0.035 -0.367,-0.07c-0.084,-0.017 -0.167,-0.036 -0.252,-0.051c-0.164,-0.03 -0.329,-0.054 -0.496,-0.074c-0.402,-0.046 -0.807,-0.062 -1.213,-0.07c-0.258,-0.003 -0.517,-0.004 -0.775,-0.002Z"/></g></symbol><symbol id="icon-people-with-disabilities" viewBox="0 0 20 21"><g fill="#118df0" fill-rule="nonzero"><path d="M10.3.1l3.8 3 4.6-1.4-1.6 4.5 2.8 3.9-4.9-.1-2.8 3.8-1.3-4.6-4.6-1.6 4-2.6 0-4.9zM3.3 10.6l2.7 2.2 3.3-1.1-1.2 3.3 2 2.8-3.4-.1-2.1 2.8-1-3.4-3.3-1.1 2.9-1.9.1-3.5z"/></g></symbol><symbol id="icon-plus" viewBox="0 0 33 33"><g fill="currentColor" fill-rule="nonzero"><path d="M14.4,17.7l-5.4,0l0,-3.2l5.5,0l0,-5.7l3.4,0l0,5.7l5.5,0l0,3.2l-5.5,0l0,5.7l-3.4,0l0,-5.7l-0.1,0Z"/><path d="M16.294,0.039c0.675,0.009 1.349,0.053 2.018,0.144c1.603,0.216 3.171,0.676 4.635,1.363c1.946,0.913 3.699,2.222 5.136,3.819c1.384,1.539 2.472,3.34 3.187,5.283c0.66,1.796 0.998,3.707 0.988,5.621c-0.005,0.888 -0.082,1.778 -0.235,2.653c-0.117,0.666 -0.28,1.325 -0.481,1.971c-0.46,1.476 -1.133,2.883 -1.995,4.167c-1,1.49 -2.252,2.809 -3.685,3.889c-1.475,1.112 -3.139,1.97 -4.9,2.526c-1.513,0.478 -3.096,0.731 -4.683,0.749c-0.712,0.008 -1.425,-0.039 -2.13,-0.142c-0.178,-0.026 -0.354,-0.055 -0.531,-0.089c-0.114,-0.022 -0.228,-0.048 -0.342,-0.07c-0.135,-0.027 -0.271,-0.049 -0.406,-0.076c-0.202,-0.04 -0.404,-0.084 -0.605,-0.132c-0.657,-0.157 -1.305,-0.356 -1.937,-0.595c-1.775,-0.672 -3.424,-1.666 -4.848,-2.92c-1.397,-1.229 -2.575,-2.704 -3.468,-4.336c-0.806,-1.471 -1.381,-3.069 -1.694,-4.717c-0.26,-1.365 -0.341,-2.763 -0.241,-4.149c0.123,-1.696 0.51,-3.374 1.154,-4.948c0.697,-1.702 1.693,-3.278 2.926,-4.643c1.387,-1.536 3.069,-2.802 4.927,-3.714c1.402,-0.688 2.903,-1.173 4.443,-1.432c0.717,-0.121 1.44,-0.188 2.167,-0.215c0.2,-0.005 0.4,-0.007 0.6,-0.007Zm-0.354,1.687c-0.53,0.009 -1.059,0.041 -1.586,0.105c-1.087,0.132 -2.158,0.389 -3.188,0.763c-1.453,0.528 -2.82,1.289 -4.034,2.246c-1.258,0.993 -2.349,2.197 -3.208,3.551c-0.683,1.077 -1.218,2.245 -1.587,3.465c-0.175,0.579 -0.311,1.169 -0.414,1.765c-0.176,1.021 -0.252,2.056 -0.211,3.092c0.066,1.646 0.418,3.277 1.034,4.805c0.692,1.72 1.716,3.304 2.999,4.642c1.297,1.355 2.857,2.453 4.573,3.212c1.838,0.812 3.846,1.232 5.855,1.227c2.003,-0.004 3.997,-0.434 5.826,-1.249c1.588,-0.707 3.046,-1.699 4.286,-2.916c1.085,-1.065 2.002,-2.3 2.702,-3.649c0.582,-1.123 1.014,-2.324 1.282,-3.56c0.31,-1.426 0.403,-2.898 0.273,-4.352c-0.142,-1.576 -0.548,-3.126 -1.192,-4.572c-0.754,-1.694 -1.833,-3.24 -3.163,-4.532c-1.263,-1.227 -2.749,-2.22 -4.369,-2.912c-0.666,-0.285 -1.354,-0.518 -2.056,-0.699c-0.238,-0.061 -0.478,-0.116 -0.719,-0.165c-0.183,-0.038 -0.184,-0.035 -0.367,-0.07c-0.084,-0.017 -0.167,-0.036 -0.252,-0.051c-0.164,-0.03 -0.329,-0.054 -0.496,-0.074c-0.402,-0.046 -0.807,-0.062 -1.213,-0.07c-0.258,-0.003 -0.517,-0.004 -0.775,-0.002Z"/></g></symbol><symbol id="icon-screening" viewBox="0 0 21 20"><g fill="currentColor" fill-rule="nonzero"><path d="M17.5,19.9l-4.7,-4.7c-1.3,0.8 -2.8,1.3 -4.5,1.3c-4.6,0 -8.3,-3.7 -8.3,-8.2c0,-4.6 3.7,-8.3 8.3,-8.3c4.6,0 8.3,3.7 8.3,8.3c0,1.6 -0.4,3.1 -1.2,4.3l4.8,4.8c0.3,0.2 0,0.9 -0.5,1.4l-0.7,0.7c-0.6,0.4 -1.2,0.6 -1.5,0.4Zm-3.7,-11.6c0,-3 -2.5,-5.5 -5.5,-5.5c-3,0 -5.5,2.5 -5.5,5.5c0,3 2.5,5.5 5.5,5.5c3,0 5.5,-2.5 5.5,-5.5Z"/><path d="M12 6.7l-4.6 0c-.2 0-.3-.1-.3-.3 0-.2.1-.3.3-.3l4.6 0c.2 0 .3.1.3.3 0 .2-.2.3-.3.3zM5.7 6.7l-.6 0c-.1 0-.3-.1-.3-.3 0-.2.1-.3.3-.3l.6 0c.2 0 .3.1.3.3 0 .2-.1.3-.3.3zM12 8.6l-4.6 0c-.2 0-.3-.1-.3-.3 0-.2.1-.3.3-.3l4.6 0c.2 0 .3.1.3.3 0 .2-.2.3-.3.3zM5.7 8.6l-.6 0c-.1 0-.3-.1-.3-.3 0-.2.2-.3.3-.3l.6 0c.2 0 .3.1.3.3 0 .2-.1.3-.3.3z"/><g><path d="M12 10.5l-4.6 0c-.2 0-.3-.1-.3-.3 0-.2.1-.3.3-.3l4.6 0c.2 0 .3.1.3.3 0 .2-.2.3-.3.3zM5.7 10.5l-.6 0c-.2 0-.3-.1-.3-.3 0-.2.2-.3.3-.3l.6 0c.2 0 .3.1.3.3 0 .2-.1.3-.3.3z"/></g></g></symbol><symbol id="icon-share" viewBox="0 0 23 17"><path d="M0,0l0,16.1l23,0l0,-13.2l0,-2.9l-23,0Zm1.4,1.4l20.1,0l0,0.7l-10,6.5l-10.1,-6.5l0,-0.7Zm10.1,9l1.7,-1.1l6.9,5.4l-17.3,0l6.9,-5.5l1.8,1.2Zm-3.1,-2.1l-7,5.5l0,-10l7,4.5Zm13.2,5.7l-7,-5.6l7,-4.6l0,10.2Z" fill="currentColor" fill-rule="nonzero"/></symbol><symbol id="icon-success" viewBox="0 0 32 32"><path d="M29.8333705,7.9629004 C28.4036335,5.51343426 26.4641912,3.57399203 24.0147888,2.14431873 C21.5646215,0.714645418 18.8900717,0 15.9890996,0 C13.0883187,0 10.413004,0.714645418 7.96341036,2.14431873 C5.51368924,3.5738008 3.57431076,5.51324303 2.14457371,7.9629004 C0.714645418,10.412749 0,13.0880637 0,15.9885259 C0,18.8893068 0.714900398,21.5641116 2.14431873,24.0142151 C3.57405578,26.4634263 5.51349801,28.4031235 7.96315538,29.8327968 C10.413004,31.2624064 13.0880637,31.9771155 15.9887809,31.9771155 C18.8895618,31.9771155 21.5648765,31.2624064 24.0144701,29.8327968 C26.4639363,28.4033147 28.4033785,26.4636175 29.8330518,24.0142151 C31.2624064,21.5643028 31.9771155,18.8890518 31.9771155,15.9885259 C31.9771793,13.0878088 31.2624701,10.4123665 29.8333705,7.9629004 Z M26.3560159,13.5528287 L15.0517928,24.8571793 C14.7880159,25.1209562 14.4689721,25.2529721 14.0940876,25.2529721 C13.7332271,25.2529721 13.4210677,25.1209562 13.1572908,24.8571793 L5.62071713,17.3211155 C5.37115538,17.0709801 5.24615139,16.7593307 5.24615139,16.3843825 C5.24615139,15.9957291 5.37083665,15.6763665 5.62071713,15.4264223 L7.51521912,13.5528924 C7.779251,13.289243 8.09115538,13.1573546 8.45220717,13.1573546 C8.81325896,13.1573546 9.12554582,13.289243 9.38925896,13.5528924 L14.0943426,18.2579761 L22.5883665,9.78473307 C22.8520159,9.52095618 23.1643028,9.38906773 23.5250996,9.38906773 C23.8855139,9.38906773 24.1983745,9.52095618 24.4618327,9.78473307 L26.3563347,11.6585179 C26.6065339,11.9082072 26.7311554,12.2273147 26.7311554,12.6159044 C26.7312191,12.9907251 26.6064701,13.303012 26.3560159,13.5528287 Z" fill="currentColor" fill-rule="nonzero"/></symbol><symbol id="icon-ui-alert-octagon" viewBox="0 0 24 24"><path d="M7.86 2L16.14 2 22 7.86 22 16.14 16.14 22 7.86 22 2 16.14 2 7.86 7.86 2zM12 8L12 12M12 16L12 16"/></symbol><symbol id="icon-ui-alert-triangle" viewBox="0 0 24 24"><path d="M10.29 3.86L1.82 18a2 2 0 0 0 1.71 3h16.94a2 2 0 0 0 1.71-3L13.71 3.86a2 2 0 0 0-3.42 0zM12 9L12 13M12 17L12 17"/></symbol><symbol id="icon-ui-calendar" viewBox="0 0 24 24"><rect x="3" y="4" width="18" height="18" rx="2" ry="2"/><path d="M16 2L16 6M8 2L8 6M3 10L21 10"/></symbol><symbol id="icon-ui-check-circle" viewBox="0 0 24 24"><path d="M22 11.08V12a10 10 0 1 1-5.93-9.14"/><path d="M22 4L12 14.01 9 11.01"/></symbol><symbol id="icon-ui-check" viewBox="0 0 24 24"><path d="M20 6L9 17 4 12"/></symbol><symbol id="icon-ui-chevron-down" viewBox="0 0 24 24"><path d="M6 9L12 15 18 9"/></symbol><symbol id="icon-ui-chevron-left" viewBox="0 0 24 24"><path d="M15 18L9 12 15 6"/></symbol><symbol id="icon-ui-chevron-right" viewBox="0 0 24 24"><path d="M9 18L15 12 9 6"/></symbol><symbol id="icon-ui-chevron-up" viewBox="0 0 24 24"><path d="M18 15L12 9 6 15"/></symbol><symbol id="icon-ui-info" viewBox="0 0 24 24"><circle cx="12" cy="12" r="10"/><path d="M12 16L12 12M12 8L12 8"/></symbol><symbol id="icon-ui-mail" viewBox="0 0 24 24"><path d="M4 4h16c1.1 0 2 .9 2 2v12c0 1.1-.9 2-2 2H4c-1.1 0-2-.9-2-2V6c0-1.1.9-2 2-2z"/><path d="M22 6L12 13 2 6"/></symbol><symbol id="icon-ui-message-circle" viewBox="0 0 24 24"><path d="M21 11.5a8.38 8.38 0 0 1-.9 3.8 8.5 8.5 0 0 1-7.6 4.7 8.38 8.38 0 0 1-3.8-.9L3 21l1.9-5.7a8.38 8.38 0 0 1-.9-3.8 8.5 8.5 0 0 1 4.7-7.6 8.38 8.38 0 0 1 3.8-.9h.5a8.48 8.48 0 0 1 8 8v.5z"/></symbol><symbol id="icon-ui-minus-circle" viewBox="0 0 24 24"><circle cx="12" cy="12" r="10"/><path d="M8 12L16 12"/></symbol><symbol id="icon-ui-plus-circle" viewBox="0 0 24 24"><circle cx="12" cy="12" r="10"/><path d="M12 8L12 16M8 12L16 12"/></symbol><symbol id="icon-ui-printer" viewBox="0 0 24 24"><path d="M6 9L6 2 18 2 18 9M6 18H4a2 2 0 0 1-2-2v-5a2 2 0 0 1 2-2h16a2 2 0 0 1 2 2v5a2 2 0 0 1-2 2h-2"/><path d="M6 14H18V22H6z"/></symbol><symbol id="icon-ui-search" viewBox="0 0 24 24"><circle cx="11" cy="11" r="8"/><path d="M21 21L16.65 16.65"/></symbol><symbol id="icon-ui-settings" viewBox="0 0 24 24"><circle cx="12" cy="12" r="3"/><path d="M19.4 15a1.65 1.65 0 0 0 .33 1.82l.06.06a2 2 0 0 1 0 2.83 2 2 0 0 1-2.83 0l-.06-.06a1.65 1.65 0 0 0-1.82-.33 1.65 1.65 0 0 0-1 1.51V21a2 2 0 0 1-2 2 2 2 0 0 1-2-2v-.09A1.65 1.65 0 0 0 9 19.4a1.65 1.65 0 0 0-1.82.33l-.06.06a2 2 0 0 1-2.83 0 2 2 0 0 1 0-2.83l.06-.06a1.65 1.65 0 0 0 .33-1.82 1.65 1.65 0 0 0-1.51-1H3a2 2 0 0 1-2-2 2 2 0 0 1 2-2h.09A1.65 1.65 0 0 0 4.6 9a1.65 1.65 0 0 0-.33-1.82l-.06-.06a2 2 0 0 1 0-2.83 2 2 0 0 1 2.83 0l.06.06a1.65 1.65 0 0 0 1.82.33H9a1.65 1.65 0 0 0 1-1.51V3a2 2 0 0 1 2-2 2 2 0 0 1 2 2v.09a1.65 1.65 0 0 0 1 1.51 1.65 1.65 0 0 0 1.82-.33l.06-.06a2 2 0 0 1 2.83 0 2 2 0 0 1 0 2.83l-.06.06a1.65 1.65 0 0 0-.33 1.82V9a1.65 1.65 0 0 0 1.51 1H21a2 2 0 0 1 2 2 2 2 0 0 1-2 2h-.09a1.65 1.65 0 0 0-1.51 1z"/></symbol><symbol id="icon-ui-user-check" viewBox="0 0 24 24"><path d="M16 21v-2a4 4 0 0 0-4-4H5a4 4 0 0 0-4 4v2"/><circle cx="8.5" cy="7" r="4"/><path d="M17 11L19 13 23 9"/></symbol><symbol id="icon-ui-x-circle" viewBox="0 0 24 24"><circle cx="12" cy="12" r="10"/><path d="M15 9L9 15M9 9L15 15"/></symbol><symbol id="icon-ui-x" viewBox="0 0 24 24"><path d="M18 6L6 18M6 6L18 18"/></symbol><symbol id="icon-urgent" viewBox="0 0 32 32"><path d="M29.8010699,7.94698603 C28.3741637,5.50246707 26.4386427,3.56688224 23.9940599,2.13997605 C21.5489022,0.713261477 18.8796806,0 15.984479,0 C13.0895329,0 10.4198004,0.713261477 7.97483433,2.13997605 C5.52999601,3.56662675 3.59447505,5.50221158 2.16763273,7.94698603 C0.740598802,10.3919521 0.0273373253,13.0618762 0.0273373253,15.9566307 C0.0273373253,18.8513852 0.740854291,21.5210539 2.16731337,23.9662754 C3.59415569,26.4103473 5.52974052,28.3463792 7.97451497,29.7732216 C10.419481,31.2 13.0892136,31.9132615 15.9841597,31.9132615 C18.8791058,31.9132615 21.5490938,31.2 23.9937405,29.7732216 C26.4383234,28.3466347 28.3738443,26.4107944 29.8007505,23.9662754 C31.2272735,21.5210539 31.9405349,18.8511297 31.9405349,15.9566307 C31.9405988,13.0618762 31.2273373,10.3915689 29.8010699,7.94698603 Z M18.6440559,25.9086307 C18.6440559,26.1027385 18.5813333,26.2651657 18.4567824,26.3968064 C18.3323593,26.5284471 18.1798323,26.5939162 17.999521,26.5939162 L14.0102515,26.5939162 C13.8303234,26.5939162 13.6709621,26.5248064 13.532487,26.3863313 C13.3938842,26.2478563 13.3247745,26.088495 13.3247745,25.9086307 L13.3247745,21.9611976 C13.3247745,21.7812056 13.3938842,21.6217804 13.532487,21.4833054 C13.6708982,21.3448942 13.8303234,21.2757844 14.0102515,21.2757844 L17.999521,21.2757844 C18.1798323,21.2757844 18.3326148,21.3416367 18.4567824,21.4728942 C18.5812695,21.604982 18.6440559,21.7672176 18.6440559,21.9612615 L18.6440559,25.9086307 Z M18.6022196,18.761517 C18.5881677,18.899992 18.5157365,19.0214132 18.384479,19.1250778 C18.2526467,19.2289341 18.0900918,19.2807984 17.8963034,19.2807984 L14.0524072,19.2807984 C13.8583633,19.2807984 13.6921677,19.2289341 13.5536926,19.1250778 C13.4150898,19.0214132 13.3457884,18.899992 13.3457884,18.761517 L12.9926387,5.85887425 C12.9926387,5.69242315 13.0617485,5.568 13.2002236,5.48483832 C13.3389541,5.3741477 13.5051497,5.31857884 13.6990659,5.31857884 L18.2704032,5.31857884 C18.464511,5.31857884 18.630515,5.37389222 18.76899,5.48483832 C18.9074651,5.56806387 18.9763194,5.69267864 18.9763194,5.85887425 L18.6022196,18.761517 Z" fill="currentColor" fill-rule="nonzero"/></symbol><symbol id="icon-warning" viewBox="0 0 32 30"><path d="M31.652326,26.2762624 L17.9731849,1.1965328 C17.7711968,0.828437376 17.4921034,0.537447316 17.1353956,0.323880716 C16.7794513,0.110059642 16.3933519,0.00311729622 15.9777972,0.00311729622 C15.5621789,0.00311729622 15.1760795,0.110314115 14.8199443,0.323880716 C14.4638091,0.537447316 14.1845885,0.828500994 13.9827913,1.1965328 L0.303204771,26.2762624 C-0.112477137,27.0246044 -0.100644135,27.7726918 0.338767396,28.5207793 C0.540819085,28.8649543 0.816922465,29.1382584 1.16714115,29.3398012 C1.51761431,29.5419165 1.89455268,29.6430696 2.29840159,29.6430696 L29.6574473,29.6430696 C30.0616779,29.6430696 30.4384254,29.5419165 30.7888986,29.3398012 C31.1393718,29.1382584 31.4149662,28.8649543 31.6172724,28.5207793 C32.0566203,27.772501 32.0683897,27.0246044 31.652326,26.2762624 Z M18.2582584,24.4948867 C18.2582584,24.660994 18.2015746,24.8005726 18.0892883,24.9132406 C17.976493,25.0260994 17.842831,25.0822107 17.6883022,25.0822107 L14.2683101,25.0822107 C14.1139722,25.0822107 13.9803101,25.0260994 13.8675785,24.9132406 C13.7547197,24.8003181 13.6983539,24.660994 13.6983539,24.4948867 L13.6983539,21.1105209 C13.6983539,20.9444135 13.7547197,20.8050895 13.8675785,20.692167 C13.9803101,20.5793082 14.1137177,20.5231968 14.2683101,20.5231968 L17.6879841,20.5231968 C17.8425765,20.5231968 17.976175,20.5793082 18.0889702,20.692167 C18.2016382,20.8050895 18.2580676,20.9444135 18.2580676,21.1105209 L18.2580676,24.4948867 L18.2582584,24.4948867 Z M18.2228231,17.8332883 C18.2105447,17.952 18.1481352,18.0499085 18.0356581,18.1272048 C17.922672,18.204501 17.7832843,18.2427992 17.6169861,18.2427992 L14.3216223,18.2427992 C14.1555149,18.2427992 14.0130099,18.2043101 13.894171,18.1272048 C13.7752684,18.0496541 13.7160398,17.952 13.7160398,17.8329066 L13.4132803,9.6932008 C13.4132803,9.52677535 13.4727634,9.40221074 13.5914115,9.31918887 C13.7457495,9.18864414 13.8883181,9.12330815 14.0190537,9.12330815 L17.9376859,9.12330815 C18.0684851,9.12330815 18.2109901,9.18838966 18.365328,9.31918887 C18.4840398,9.40227435 18.5430775,9.51506958 18.5430775,9.65757455 L18.2228231,17.8332883 Z" fill="currentColor" fill-rule="nonzero"/></symbol><symbol id="icon-work" viewBox="0 0 20 21"><g fill="none" fill-rule="evenodd"><g fill="#118DF0"><path d="M0.5,17.3 C0.5,17.1 0.5,16.8 0.5,16.6 C0.5,12.6 3.8,9.3 7.8,9.3 C11.8,9.3 15.1,12.6 15.1,16.6 C15.1,16.8 15.1,17.1 15.1,17.3" fill-rule="nonzero"/><circle cx="7.8" cy="5" r="5"/></g><g transform="translate(7 8)"><circle fill="#184E9E" cx="6.4" cy="6.4" r="6.1"/><path d="M6.4,6.8 C6.1,6.8 6,6.6 6,6.4 L6,2.4 C6,2.2 6.2,2 6.4,2 L6.5,2 C6.7,2 6.9,2.2 6.9,2.4 L6.9,6.4 C6.7,6.6 6.6,6.8 6.4,6.8 Z" fill="#FFF" fill-rule="nonzero"/><path d="M8.7,8.7 L8.6,8.8 C8.5,8.9 8.3,8.9 8.1,8.8 L6,6.7 C5.9,6.6 5.9,6.4 6,6.2 L6.1,6.1 C6.2,6 6.4,6 6.6,6.1 L8.7,8.2 C8.9,8.3 8.9,8.5 8.7,8.7 Z" fill="#FFF" fill-rule="nonzero"/></g></g></symbol></svg>