<svg viewBox="0 0 40 40" fill="none" xmlns="http://www.w3.org/2000/svg">
<g fill="transparent">
<path d="M4 6H35V33H4V6Z" fill="white" stroke="black" stroke-width="2"/>
<mask id="path-3-outside-1" maskUnits="userSpaceOnUse" x="3.0625" y="10.6875" width="12" height="9" fill="black">
<rect fill="white" x="3.0625" y="10.6875" width="12" height="9"/>
<path d="M12.2812 13.2969C12.2812 13.7709 12.1879 14.2402 12.0065 14.6781C11.8251 15.116 11.5592 15.5139 11.2241 15.8491C10.8889 16.1842 10.491 16.4501 10.0531 16.6315C9.61521 16.8129 9.14586 16.9062 8.67187 16.9062C8.19789 16.9062 7.72854 16.8129 7.29063 16.6315C6.85272 16.4501 6.45482 16.1842 6.11966 15.8491C5.7845 15.5139 5.51864 15.116 5.33725 14.6781C5.15586 14.2402 5.0625 13.7709 5.0625 13.2969L8.67188 13.2969H12.2812Z"/>
</mask>
<path d="M12.2812 13.2969C12.2812 13.7709 12.1879 14.2402 12.0065 14.6781C11.8251 15.116 11.5592 15.5139 11.2241 15.8491C10.8889 16.1842 10.491 16.4501 10.0531 16.6315C9.61521 16.8129 9.14586 16.9062 8.67187 16.9062C8.19789 16.9062 7.72854 16.8129 7.29063 16.6315C6.85272 16.4501 6.45482 16.1842 6.11966 15.8491C5.7845 15.5139 5.51864 15.116 5.33725 14.6781C5.15586 14.2402 5.0625 13.7709 5.0625 13.2969L8.67188 13.2969H12.2812Z" stroke="black" stroke-width="4" mask="url(#path-3-outside-1)"/>
<mask id="path-4-outside-2" maskUnits="userSpaceOnUse" x="10.2812" y="10.6875" width="12" height="9" fill="black">
<rect fill="white" x="10.2812" y="10.6875" width="12" height="9"/>
<path d="M19.5 13.2969C19.5 13.7709 19.4066 14.2402 19.2253 14.6781C19.0439 15.116 18.778 15.5139 18.4428 15.8491C18.1077 16.1842 17.7098 16.4501 17.2719 16.6315C16.834 16.8129 16.3646 16.9062 15.8906 16.9062C15.4166 16.9062 14.9473 16.8129 14.5094 16.6315C14.0715 16.4501 13.6736 16.1842 13.3384 15.8491C13.0032 15.5139 12.7374 15.116 12.556 14.6781C12.3746 14.2402 12.2812 13.7709 12.2813 13.2969L15.8906 13.2969H19.5Z"/>
</mask>
<path d="M19.5 13.2969C19.5 13.7709 19.4066 14.2402 19.2253 14.6781C19.0439 15.116 18.778 15.5139 18.4428 15.8491C18.1077 16.1842 17.7098 16.4501 17.2719 16.6315C16.834 16.8129 16.3646 16.9062 15.8906 16.9062C15.4166 16.9062 14.9473 16.8129 14.5094 16.6315C14.0715 16.4501 13.6736 16.1842 13.3384 15.8491C13.0032 15.5139 12.7374 15.116 12.556 14.6781C12.3746 14.2402 12.2812 13.7709 12.2813 13.2969L15.8906 13.2969H19.5Z" stroke="black" stroke-width="4" mask="url(#path-4-outside-2)"/>
<mask id="path-5-outside-3" maskUnits="userSpaceOnUse" x="17.5" y="10.6875" width="12" height="9" fill="black">
<rect fill="white" x="17.5" y="10.6875" width="12" height="9"/>
<path d="M26.7188 13.2969C26.7188 13.7709 26.6254 14.2402 26.444 14.6781C26.2626 15.116 25.9967 15.5139 25.6616 15.8491C25.3264 16.1842 24.9285 16.4501 24.4906 16.6315C24.0527 16.8129 23.5834 16.9062 23.1094 16.9062C22.6354 16.9062 22.166 16.8129 21.7281 16.6315C21.2902 16.4501 20.8923 16.1842 20.5572 15.8491C20.222 15.5139 19.9561 15.116 19.7747 14.6781C19.5934 14.2402 19.5 13.7709 19.5 13.2969L23.1094 13.2969H26.7188Z"/>
</mask>
<path d="M26.7188 13.2969C26.7188 13.7709 26.6254 14.2402 26.444 14.6781C26.2626 15.116 25.9967 15.5139 25.6616 15.8491C25.3264 16.1842 24.9285 16.4501 24.4906 16.6315C24.0527 16.8129 23.5834 16.9062 23.1094 16.9062C22.6354 16.9062 22.166 16.8129 21.7281 16.6315C21.2902 16.4501 20.8923 16.1842 20.5572 15.8491C20.222 15.5139 19.9561 15.116 19.7747 14.6781C19.5934 14.2402 19.5 13.7709 19.5 13.2969L23.1094 13.2969H26.7188Z" stroke="black" stroke-width="4" mask="url(#path-5-outside-3)"/>
<mask id="path-6-outside-4" maskUnits="userSpaceOnUse" x="24.7188" y="10.6875" width="12" height="9" fill="black">
<rect fill="white" x="24.7188" y="10.6875" width="12" height="9"/>
<path d="M33.9375 13.2969C33.9375 13.7709 33.8441 14.2402 33.6628 14.6781C33.4814 15.116 33.2155 15.5139 32.8803 15.8491C32.5452 16.1842 32.1473 16.4501 31.7094 16.6315C31.2715 16.8129 30.8021 16.9062 30.3281 16.9062C29.8541 16.9062 29.3848 16.8129 28.9469 16.6315C28.509 16.4501 28.1111 16.1842 27.7759 15.8491C27.4407 15.5139 27.1749 15.116 26.9935 14.6781C26.8121 14.2402 26.7187 13.7709 26.7188 13.2969L30.3281 13.2969H33.9375Z"/>
</mask>
<path d="M33.9375 13.2969C33.9375 13.7709 33.8441 14.2402 33.6628 14.6781C33.4814 15.116 33.2155 15.5139 32.8803 15.8491C32.5452 16.1842 32.1473 16.4501 31.7094 16.6315C31.2715 16.8129 30.8021 16.9062 30.3281 16.9062C29.8541 16.9062 29.3848 16.8129 28.9469 16.6315C28.509 16.4501 28.1111 16.1842 27.7759 15.8491C27.4407 15.5139 27.1749 15.116 26.9935 14.6781C26.8121 14.2402 26.7187 13.7709 26.7188 13.2969L30.3281 13.2969H33.9375Z" stroke="black" stroke-width="4" mask="url(#path-6-outside-4)"/>
<rect x="5" y="7" width="29" height="7" fill="#9425A8"/>
<path d="M12.2969 13.4427C12.2969 13.8975 12.2033 14.3479 12.0215 14.7681C11.8398 15.1884 11.5733 15.5702 11.2374 15.8918C10.9015 16.2134 10.5028 16.4685 10.0639 16.6426C9.62507 16.8167 9.1547 16.9062 8.67969 16.9062C8.20467 16.9062 7.73431 16.8167 7.29545 16.6426C6.85659 16.4685 6.45784 16.2134 6.12195 15.8918C5.78606 15.5702 5.51962 15.1884 5.33784 14.7681C5.15606 14.3479 5.0625 13.8975 5.0625 13.4427L8.67969 13.4427H12.2969Z" fill="#9425A8"/>
<path d="M19.5312 13.4427C19.5312 13.8975 19.4377 14.3479 19.2559 14.7681C19.0741 15.1884 18.8077 15.5702 18.4718 15.8918C18.1359 16.2134 17.7372 16.4685 17.2983 16.6426C16.8594 16.8167 16.3891 16.9062 15.9141 16.9062C15.439 16.9062 14.9687 16.8167 14.5298 16.6426C14.091 16.4685 13.6922 16.2134 13.3563 15.8918C13.0204 15.5702 12.754 15.1884 12.5722 14.7681C12.3904 14.3479 12.2969 13.8975 12.2969 13.4427L15.9141 13.4427H19.5312Z" fill="#9425A8"/>
<path d="M26.7656 13.4427C26.7656 13.8975 26.6721 14.3479 26.4903 14.7681C26.3085 15.1884 26.0421 15.5702 25.7062 15.8918C25.3703 16.2134 24.9715 16.4685 24.5327 16.6426C24.0938 16.8167 23.6235 16.9062 23.1484 16.9062C22.6734 16.9062 22.2031 16.8167 21.7642 16.6426C21.3253 16.4685 20.9266 16.2134 20.5907 15.8918C20.2548 15.5702 19.9884 15.1884 19.8066 14.7681C19.6248 14.3479 19.5312 13.8975 19.5313 13.4427L23.1484 13.4427H26.7656Z" fill="#9425A8"/>
<path d="M34 13.4427C34 13.8975 33.9064 14.3479 33.7247 14.7681C33.5429 15.1884 33.2764 15.5702 32.9406 15.8918C32.6047 16.2134 32.2059 16.4685 31.7671 16.6426C31.3282 16.8167 30.8578 16.9062 30.3828 16.9062C29.9078 16.9062 29.4374 16.8167 28.9986 16.6426C28.5597 16.4685 28.161 16.2134 27.8251 15.8918C27.4892 15.5702 27.2227 15.1884 27.041 14.7681C26.8592 14.3479 26.7656 13.8975 26.7656 13.4427L30.3828 13.4427H34Z" fill="#9425A8"/>
<rect x="16" y="24" width="8" height="10" fill="black"/>
</g>
</svg>
