<svg viewBox="0 0 40 40" fill="none" xmlns="http://www.w3.org/2000/svg">
<path fill-rule="evenodd" clip-rule="evenodd" d="M31.106 18.1691L19 34L6.89407 18.1692C6.72055 17.9644 6.55714 17.7508 6.40461 17.5291L6 17C5.31932 15.8233 5 14.4571 5 13C5 8.58172 8.58172 5 13 5C15.3894 5 17.5341 6.04751 19 7.70835C20.4659 6.04751 22.6106 5 25 5C29.4183 5 33 8.58172 33 13C33 14.4571 32.6807 15.8233 32 17L31.5953 17.5292C31.4428 17.7508 31.2795 17.9644 31.106 18.1691Z" fill="white" stroke="black" stroke-width="2"/>
<path d="M34 23V18H19V23H34Z" fill="#9425A8"/>
<path d="M29 13H24V28H29V13Z" fill="#9425A8"/>
</svg>
