<?xml version="1.0" encoding="UTF-8"?>
<svg viewBox="0 0 692 121" version="1.1" xmlns="http://www.w3.org/2000/svg" xmlns:xlink="http://www.w3.org/1999/xlink">
    <!-- Generator: Sketch 51.2 (57519) - http://www.bohemiancoding.com/sketch -->
    <title>icon-logo-secondary</title>
    <desc>Created with Sketch.</desc>
    <defs></defs>
    <g stroke="none" stroke-width="1" fill="none" fill-rule="evenodd">
        <g fill="currentColor" fill-rule="nonzero">
            <polygon points="367.84 53.03 375.66 45.65 375.66 23.23 352.2 0.81 274.02 0.81 250.57 23.23 250.57 8.29 242.75 0.81 211.47 0.81 203.66 8.29 203.66 23.23 188.03 38.18 172.39 23.23 172.39 8.29 164.57 0.81 133.3 0.81 125.48 8.29 117.66 0.81 86.39 0.81 78.57 8.29 78.57 38.18 39.48 0.81 8.21 0.81 0.38 8.29 0.38 112.91 8.21 120.38 39.48 120.38 47.29 112.91 47.29 83.02 86.39 120.38 117.66 120.38 125.48 112.91 125.48 53.12 164.57 90.49 164.57 112.91 172.39 120.38 203.66 120.38 211.47 112.91 211.47 90.49 250.57 53.12 250.57 97.96 274.02 120.38 352.2 120.38 375.66 97.96 375.66 75.54 367.84 68.06 328.75 68.06 328.75 75.54 297.48 75.54 297.48 45.65 328.75 45.65 328.75 53.03"></polygon>
            <polygon points="391 3.33 402.49 3.33 407.65 23.33 407.73 23.33 412.89 3.33 424.38 3.33 424.38 33.33 417.04 33.33 417.04 10.54 417 10.54 410.7 33.28 404.7 33.28 398.41 10.54 398.33 10.54 398.33 33.28 391 33.28"></polygon>
            <path d="M429.23,18.22 C429.213269,15.8014893 430.516783,13.5663456 432.63,12.39 C434.767578,11.2975633 437.151643,10.777341 439.55,10.88 C444.71,10.88 449.7,12.01 449.7,18.18 L449.7,27.7 C449.557667,29.5994702 449.844764,31.5066156 450.54,33.28 L443.37,33.28 C443.143457,32.6138552 443.002331,31.9216637 442.95,31.22 C441.032489,33.0713431 438.4316,34.0421486 435.77,33.9 C431.57,33.9 428.35,31.8 428.35,27.31 C428.35,20.31 436.07,20.77 441.02,19.76 C442.24,19.47 442.9,19.09 442.9,17.76 C442.9,16.12 440.9,15.5 439.46,15.5 C437.4,15.5 436.23,16.42 435.89,18.23 L429.23,18.22 Z M438.46,29.5 C441.86,29.5 442.99,27.61 442.82,23.08 C441.82,23.71 439.97,23.79 438.42,24.25 C436.87,24.71 435.48,25.25 435.48,27.02 C435.48,28.79 436.83,29.5 438.46,29.5 Z"></path>
            <path d="M466.26,35.21 C464.58,39.99 461.94,40.58 457.16,40.58 L453.8,40.58 L453.8,34.79 L456.28,34.79 C457.92,34.79 459.13,33.87 459.13,32.36 C459.13,31.18 457.75,27.83 457.33,26.66 L451.71,11.52 L459.26,11.52 L463.37,25.7 L463.46,25.7 L467.57,11.52 L474.87,11.52 L466.26,35.21 Z"></path>
            <path d="M487.32,10.88 C490.403685,10.7869371 493.388325,11.9745425 495.565071,14.1607609 C497.741817,16.3469793 498.916452,19.3367481 498.81,22.42 C498.81,28.7547061 493.674706,33.89 487.34,33.89 C481.005294,33.89 475.87,28.7547061 475.87,22.42 C475.755177,19.3413827 476.921539,16.3528808 479.091419,14.1659448 C481.2613,11.9790088 484.240578,10.7892842 487.32,10.88 Z M487.32,28.46 C490.67,28.46 491.68,25.23 491.68,22.46 C491.68,19.69 490.68,16.38 487.32,16.38 C483.96,16.38 483,19.65 483,22.41 C483,25.17 484,28.45 487.32,28.45 L487.32,28.46 Z"></path>
            <path d="M502.79,11.51 L509.71,11.51 L509.71,15.33 L509.8,15.33 C510.799618,12.6236176 513.461306,10.8979973 516.34,11.09 C516.904572,11.0841698 517.46804,11.1411874 518.02,11.26 L518.02,17.76 C517.13782,17.4770048 516.216447,17.3352552 515.29,17.34 C513.87278,17.2339725 512.477402,17.7360503 511.452638,18.7207395 C510.427874,19.7054287 509.870562,21.0796798 509.92,22.5 L509.92,33.28 L502.79,33.28 L502.79,11.51 Z"></path>
            <path d="M520.91,3.33 L527.58,3.33 L527.58,10.33 C527.58,14.52 525.48,17.67 520.91,18.47 L520.91,15.07 C522.773646,14.7223152 524.070597,13.018986 523.91,11.13 L520.91,11.13 L520.91,3.33 Z"></path>
            <path d="M538.35,26.11 C538.31142,27.0642106 538.749999,27.975106 539.52,28.54 C540.298113,29.0647999 541.221954,29.3307541 542.16,29.3 C543.5,29.3 545.52,28.67 545.52,26.99 C545.52,25.31 543.25,24.99 542.04,24.68 C537.55,23.55 531.93,23.42 531.93,17.55 C531.93,12.35 537.59,10.88 541.87,10.88 C546.61,10.88 551.69,12.26 551.87,17.88 L545.29,17.88 C545.365816,17.126643 545.009703,16.3950623 544.37,15.99 C543.686316,15.5814449 542.894865,15.3896836 542.1,15.44 C540.93,15.44 539.04,15.57 539.04,17.08 C539.04,19.08 543.82,19.56 547.09,20.23 C551.45,21.11 552.63,24.3 552.63,26.1 C552.63,31.93 547.09,33.86 542.19,33.86 C536.99,33.86 531.74,32.14 531.53,26.06 L538.35,26.11 Z"></path>
            <path d="M583.27,2.7 C592.67,2.7 598.04,9.62 598.04,18.3 C598.04,26.98 592.67,33.9 583.27,33.9 C573.87,33.9 568.5,27 568.5,18.3 C568.5,9.6 573.87,2.7 583.27,2.7 Z M583.27,27.2 C588.27,27.2 590.27,22.8 590.27,18.31 C590.27,13.82 588.34,9.42 583.27,9.42 C578.2,9.42 576.27,13.82 576.27,18.31 C576.27,22.8 578.24,27.2 583.27,27.2 Z"></path>
            <path d="M603.52,16.12 L600.08,16.12 L600.08,11.51 L603.52,11.51 C603.52,5.26 605.7,3.33 611.79,3.33 C612.92,3.33 614.1,3.41 615.23,3.46 L615.23,8.46 C614.590053,8.37600114 613.945431,8.33258105 613.3,8.33 C611.67,8.33 610.66,8.54 610.66,10.51 L610.66,11.51 L614.94,11.51 L614.94,16.12 L610.66,16.12 L610.66,33.28 L603.53,33.28 L603.52,16.12 Z"></path>
            <path d="M619,16.12 L615.6,16.12 L615.6,11.51 L619,11.51 C619,5.26 621.18,3.33 627.26,3.33 C628.39,3.33 629.57,3.41 630.7,3.46 L630.7,8.46 C630.060042,8.37610727 629.415428,8.33268764 628.77,8.33 C627.14,8.33 626.13,8.54 626.13,10.51 L626.13,11.51 L630.41,11.51 L630.41,16.12 L626.13,16.12 L626.13,33.28 L619,33.28 L619,16.12 Z M639.6,8.78 L632.5,8.78 L632.5,3.33 L639.63,3.33 L639.6,8.78 Z M632.47,11.51 L639.6,11.51 L639.6,33.28 L632.5,33.28 L632.47,11.51 Z"></path>
            <path d="M658.84,19.48 C658.743024,17.6519531 657.188641,16.2449693 655.36,16.33 C651.36,16.33 650.75,19.73 650.75,22.75 C650.75,25.56 651.97,28.45 654.99,28.45 C657.51,28.45 658.72,27.07 659.06,24.72 L666,24.72 C665.33,30.59 660.88,33.91 655.05,33.91 C648.51,33.91 643.64,29.46 643.64,22.75 C643.64,15.83 648.04,10.88 655.05,10.88 C660.5,10.88 665.24,13.77 665.79,19.48 L658.84,19.48 Z"></path>
            <path d="M675.61,24.13 C675.74,27.13 677.46,29.13 680.48,29.13 C682.199691,29.2487555 683.815919,28.2996682 684.55,26.74 L691.22,26.74 C689.88,31.74 685.22,33.96 680.4,33.96 C673.31,33.96 668.49,29.68 668.49,22.38 C668.483458,19.2906243 669.72777,16.330169 671.939439,14.1731325 C674.151108,12.0160961 677.141754,10.846204 680.23,10.93 C688.03,10.93 691.94,16.8 691.6,24.19 L675.61,24.13 Z M684.46,20.13 C684.499453,17.7375221 682.611591,15.756157 680.22,15.68 C677.7,15.68 676.07,17.44 675.61,20.13 L684.46,20.13 Z"></path>
            <path d="M392.24,56 L388.8,56 L388.8,51.35 L392.24,51.35 C392.24,45.1 394.42,43.17 400.5,43.17 C401.63,43.17 402.81,43.25 403.94,43.3 L403.94,48.3 C403.296095,48.2257138 402.64813,48.1923135 402,48.2 C400.37,48.2 399.36,48.41 399.36,50.38 L399.36,51.38 L403.64,51.38 L403.64,56 L399.36,56 L399.36,73.12 L392.23,73.12 L392.24,56 Z"></path>
            <path d="M416.61,50.72 C419.693685,50.6269371 422.678325,51.8145425 424.855071,54.0007609 C427.031817,56.1869793 428.206452,59.1767481 428.1,62.26 C428.1,68.5974675 422.962468,73.735 416.625,73.735 C410.287532,73.735 405.15,68.5974675 405.15,62.26 C405.035027,59.1795937 406.202733,56.1894587 408.374831,54.0021975 C410.546929,51.8149364 413.528868,50.6264587 416.61,50.72 Z M416.61,68.3 C419.97,68.3 420.97,65.07 420.97,62.3 C420.97,59.53 419.97,56.22 416.61,56.22 C413.25,56.22 412.29,59.53 412.29,62.3 C412.29,65.07 413.3,68.3 416.61,68.3 Z"></path>
            <path d="M432.08,51.35 L439,51.35 L439,55.17 L439.08,55.17 C440.083397,52.4620538 442.748603,50.7367909 445.63,50.93 C446.194576,50.9240868 446.758053,50.9811053 447.31,51.1 L447.31,57.6 C446.427859,57.3168409 445.50646,57.1750872 444.58,57.18 C443.16278,57.0739725 441.767402,57.5760503 440.742638,58.5607395 C439.717874,59.5454287 439.160562,60.9196798 439.21,62.34 L439.21,73.12 L432.08,73.12 L432.08,51.35 Z"></path>
            <polygon points="463.2 43.17 487.07 43.17 487.07 49.42 471 49.42 471 54.66 485.68 54.66 485.68 60.66 471 60.66 471 66.36 487.49 66.36 487.49 73.07 463.2 73.07"></polygon>
            <path d="M505.81,59.32 C505.713024,57.4919531 504.158641,56.0849693 502.33,56.17 C498.33,56.17 497.72,59.57 497.72,62.59 C497.72,65.4 498.94,68.29 501.96,68.29 C504.48,68.29 505.69,66.91 506.03,64.56 L512.95,64.56 C512.28,70.43 507.83,73.75 502,73.75 C495.46,73.75 490.59,69.3 490.59,62.59 C490.59,55.67 494.99,50.72 502,50.72 C507.45,50.72 512.19,53.61 512.74,59.32 L505.81,59.32 Z"></path>
            <path d="M526.91,50.72 C529.993685,50.6269371 532.978325,51.8145425 535.155071,54.0007609 C537.331817,56.1869793 538.506452,59.1767481 538.4,62.26 C538.4,68.5974675 533.262468,73.735 526.925,73.735 C520.587532,73.735 515.45,68.5974675 515.45,62.26 C515.335027,59.1795937 516.502733,56.1894587 518.674831,54.0021975 C520.846929,51.8149364 523.828868,50.6264587 526.91,50.72 Z M526.91,68.3 C530.27,68.3 531.27,65.07 531.27,62.3 C531.27,59.53 530.27,56.22 526.91,56.22 C523.55,56.22 522.59,59.53 522.59,62.3 C522.59,65.07 523.59,68.3 526.91,68.3 Z"></path>
            <path d="M542.13,51.35 L549,51.35 L549,54.35 L549.08,54.35 C550.634722,52.0591778 553.231517,50.6969861 556,50.72 C563.26,50.72 563.84,56.01 563.84,59.15 L563.84,73.15 L556.71,73.15 L556.71,60.41 C556.71,58.31 556,56.59 553.15,56.59 C550.47,56.59 549.29,58.9 549.29,61.25 L549.29,73.12 L542.16,73.12 L542.13,51.35 Z"></path>
            <path d="M578.95,50.72 C582.033685,50.6269371 585.018325,51.8145425 587.195071,54.0007609 C589.371817,56.1869793 590.546452,59.1767481 590.44,62.26 C590.44,68.5974675 585.302468,73.735 578.965,73.735 C572.627532,73.735 567.49,68.5974675 567.49,62.26 C567.375027,59.1795937 568.542733,56.1894587 570.714831,54.0021975 C572.886929,51.8149364 575.868868,50.6264587 578.95,50.72 Z M578.95,68.3 C582.3,68.3 583.31,65.07 583.31,62.3 C583.31,59.53 582.31,56.22 578.95,56.22 C575.59,56.22 574.63,59.53 574.63,62.3 C574.63,65.07 575.63,68.3 578.95,68.3 Z"></path>
            <path d="M594.17,51.35 L601.09,51.35 L601.09,54.35 L601.18,54.35 C602.466216,52.1139337 604.8504,50.7368288 607.43,50.74 C610.16,50.74 612.59,51.62 613.76,54.26 C615.259245,51.982802 617.835085,50.6494259 620.56,50.74 C627.48,50.74 628.24,55.98 628.24,60.14 L628.24,73.14 L621.1,73.14 L621.1,60.33 C621.1,57.98 619.97,56.6 618.1,56.6 C615.04,56.6 614.75,58.95 614.75,62.47 L614.75,73.12 L607.62,73.12 L607.62,60.75 C607.62,58.19 606.91,56.6 604.94,56.6 C602.38,56.6 601.29,58.11 601.29,62.51 L601.29,73.12 L594.16,73.12 L594.17,51.35 Z"></path>
            <path d="M640.38,48.62 L633.25,48.62 L633.25,43.17 L640.38,43.17 L640.38,48.62 Z M633.25,51.35 L640.38,51.35 L640.38,73.12 L633.25,73.12 L633.25,51.35 Z"></path>
            <path d="M659.6,59.32 C659.503024,57.4919531 657.948641,56.0849693 656.12,56.17 C652.12,56.17 651.51,59.57 651.51,62.59 C651.51,65.4 652.73,68.29 655.75,68.29 C658.27,68.29 659.49,66.91 659.82,64.56 L666.74,64.56 C666.07,70.43 661.62,73.75 655.79,73.75 C649.25,73.75 644.38,69.3 644.38,62.59 C644.38,55.67 648.78,50.72 655.79,50.72 C661.24,50.72 665.98,53.61 666.53,59.32 L659.6,59.32 Z"></path>
            <path d="M404.62,82.4 C414.02,82.4 419.39,89.32 419.39,98 C419.39,106.68 414.02,113.6 404.62,113.6 C395.22,113.6 389.85,106.68 389.85,98 C389.85,89.32 395.22,82.4 404.62,82.4 Z M404.62,106.9 C409.62,106.9 411.62,102.5 411.62,98.01 C411.62,93.52 409.69,89.12 404.62,89.12 C399.55,89.12 397.62,93.52 397.62,98.01 C397.62,102.5 399.58,106.9 404.62,106.9 Z"></path>
            <path d="M422.89,91.21 L429.69,91.21 L429.69,93.73 L429.77,93.73 C431.076974,91.6980173 433.355246,90.5019248 435.77,90.58 C442.61,90.58 445.5,96.41 445.5,102.58 C445.5,108.24 442.5,113.58 436.31,113.58 C433.869833,113.675301 431.542063,112.550774 430.1,110.58 L430,110.58 L430,120.23 L422.87,120.23 L422.89,91.21 Z M429.77,101.86 C429.77,105.68 430.86,108.15 434.09,108.15 C437.32,108.15 438.37,104.84 438.37,101.86 C438.37,99.09 437.37,96.03 434.13,96.03 C432.25,96 429.77,97.33 429.77,101.86 Z"></path>
            <path d="M448.88,91.21 L455.68,91.21 L455.68,93.73 L455.76,93.73 C457.065579,91.6964939 459.344784,90.4999111 461.76,90.58 C468.6,90.58 471.49,96.41 471.49,102.58 C471.49,108.24 468.49,113.58 462.3,113.58 C459.85946,113.67709 457.530893,112.552179 456.09,110.58 L456,110.58 L456,120.23 L448.87,120.23 L448.88,91.21 Z M455.76,101.86 C455.76,105.68 456.85,108.15 460.08,108.15 C463.31,108.15 464.36,104.84 464.36,101.86 C464.36,99.09 463.31,96.03 460.12,96.03 C458.24,96 455.76,97.33 455.76,101.86 Z"></path>
            <path d="M485.28,90.58 C489.943849,90.5516673 494.164612,93.3382241 495.970922,97.6381693 C497.777232,101.938115 496.812643,106.902922 493.527679,110.213706 C490.242715,113.524491 485.285612,114.527923 480.971656,112.755333 C476.6577,110.982744 473.838183,106.783927 473.83,102.12 C473.724109,99.0438929 474.893362,96.0606268 477.06125,93.8756988 C479.229138,91.6907708 482.203158,90.4981959 485.28,90.58 Z M485.28,108.16 C488.64,108.16 489.64,104.93 489.64,102.16 C489.64,99.39 488.64,96.08 485.28,96.08 C481.92,96.08 480.96,99.39 480.96,102.16 C480.96,104.93 482,108.16 485.28,108.16 Z"></path>
            <path d="M499.28,91.21 L506.2,91.21 L506.2,95 L506.28,95 C507.279618,92.2936176 509.941306,90.5679973 512.82,90.76 C513.384572,90.7541698 513.94804,90.8111874 514.5,90.93 L514.5,97.43 C513.617859,97.1468409 512.69646,97.0050872 511.77,97.01 C510.35278,96.9039725 508.957402,97.4060503 507.932638,98.3907395 C506.907874,99.3754287 506.350562,100.74968 506.4,102.17 L506.4,113 L499.27,113 L499.28,91.21 Z"></path>
            <path d="M531.69,95.82 L527.29,95.82 L527.29,105.72 C527.29,107.44 528.29,107.82 529.85,107.82 C530.48,107.82 531.07,107.74 531.7,107.74 L531.7,113 C530.4,113 529.1,113.21 527.8,113.21 C521.72,113.21 520.16,111.41 520.16,105.53 L520.16,95.82 L516.55,95.82 L516.55,91.21 L520.16,91.21 L520.16,84.62 L527.29,84.62 L527.29,91.21 L531.69,91.21 L531.69,95.82 Z"></path>
            <path d="M556.94,113 L550,113 L550,110 L549.92,110 C548.452397,112.235956 545.964506,113.590599 543.29,113.61 C537.04,113.61 535.24,110 535.24,104.3 L535.24,91.21 L542.37,91.21 L542.37,103.84 C542.37,106.73 543.59,107.74 545.9,107.74 C547.41,107.74 549.8,106.74 549.8,102.87 L549.8,91.21 L556.93,91.21 L556.94,113 Z"></path>
            <path d="M561.71,91.21 L568.63,91.21 L568.63,94.21 L568.72,94.21 C570.263387,91.9503224 572.823545,90.5991278 575.56,90.6 C582.81,90.6 583.4,95.89 583.4,99.03 L583.4,113.03 L576.27,113.03 L576.27,100.27 C576.27,98.17 575.56,96.45 572.71,96.45 C570.03,96.45 568.85,98.76 568.85,101.11 L568.85,113 L561.72,113 L561.71,91.21 Z"></path>
            <path d="M595.08,88.48 L587.95,88.48 L587.95,83 L595.08,83 L595.08,88.48 Z M587.95,91.21 L595.08,91.21 L595.08,113 L587.95,113 L587.95,91.21 Z"></path>
            <path d="M613.24,95.82 L608.84,95.82 L608.84,105.72 C608.84,107.44 609.84,107.82 611.4,107.82 C612.03,107.82 612.62,107.74 613.24,107.74 L613.24,113 C611.94,113 610.64,113.21 609.34,113.21 C603.26,113.21 601.7,111.41 601.7,105.53 L601.7,95.82 L598.1,95.82 L598.1,91.21 L601.7,91.21 L601.7,84.62 L608.83,84.62 L608.83,91.21 L613.23,91.21 L613.24,95.82 Z"></path>
            <path d="M629.34,114.91 C627.66,119.69 625.02,120.28 620.24,120.28 L616.89,120.28 L616.89,114.49 L619.37,114.49 C621,114.49 622.22,113.57 622.22,112.06 C622.22,110.89 620.84,107.53 620.41,106.36 L614.79,91.22 L622.34,91.22 L626.45,105.4 L626.53,105.4 L630.64,91.22 L637.94,91.22 L629.34,114.91 Z"></path>
        </g>
    </g>
</svg>