<svg viewBox="0 0 48 48" fill="none" xmlns="http://www.w3.org/2000/svg">
<path d="M24 48C37.2548 48 48 37.2548 48 24C48 10.7452 37.2548 0 24 0C10.7452 0 0 10.7452 0 24C0 37.2548 10.7452 48 24 48Z"/>
<path d="M24 44C35.0457 44 44 35.0457 44 24C44 12.9543 35.0457 4 24 4C12.9543 4 4 12.9543 4 24C4 35.0457 12.9543 44 24 44Z" fill="currentColor"/>
<path d="M33 13H23V35H33V13Z" fill="white"/>
<path d="M27 27H25V29H27V27Z" fill="currentColor"/>
<path d="M27 31H25V33H27V31Z" fill="currentColor"/>
<path d="M31 27H29V29H31V27Z" fill="currentColor"/>
<path d="M31 31H29V33H31V31Z" fill="currentColor"/>
<path d="M27 23H25V25H27V23Z" fill="currentColor"/>
<path d="M31 23H29V25H31V23Z" fill="currentColor"/>
<path d="M27 19H25V21H27V19Z" fill="currentColor"/>
<path d="M31 19H29V21H31V19Z" fill="currentColor"/>
<path d="M27 15H25V17H27V15Z" fill="currentColor"/>
<path d="M31 15H29V17H31V15Z" fill="currentColor"/>
<path d="M24 35H12V26.9394L18 22.5L23.9241 26.8545L24 26.9394V35Z" fill="white"/>
<path d="M19 27L19 29L21 29L21 27L19 27Z" fill="currentColor"/>
<path d="M19 31L19 33L21 33L21 31L19 31Z" fill="currentColor"/>
<path d="M15 27L15 29L17 29L17 27L15 27Z" fill="currentColor"/>
<path d="M15 31L15 33L17 33L17 31L15 31Z" fill="currentColor"/>
<rect x="22" y="12" width="12" height="1" fill="white"/>
</svg>
