<svg viewBox="0 0 48 48" fill="none" xmlns="http://www.w3.org/2000/svg">
<path d="M37.7638 23.4844V29.6768C37.7638 30.4331 37.3372 31.1248 36.6613 31.4641L24.8974 37.3711C24.3327 37.6546 23.6672 37.6546 23.1025 37.3711L11.3386 31.4641C10.6627 31.1248 10.2361 30.4331 10.2361 29.6768V23.4844L23.9999 30.3663L37.7638 23.4844Z" fill="currentColor"/>
<path d="M8 19H7V34H8V19Z" fill="currentColor"/>
<path d="M7.49223 34L9.73447 39.9793H5.25L7.49223 34V34Z" fill="currentColor"/>
<path d="M23.757 8.05631C23.9107 7.98123 24.0893 7.98123 24.2431 8.05631L44.3238 17.8607C44.7543 18.0709 44.7528 18.6993 44.3213 18.9074L24.2407 28.5907C24.0883 28.6642 23.9118 28.6642 23.7594 28.5907L3.67873 18.9074C3.24723 18.6993 3.24576 18.0709 3.67628 17.8607L23.757 8.05631Z" fill="currentColor"/>
<path d="M24.0001 20.0434C24.792 20.0434 25.4339 19.4015 25.4339 18.6096C25.4339 17.8178 24.792 17.1759 24.0001 17.1759C23.2083 17.1759 22.5664 17.8178 22.5664 18.6096C22.5664 19.4015 23.2083 20.0434 24.0001 20.0434Z" fill="#FFFFFF"/>
<circle cx="7.5" cy="34.5" r="1.5" fill="currentColor"/>
</svg>
