<svg viewBox="0 0 48 48" fill="none" xmlns="http://www.w3.org/2000/svg">
<path d="M24 48C37.2548 48 48 37.2548 48 24C48 10.7452 37.2548 0 24 0C10.7452 0 0 10.7452 0 24C0 37.2548 10.7452 48 24 48Z"/>
<path d="M24 44C35.0457 44 44 35.0457 44 24C44 12.9543 35.0457 4 24 4C12.9543 4 4 12.9543 4 24C4 35.0457 12.9543 44 24 44Z" fill="currentColor"/>
<path d="M24.1209 10L29.3766 14.0777L35.6291 12.0842L33.3637 18.3367L37.2602 23.6831L30.5546 23.5018L26.6581 28.7576L24.8458 22.4145L18.5933 20.3303L24.0302 16.615L24.1209 10V10Z" fill="white"/>
<path d="M14.4305 24.4075L18.1458 27.3072L22.6766 25.948L21.0455 30.3882L23.8546 34.2847L19.052 34.1034L16.2429 37.9999L14.8836 33.3785L10.3528 31.838L14.3399 29.2101L14.4305 24.4075V24.4075Z" fill="white"/>
</svg>
