<svg viewBox="0 0 48 48" fill="none" xmlns="http://www.w3.org/2000/svg">
<path d="M24 48C37.2548 48 48 37.2548 48 24C48 10.7452 37.2548 0 24 0C10.7452 0 0 10.7452 0 24C0 37.2548 10.7452 48 24 48Z"/>
<path d="M24 44C35.0457 44 44 35.0457 44 24C44 12.9543 35.0457 4 24 4C12.9543 4 4 12.9543 4 24C4 35.0457 12.9543 44 24 44Z" fill="currentColor"/>
<rect x="10" y="15" width="28" height="18" rx="1" fill="white"/>
<path d="M35 25H27V27H35V25Z" fill="currentColor"/>
<path d="M35 21H27V23H35V21Z" fill="currentColor"/>
<rect x="13" y="18" width="12" height="12"/>
<path d="M14 30C14 29.8922 14 29.6765 14 29.5686C14 26.9803 16.2093 24.9312 19 24.9312C21.7907 24.9312 24 26.9803 24 29.5686C24 29.6765 24 29.8922 24 30" fill="currentColor"/>
<path d="M19 25.5C20.6569 25.5 22 24.1569 22 22.5C22 20.8431 20.6569 19.5 19 19.5C17.3431 19.5 16 20.8431 16 22.5C16 24.1569 17.3431 25.5 19 25.5Z" fill="currentColor"/>
</svg>
